<svg xmlns="http://www.w3.org/2000/svg" width="16" height="16" fill="none"><path fill="#D0D5DD" d="M12.91 1.232h-.596V.628a.625.625 0 1 0-1.25 0v.604H4.936V.628a.625.625 0 1 0-1.25 0v.604H3.09A3.093 3.093 0 0 0 0 4.322v8.585a3.093 3.093 0 0 0 3.09 3.09h9.82a3.093 3.093 0 0 0 3.09-3.09V4.321a3.093 3.093 0 0 0-3.09-3.089Zm-9.82 1.25h.596V3.7a.625.625 0 1 0 1.25 0V2.482h6.129V3.7a.625.625 0 1 0 1.25 0V2.482h.596c1.014 0 1.84.825 1.84 1.84v.596H1.249v-.597c0-1.014.826-1.84 1.84-1.84Zm9.82 12.265H3.09a1.842 1.842 0 0 1-1.84-1.84v-6.74h13.5v6.74c0 1.015-.825 1.84-1.84 1.84ZM5.55 8.625c0 .345-.28.624-.625.624H3.696a.625.625 0 1 1 0-1.249h1.229c.345 0 .625.28.625.625Zm7.378 0c0 .345-.28.624-.624.624h-1.229a.625.625 0 0 1 0-1.249h1.229c.345 0 .624.28.624.625Zm-3.693 0c0 .345-.28.624-.624.624H7.382a.625.625 0 1 1 0-1.249h1.229c.345 0 .624.28.624.625ZM5.55 12.31c0 .345-.28.624-.625.624H3.696a.625.625 0 1 1 0-1.25h1.229c.345 0 .625.28.625.626Zm7.378 0c0 .345-.28.624-.624.624h-1.229a.625.625 0 0 1 0-1.25h1.229c.345 0 .624.28.624.626Zm-3.693 0c0 .345-.28.624-.624.624H7.382a.625.625 0 1 1 0-1.25h1.229c.345 0 .624.28.624.626Z"/></svg>