<svg xmlns="http://www.w3.org/2000/svg" width="25" height="24" fill="none"><path fill="#004B52" d="M18.754 4.021 5.598 5.564a2.538 2.538 0 0 0-1.076 4.653l4.19 2.688a.897.897 0 0 1 .381.58l.795 4.914a2.54 2.54 0 0 0 3.898 1.716c.329-.221.604-.512.806-.853L21.25 7.81a2.539 2.539 0 0 0-2.488-3.793l-.007.004Zm1.027 2.94-6.656 11.451a.846.846 0 0 1-1.56-.293l-.8-4.91a1.677 1.677 0 0 0-.046-.193l4.875-3.197a.846.846 0 0 0-.929-1.416L9.79 11.6a1.693 1.693 0 0 0-.158-.118L5.448 8.79a.847.847 0 0 1 .351-1.546L18.955 5.7a.846.846 0 0 1 .826 1.26Z"/></svg>