<?xml version="1.0" encoding="UTF-8"?>
<!DOCTYPE svg PUBLIC "-//W3C//DTD SVG 1.1//EN" "http://www.w3.org/Graphics/SVG/1.1/DTD/svg11.dtd">
<!-- Creator: CorelDRAW X7 -->
<svg xmlns="http://www.w3.org/2000/svg" xml:space="preserve" width="39.48in" height="22.5in" version="1.1" style="shape-rendering:geometricPrecision; text-rendering:geometricPrecision; image-rendering:optimizeQuality; fill-rule:evenodd; clip-rule:evenodd"
viewBox="0 0 39480 22500"
 xmlns:xlink="http://www.w3.org/1999/xlink">
 <defs>
  <style type="text/css">
   <![CDATA[
    .fil0 {fill:#EEEEEE}
   ]]>
  </style>
    <clipPath id="id0">
     <path d="M0 0l39480 0 0 22500 -39480 0 0 -22500zm27757 10461l4478 0 0 490 -4478 0 0 -490z"/>
    </clipPath>
     <clipPath id="id1">
      <path d="M22184 4183l16378 0 0 17588 -16378 0 0 -17588z"/>
     </clipPath>
    <clipPath id="id2">
     <rect x="22874" y="4798" width="14242" height="15452"/>
    </clipPath>
    <clipPath id="id3">
     <path d="M32235 10951l0 0 -4478 0 0 0 4478 0z"/>
    </clipPath>
     <clipPath id="id4">
      <path d="M26357 10381l7266 0 0 900 -7266 0 0 -900z"/>
     </clipPath>
    <clipPath id="id5">
     <rect x="26422" y="10314" width="7148" height="783"/>
    </clipPath>
 </defs>
 <g id="Layer_x0020_1">
  <metadata id="CorelCorpID_0Corel-Layer"/>
  <g id="_2401516059280">
   <g style="clip-path:url(#id0)">
    <image x="0" y="0" width="39480" height="22500" xlink:href="Banking_Images\Banking_ImgID1.png"/>
   </g>
   <g>
    <g style="clip-path:url(#id1)">
     <image x="22184" y="4183" width="16379" height="17588" xlink:href="Banking_Images\Banking_ImgID2.png"/>
    </g>
   </g>
   <g style="clip-path:url(#id2)">
    <image x="22874" y="4798" width="14242" height="15452" xlink:href="Banking_Images\Banking_ImgID3.png"/>
   </g>
   <g style="clip-path:url(#id3)">
    <image x="0" y="0" width="39480" height="22500" xlink:href="Banking_Images\Banking_ImgID4.png"/>
   </g>
   <g>
    <g style="clip-path:url(#id4)">
     <image x="26357" y="10381" width="7265" height="901" xlink:href="Banking_Images\Banking_ImgID5.png"/>
    </g>
   </g>
   <g style="clip-path:url(#id5)">
    <image x="26422" y="10314" width="7148" height="783" xlink:href="Banking_Images\Banking_ImgID6.png"/>
   </g>
   <rect class="fil0" x="8212" y="4649" width="14242" height="15452" rx="117" ry="330"/>
  </g>
 </g>
</svg>
