<?xml version="1.0" standalone="no"?><svg xmlns:xlink="http://www.w3.org/1999/xlink" xmlns="http://www.w3.org/2000/svg" viewBox="0 0 1000 533.3333333333334" preserveAspectRatio="xMaxYMax slice"><g transform="scale(1.0731052984574112)"><rect x="0" y="0" width="931.875" height="497" fill="#e7fbfe"/><path d="M 456 103.13 A 19.88 19.88 0 0 1  475.88 83.25 L 456 103.13 A 19.88 19.88 0 0 0 475.88 83.25" fill="#cdf9f4"/><rect x="518.1225" y="83.2475" width="19.879999999999995" height="19.879999999999995" fill="#e7fbfe"/><polygon points="766.62,83.25 786.5,83.25 786.5,103.13" fill="#d8fcfd"/><polygon points="828.75,83.25 848.63,83.25 848.63,103.13" fill="#c4f8f1"/><path d="M 17.4 168.99 A 27.34 27.34 0 0 1  44.739999999999995 141.65 L 17.4 168.99 A 27.34 27.34 0 0 0 44.739999999999995 141.65" fill="#c3fcfd"/><polygon points="355.35999999999996,141.65 355.35999999999996,168.99 328.02,168.99" fill="#c0fdfc"/><rect x="390.145" y="141.645" width="27.335" height="27.335" fill="#e7fbfe"/><path d="M 390.15 155.32 A 13.67 13.67 0 0 1  403.82 141.65 L 390.15 155.32 A 13.67 13.67 0 0 0 403.82 141.65" fill="#d0f9f6"/><polygon points="403.81,155.31 417.48,168.98 403.81,168.98" fill="#89f4dc"/><path d="M 514.4 141.65 A 27.34 27.34 0 0 1  541.74 168.99 L 514.4 141.65 A 27.34 27.34 0 0 0 541.74 168.99" fill="#a1fefb"/><path d="M 576.52 141.65 A 27.34 27.34 0 0 1  603.86 168.99 L 576.52 141.65 A 27.34 27.34 0 0 0 603.86 168.99" fill="#dbfcfd"/><rect x="825.02" y="141.645" width="27.335" height="27.335" fill="#e7fbfe"/><polygon points="887.15,141.65 914.49,141.65 887.15,168.99" fill="#aafefb"/><rect x="262.1675" y="200.0425" width="34.78999999999999" height="34.78999999999999" fill="#e7fbfe"/><polygon points="296.95,217.44 296.95,234.82999999999998 279.56,234.82999999999998" fill="#aff7ea"/><polygon points="324.29,200.04 359.08000000000004,200.04 359.08000000000004,234.82999999999998" fill="#92f5df"/><path d="M 386.42 200.04 A 34.79 34.79 0 0 1  421.21000000000004 234.82999999999998 L 386.42 200.04 A 34.79 34.79 0 0 0 421.21000000000004 234.82999999999998" fill="#81f3d9"/><path d="M 572.79 200.04 A 34.79 34.79 0 0 1  607.5799999999999 234.82999999999998 L 572.79 200.04 A 34.79 34.79 0 0 0 607.5799999999999 234.82999999999998" fill="#e3fbfe"/><path d="M 697.04 234.82999999999998 A 34.79 34.79 0 0 1  731.8299999999999 200.04 L 697.04 234.82999999999998 A 34.79 34.79 0 0 0 731.8299999999999 200.04" fill="#97f5e1"/><polygon points="759.17,200.04 793.9599999999999,200.04 759.17,234.82999999999998" fill="#a4f6e6"/><rect x="72.065" y="258.44" width="42.245" height="42.245" fill="#e7fbfe"/><polygon points="72.07,258.44 93.19,258.44 93.19,279.56" fill="#9df5e3"/><polygon points="93.19,279.56 114.31,279.56 114.31,300.68" fill="#89f4dc"/><polygon points="196.32,258.44 238.57,258.44 238.57,300.69" fill="#b1fdfc"/><polygon points="258.44,258.44 300.69,258.44 300.69,300.69" fill="#dffbfe"/><polygon points="320.57,258.44 362.82,258.44 320.57,300.69" fill="#aff7ea"/><path d="M 382.69 258.44 A 42.25 42.25 0 0 1  424.94 300.69 L 382.69 258.44 A 42.25 42.25 0 0 0 424.94 300.69" fill="#88f4dc"/><polygon points="444.82,258.44 487.07,258.44 444.82,300.69" fill="#d9faf9"/><path d="M 506.94 258.44 A 42.25 42.25 0 0 1  549.19 300.69 L 506.94 258.44 A 42.25 42.25 0 0 0 549.19 300.69" fill="#c7f9f2"/><polygon points="817.57,258.44 859.82,258.44 817.57,300.69" fill="#e1fbfc"/><polygon points="6.21,316.84 55.910000000000004,316.84 6.21,366.53999999999996" fill="#b9f8ed"/><rect x="68.3375" y="316.8375" width="49.7" height="49.7" fill="#e7fbfe"/><path d="M 68.34 341.69 A 24.85 24.85 0 0 1  93.19 316.84 L 68.34 341.69 A 24.85 24.85 0 0 0 93.19 316.84" fill="#cef9f5"/><polygon points="93.19,316.84 118.03999999999999,341.69 93.19,341.69" fill="#d6faf8"/><polygon points="118.03999999999999,341.69 118.03999999999999,366.54 93.19,366.54" fill="#adfdfc"/><path d="M 130.46 316.84 A 49.7 49.7 0 0 1  180.16000000000003 366.53999999999996 L 130.46 316.84 A 49.7 49.7 0 0 0 180.16000000000003 366.53999999999996" fill="#a6fefb"/><rect x="192.5875" y="316.8375" width="49.7" height="49.7" fill="#e7fbfe"/><path d="M 217.44 341.69 A 24.85 24.85 0 0 1  242.29 316.84 L 217.44 341.69 A 24.85 24.85 0 0 0 242.29 316.84" fill="#aefdfc"/><path d="M 192.59 341.69 A 24.85 24.85 0 0 1  217.44 366.54 L 192.59 341.69 A 24.85 24.85 0 0 0 217.44 366.54" fill="#b8f7ed"/><path d="M 254.71 316.84 A 49.7 49.7 0 0 1  304.41 366.53999999999996 L 254.71 316.84 A 49.7 49.7 0 0 0 304.41 366.53999999999996" fill="#befdfc"/><path d="M 378.96 366.53999999999996 A 49.7 49.7 0 0 1  428.65999999999997 316.84 L 378.96 366.53999999999996 A 49.7 49.7 0 0 0 428.65999999999997 316.84" fill="#93f5df"/><path d="M 441.09 366.53999999999996 A 49.7 49.7 0 0 1  490.78999999999996 316.84 L 441.09 366.53999999999996 A 49.7 49.7 0 0 0 490.78999999999996 316.84" fill="#a7f6e7"/><path d="M 503.21 366.53999999999996 A 49.7 49.7 0 0 1  552.91 316.84 L 503.21 366.53999999999996 A 49.7 49.7 0 0 0 552.91 316.84" fill="#a4fefb"/><path d="M 565.34 366.53999999999996 A 49.7 49.7 0 0 1  615.0400000000001 316.84 L 565.34 366.53999999999996 A 49.7 49.7 0 0 0 615.0400000000001 316.84" fill="#a2fefb"/><path d="M 627.46 366.53999999999996 A 49.7 49.7 0 0 1  677.1600000000001 316.84 L 627.46 366.53999999999996 A 49.7 49.7 0 0 0 677.1600000000001 316.84" fill="#b4fdfc"/><polygon points="751.71,316.84 801.4100000000001,316.84 801.4100000000001,366.53999999999996" fill="#d5fcfd"/><path d="M 813.84 316.84 A 49.7 49.7 0 0 1  863.5400000000001 366.53999999999996 L 813.84 316.84 A 49.7 49.7 0 0 0 863.5400000000001 366.53999999999996" fill="#8af4dc"/><path d="M 875.96 366.53999999999996 A 49.7 49.7 0 0 1  925.6600000000001 316.84 L 875.96 366.53999999999996 A 49.7 49.7 0 0 0 925.6600000000001 316.84" fill="#aafefb"/><path d="M 2.49 375.24 A 57.15 57.15 0 0 1  59.64 432.39 L 2.49 375.24 A 57.15 57.15 0 0 0 59.64 432.39" fill="#e3fbfe"/><path d="M 64.61 375.24 A 57.15 57.15 0 0 1  121.75999999999999 432.39 L 64.61 375.24 A 57.15 57.15 0 0 0 121.75999999999999 432.39" fill="#b7fdfc"/><rect x="126.735" y="375.235" width="57.154999999999994" height="57.154999999999994" fill="#e7fbfe"/><polygon points="155.32,375.24 155.32,403.82 126.74,403.82" fill="#d1fcfd"/><polygon points="183.89,375.24 183.89,403.82 155.31,403.82" fill="#c4f8f1"/><path d="M 126.74 432.39 A 28.58 28.58 0 0 1  155.32 403.81 L 126.74 432.39 A 28.58 28.58 0 0 0 155.32 403.81" fill="#bbfdfc"/><path d="M 155.31 432.39 A 28.58 28.58 0 0 1  183.89 403.81 L 155.31 432.39 A 28.58 28.58 0 0 0 183.89 403.81" fill="#b8fdfc"/><rect x="188.86" y="375.235" width="57.154999999999994" height="57.154999999999994" fill="#e7fbfe"/><polygon points="188.86,375.24 217.44,375.24 217.44,403.82" fill="#a6fefb"/><path d="M 217.44 403.82 A 28.58 28.58 0 0 1  246.01999999999998 375.24 L 217.44 403.82 A 28.58 28.58 0 0 0 246.01999999999998 375.24" fill="#92f5df"/><polygon points="188.86,403.81 217.44,403.81 217.44,432.39" fill="#defafb"/><path d="M 217.44 432.39 A 28.58 28.58 0 0 1  246.01999999999998 403.81 L 217.44 432.39 A 28.58 28.58 0 0 0 246.01999999999998 403.81" fill="#9bf5e2"/><path d="M 250.99 375.24 A 57.15 57.15 0 0 1  308.14 432.39 L 250.99 375.24 A 57.15 57.15 0 0 0 308.14 432.39" fill="#b6f7ec"/><rect x="313.11" y="375.235" width="57.154999999999994" height="57.154999999999994" fill="#e7fbfe"/><path d="M 313.11 375.24 A 28.58 28.58 0 0 1  341.69 403.82 L 313.11 375.24 A 28.58 28.58 0 0 0 341.69 403.82" fill="#cffcfd"/><polygon points="341.69,375.24 370.27,403.82 341.69,403.82" fill="#bffdfc"/><path d="M 313.11 403.81 A 28.58 28.58 0 0 1  341.69 432.39 L 313.11 403.81 A 28.58 28.58 0 0 0 341.69 432.39" fill="#99f5e2"/><path d="M 341.69 403.81 A 28.58 28.58 0 0 1  370.27 432.39 L 341.69 403.81 A 28.58 28.58 0 0 0 370.27 432.39" fill="#8cf4dd"/><polygon points="375.24,375.24 432.39,375.24 375.24,432.39" fill="#e3fbfd"/><rect x="499.485" y="375.235" width="57.154999999999994" height="57.154999999999994" fill="#e7fbfe"/><polygon points="528.07,375.24 528.07,403.82 499.49,403.82" fill="#d9faf9"/><path d="M 528.06 403.82 A 28.58 28.58 0 0 1  556.64 375.24 L 528.06 403.82 A 28.58 28.58 0 0 0 556.64 375.24" fill="#dbfbfe"/><path d="M 499.49 432.39 A 28.58 28.58 0 0 1  528.07 403.81 L 499.49 432.39 A 28.58 28.58 0 0 0 528.07 403.81" fill="#b4f7ec"/><polygon points="556.64,403.81 556.64,432.39 528.06,432.39" fill="#b1f7ea"/><polygon points="561.61,375.24 618.76,432.39 561.61,432.39" fill="#93f5df"/><path d="M 685.86 375.24 A 57.15 57.15 0 0 1  743.01 432.39 L 685.86 375.24 A 57.15 57.15 0 0 0 743.01 432.39" fill="#a6fefb"/><polygon points="805.14,375.24 805.14,432.39 747.99,432.39" fill="#d8fcfd"/><polygon points="867.26,375.24 867.26,432.39 810.11,432.39" fill="#d4fcfd"/><path d="M 872.24 375.24 A 57.15 57.15 0 0 1  929.39 432.39 L 872.24 375.24 A 57.15 57.15 0 0 0 929.39 432.39" fill="#bdf8ef"/><path d="M 0 434.88 A 62.13 62.13 0 0 1  62.13 497.01 L 0 434.88 A 62.13 62.13 0 0 0 62.13 497.01" fill="#aefdfc"/><rect x="62.125" y="434.875" width="62.125" height="62.125" fill="#e7fbfe"/><polygon points="62.13,434.88 93.19,434.88 62.13,465.94" fill="#d5fcfd"/><path d="M 93.19 465.94 A 31.06 31.06 0 0 1  124.25 434.88 L 93.19 465.94 A 31.06 31.06 0 0 0 124.25 434.88" fill="#defbfe"/><polygon points="62.13,465.94 93.19,497 62.13,497" fill="#90f4de"/><path d="M 93.19 497 A 31.06 31.06 0 0 1  124.25 465.94 L 93.19 497 A 31.06 31.06 0 0 0 124.25 465.94" fill="#b8f7ed"/><polygon points="124.25,434.88 186.38,434.88 124.25,497.01" fill="#dffbfe"/><polygon points="186.38,434.88 248.51,434.88 186.38,497.01" fill="#c2fdfc"/><polygon points="248.5,434.88 310.63,497.01 248.5,497.01" fill="#b8fdfc"/><path d="M 310.63 497.01 A 62.13 62.13 0 0 1  372.76 434.88 L 310.63 497.01 A 62.13 62.13 0 0 0 372.76 434.88" fill="#befdfc"/><rect x="372.75" y="434.875" width="62.125" height="62.125" fill="#e7fbfe"/><path d="M 372.75 465.94 A 31.06 31.06 0 0 1  403.81 434.88 L 372.75 465.94 A 31.06 31.06 0 0 0 403.81 434.88" fill="#9af5e2"/><path d="M 403.81 434.88 A 31.06 31.06 0 0 1  434.87 465.94 L 403.81 434.88 A 31.06 31.06 0 0 0 434.87 465.94" fill="#d8faf9"/><path d="M 372.75 497 A 31.06 31.06 0 0 1  403.81 465.94 L 372.75 497 A 31.06 31.06 0 0 0 403.81 465.94" fill="#c5fcfd"/><polygon points="403.81,465.94 434.87,465.94 434.87,497" fill="#baf8ee"/><polygon points="434.88,434.88 497.01,434.88 497.01,497.01" fill="#e2fbfc"/><path d="M 497 434.88 A 62.13 62.13 0 0 1  559.13 497.01 L 497 434.88 A 62.13 62.13 0 0 0 559.13 497.01" fill="#e6fbfe"/><polygon points="621.26,434.88 621.26,497.01 559.13,497.01" fill="#e7fbfe"/><path d="M 621.25 497.01 A 62.13 62.13 0 0 1  683.38 434.88 L 621.25 497.01 A 62.13 62.13 0 0 0 683.38 434.88" fill="#e7fbfe"/><rect x="683.375" y="434.875" width="62.125" height="62.125" fill="#e7fbfe"/><path d="M 683.38 465.94 A 31.06 31.06 0 0 1  714.4399999999999 434.88 L 683.38 465.94 A 31.06 31.06 0 0 0 714.4399999999999 434.88" fill="#a1f6e4"/><path d="M 714.44 434.88 A 31.06 31.06 0 0 1  745.5 465.94 L 714.44 434.88 A 31.06 31.06 0 0 0 745.5 465.94" fill="#aefdfc"/><polygon points="683.38,465.94 714.4399999999999,465.94 683.38,497" fill="#c6fcfd"/><polygon points="714.44,465.94 745.5,465.94 745.5,497" fill="#a5f6e6"/><polygon points="745.5,434.88 807.63,434.88 745.5,497.01" fill="#aaf6e8"/><rect x="807.625" y="434.875" width="62.125" height="62.125" fill="#e7fbfe"/><polygon points="807.63,434.88 838.6899999999999,434.88 807.63,465.94" fill="#a8f6e7"/><polygon points="838.69,434.88 869.75,434.88 838.69,465.94" fill="#c1f8f0"/><path d="M 807.63 497 A 31.06 31.06 0 0 1  838.6899999999999 465.94 L 807.63 497 A 31.06 31.06 0 0 0 838.6899999999999 465.94" fill="#81f3d9"/><polygon points="869.75,465.94 869.75,497 838.69,497" fill="#89f4dc"/><path d="M 869.75 497.01 A 62.13 62.13 0 0 1  931.88 434.88 L 869.75 497.01 A 62.13 62.13 0 0 0 931.88 434.88" fill="#defbfe"/></g></svg>