<svg width="25" height="24" fill="none" xmlns="http://www.w3.org/2000/svg"><path d="M20.357 6.467a2.464 2.464 0 0 0-4.207-1.744l-2.247 2.248-5.191-1.728a.8.8 0 0 0-.8.192L6.01 7.323A.8.8 0 0 0 6.24 8.61l4.143 1.88-2.08 2.08-1.368-.689a.8.8 0 0 0-.927.12L4.593 13.45a.8.8 0 0 0 0 1.128l5.19 5.19a.8.8 0 0 0 1.128 0l1.448-1.415a.8.8 0 0 0 .152-.928l-.688-1.368 2.08-2.08 1.88 4.144a.8.8 0 0 0 1.287.232l1.887-1.888a.8.8 0 0 0 .192-.8l-1.727-5.19 2.215-2.264a2.44 2.44 0 0 0 .72-1.743Zm-1.856.616-2.59 2.591a.8.8 0 0 0-.193.8l1.728 5.182-.72.72-1.88-4.135a.8.8 0 0 0-1.295-.232l-3.296 3.327a.8.8 0 0 0-.152.92l.656 1.344-.447.448-4.023-4.031.471-.416 1.368.688a.8.8 0 0 0 .92-.152l3.311-3.327a.8.8 0 0 0-.232-1.296L7.96 7.634l.72-.72 5.183 1.728a.8.8 0 0 0 .8-.192l2.59-2.591a.856.856 0 0 1 1.224 0 .8.8 0 0 1 .256.608.85.85 0 0 1-.232.616Z" fill="#004B52"/></svg>