<svg xmlns="http://www.w3.org/2000/svg" xmlns:xlink="http://www.w3.org/1999/xlink" width="3000" height="2500" enable-background="new 0 0 3000 2500" viewBox="0 0 3000 2500"><rect width="3000" height="2500" fill="#FFF"/><defs><path id="a" d="M839.225,1993.726c0,0-599.059,77.804-475.189-961.912C487.902-7.901,1584.131,172.709,1955.735,670.775
				c371.603,498.067,1219.478,951.722,244.213,1328.756L839.225,1993.726z"/></defs><clipPath id="b"><use overflow="visible" xlink:href="#a"/></clipPath><rect width="2422.698" height="1935.436" x="337.739" y="64.096" fill="#E6F5FF" clip-path="url(#b)"/><g clip-path="url(#b)"><path fill="#76BDD6" d="M1398.224 1522.421c-17.822-23.551-21.642-43.919-21.642-43.919l4.774-2.229c0 0 10.184 20.369 14.321 24.824 4.138 4.456 16.867-26.097 16.867-26.097h6.047c0 0-14.576 24.226-13.685 33.098.893 8.873 3.182 13.049 3.182 13.049L1398.224 1522.421zM1445.12 1758.956c6.762-41.701-2.254-76.641-3.382-103.126-1.127-26.486-9.58-91.293-9.58-91.293l4.51-5.635c0 0 8.452 66.496 14.088 87.91 5.634 21.415 26.485-42.828 38.32-64.807 11.834-21.978 28.74-65.932 28.74-65.932h7.326c0 0-28.741 64.806-30.995 81.148-2.255 16.343 52.409-83.402 52.409-83.402h8.451c0 0-41.699 72.695-52.407 92.983-10.708 20.286-24.232 60.86-24.232 86.782 0 25.924 33.812-43.392 33.812-43.392l6.199 5.071c0 0-29.271 46.462-30.994 71.006-1.723 24.545 2.817 41.138 2.817 41.138s-4.19 8.994-26.356 8.432C1441.679 1775.277 1445.12 1758.956 1445.12 1758.956z"/><path fill="#A3D1E5" d="M1487.89 1624.994c8.268 1.503 12.024-11.271 28.555-16.531 16.532-5.26 31.183-6.387 40.201 6.763 9.018 13.15 24.797 15.028 31.56 20.664 6.762 5.635 31.559 29.776 14.651 39.074-16.906 9.297-22.433-2.63-47.849 0-25.412 2.629-40.949-7.488-53.471-4.309-12.52 3.181-55.726-4.709-50.466-16.355 5.259-11.648 12.398-15.78 22.918-16.531C1484.509 1637.017 1487.89 1624.994 1487.89 1624.994zM1447.314 1517.917c-10.521 7.515 1.879 4.133 10.895 11.647 9.019 7.514 27.918 13.525 35.375 4.509 7.457-9.018 4.827-24.046 12.341-12.398s-2.507 25.127-3.006 37.194 16.629 5.316 24.47 3.409c7.842-1.905 17.61-10.171 29.632-5.663 12.023 4.509 30.056-3.757 49.217-2.254 19.163 1.503 22.595-30.398 33.864-46.742 11.272-16.341 5.847-9.481 43.957-8.451 38.109 1.029 46.771-9.58 51.844-23.104 5.071-13.525 6.719-44.559-44.378-42.305-51.097 2.255-75.894-16.53-91.673-36.819-15.779-20.288-43.488-27.397-70.211-16.329-26.722 11.069-73.311 7.312-82.326 21.589-9.018 14.276-45.085 27.803-37.571 51.848 7.515 24.045 53.974 4.982 64.681 16.599 10.707 11.617-52.409 8.798-55.79 21.195-3.381 12.398 3.381 12.961 16.342 14.09C1447.938 1507.058 1447.314 1517.917 1447.314 1517.917z"/><path fill="#A3D1E5" d="M1285.967 1454.881c-10.521 7.515 1.879 4.134 10.895 11.647 9.019 7.515 27.918 13.525 35.375 4.508 7.456-9.017 4.826-24.045 12.34-12.398 7.514 11.648-2.506 25.128-3.006 37.195-.498 12.067 16.629 5.315 24.471 3.41 7.84-1.906 17.609-10.173 29.632-5.664 12.022 4.51 30.057-3.757 49.218-2.254 19.16 1.504 22.594-30.397 33.863-46.74 11.271-16.342 5.846-9.482 43.955-8.453s46.773-9.581 51.844-23.105c5.073-13.524 6.721-44.558-44.377-42.303-51.097 2.254-75.893-16.531-91.672-36.82-15.779-20.288-43.489-27.396-70.21-16.328-26.724 11.068-73.311 7.312-82.327 21.589-9.018 14.276-45.085 27.803-37.571 51.847 7.513 24.046 53.972 4.982 64.681 16.599 10.707 11.616-52.409 8.799-55.79 21.195-3.382 12.398 3.381 12.962 16.342 14.089C1286.589 1444.021 1285.967 1454.881 1285.967 1454.881zM1361.653 1555.489c-1.253 16.029 14.026 10.519 22.793 25.297 8.766 14.778-8.266 24.295 5.009 32.812 13.275 8.517 25.799-4.007 40.828-3.757 15.027.25 13.023-12.273 31.558-12.523 18.536-.251 20.056 11.778 29.556-5.26 9.501-17.038-1.752-17.781-17.283-26.173-15.527-8.392-20.036-19.163-11.27-22.669 8.768-3.508-.502-20.289-6.763-23.045-6.261-2.754-45.586-7.513-85.036 1.879-39.448 9.394-65.373-1.879-75.142 7.515-9.767 9.393-32.311 21.04-5.259 27.802 27.051 6.764 45.46-6.011 46.212 10.896.751 16.906-64.247 23.293-33.813 30.432 30.432 7.139 55.98-.751 50.721-16.907C1348.503 1565.633 1361.653 1555.489 1361.653 1555.489z"/></g><g clip-path="url(#b)"><path fill="#76BDD6" d="M895.898 1411.12c-9.818-12.976-11.923-24.196-11.923-24.196l2.631-1.229c0 0 5.61 11.223 7.89 13.678 2.279 2.454 9.293-14.378 9.293-14.378h3.332c0 0-8.031 13.346-7.539 18.234s1.752 7.189 1.752 7.189L895.898 1411.12zM921.736 1541.438c3.727-22.976-1.241-42.225-1.862-56.816-.621-14.593-5.278-50.298-5.278-50.298l2.484-3.104c0 0 4.656 36.636 7.762 48.435 3.104 11.798 14.592-23.597 21.113-35.706 6.52-12.108 15.834-36.324 15.834-36.324h4.036c0 0-15.835 35.704-17.077 44.708s28.875-45.951 28.875-45.951h4.656c0 0-22.975 40.053-28.874 51.23-5.899 11.177-13.351 33.53-13.351 47.813 0 14.283 18.629-23.907 18.629-23.907l3.415 2.795c0 0-16.127 25.598-17.076 39.12-.948 13.523 1.552 22.664 1.552 22.664s-2.309 4.957-14.521 4.646C919.841 1550.432 921.736 1541.438 921.736 1541.438z"/><path fill="#A3D1E5" d="M945.301 1467.633c4.555.828 6.625-6.209 15.732-9.108 9.107-2.896 17.18-3.519 22.148 3.727s13.662 8.279 17.388 11.385c3.726 3.104 17.388 16.406 8.072 21.528-9.314 5.122-12.359-1.45-26.362 0-14.001 1.448-22.561-4.126-29.459-2.375-6.898 1.753-30.702-2.594-27.805-9.011 2.897-6.418 6.83-8.694 12.627-9.107C943.438 1474.257 945.301 1467.633 945.301 1467.633zM922.945 1408.639c-5.797 4.141 1.035 2.277 6.003 6.418 4.969 4.14 15.381 7.451 19.49 2.483 4.108-4.968 2.659-13.248 6.799-6.831 4.14 6.418-1.382 13.844-1.656 20.493-.274 6.648 9.161 2.928 13.481 1.878 4.32-1.051 9.703-5.604 16.325-3.121 6.625 2.485 16.56-2.068 27.116-1.241 10.559.828 12.449-16.747 18.658-25.753 6.21-9.003 3.221-5.224 24.218-4.656 20.996.567 25.769-5.278 28.563-12.729 2.793-7.452 3.701-24.55-24.45-23.309-28.151 1.243-41.813-9.106-50.507-20.285-8.693-11.178-23.961-15.095-38.683-8.997-14.723 6.1-40.391 4.029-45.358 11.895s-24.839 15.318-20.699 28.565c4.141 13.248 29.736 2.745 35.636 9.146s-28.875 4.847-30.737 11.677c-1.863 6.832 1.862 7.142 9.004 7.764C923.289 1402.655 922.945 1408.639 922.945 1408.639z"/><path fill="#A3D1E5" d="M834.051 1373.909c-5.796 4.14 1.036 2.277 6.003 6.417 4.969 4.141 15.382 7.452 19.489 2.483 4.108-4.967 2.66-13.247 6.8-6.831 4.14 6.418-1.381 13.844-1.656 20.493-.274 6.648 9.161 2.929 13.481 1.878 4.32-1.049 9.702-5.604 16.326-3.119 6.624 2.484 16.56-2.07 27.115-1.242 10.557.828 12.449-16.747 18.658-25.751 6.209-9.005 3.221-5.225 24.217-4.658 20.996.567 25.77-5.278 28.563-12.729 2.795-7.451 3.702-24.549-24.449-23.307-28.152 1.241-41.813-9.107-50.507-20.286-8.693-11.177-23.961-15.095-38.682-8.995-14.724 6.097-40.391 4.027-45.359 11.893-4.968 7.867-24.839 15.318-20.699 28.565 4.139 13.248 29.735 2.746 35.635 9.145 5.9 6.4-28.873 4.849-30.736 11.679-1.863 6.831 1.863 7.141 9.004 7.763C834.395 1367.926 834.051 1373.909 834.051 1373.909zM875.75 1429.339c-.689 8.831 7.729 5.796 12.559 13.938s-4.555 13.386 2.76 18.077c7.314 4.692 14.214-2.207 22.494-2.068 8.279.137 7.175-6.763 17.387-6.9 10.213-.139 11.05 6.488 16.283-2.898 5.234-9.387-.965-9.797-9.521-14.419-8.555-4.624-11.039-10.559-6.209-12.489 4.83-1.934-.277-11.18-3.727-12.697s-25.115-4.139-46.851 1.035c-21.733 5.175-36.017-1.035-41.399 4.141-5.381 5.175-17.801 11.592-2.896 15.316 14.903 3.727 25.046-3.312 25.46 6.003.414 9.315-35.396 12.834-18.63 16.767 16.768 3.934 30.844-.413 27.945-9.314C868.506 1434.928 875.75 1429.339 875.75 1429.339z"/></g><g clip-path="url(#b)"><path fill="#76BDD6" d="M588.75 1129.283c6.525-33.468 8.619-31.887 35.334-61.189 26.718-29.302 54.295-16.742 81.875-15.696 27.578 1.045 65.93-25.814 65.93-25.814s-49.986 16.948-61.191 16.518c-11.202-.43 17.668-48.407 17.668-48.407s-22.406 34.617-29.301 42.374c-6.896 7.756-32.319-.431-42.662.43-10.342.863 21.115-59.896 21.115-59.896s-17.021 24.131-24.346 40.075c-5.991 13.04-17.021 16.591-17.021 16.591l17.883-70.239 57.527-51.207-59.754 45.389-8.617-78.713c0 0 5.906 78.067-.359 98.75-6.267 20.684-16.591 56.449-16.591 56.449l-43.378-90.563c0 0 29.158 83.884 33.467 101.551 4.31 17.668-17.666 27.148-29.302 53.865-11.636 26.716-11.636 26.716-11.636 26.716L588.75 1129.283zM552.314 1473.952c-10.02-61.784 3.338-113.549 5.01-152.79 1.668-39.241 18.93-137.583 18.93-137.583l-26.286-6.033c0 0-2.567 101.429-10.917 133.157-8.348 31.728-34.328-66.354-51.861-98.916-17.531-32.562-42.58-97.686-42.58-97.686h-10.854c0 0 42.58 96.016 45.921 120.229 3.339 24.213-77.649-123.568-77.649-123.568h-12.523c0 0 61.785 107.705 77.648 137.762s35.9 90.171 35.9 128.578c0 38.406-50.094-64.29-50.094-64.29l-9.186 7.515c0 0 43.369 68.836 45.922 105.2s-4.174 60.949-4.174 60.949 6.208 13.326 39.049 12.492C557.412 1498.134 552.314 1473.952 552.314 1473.952z"/><path fill="#A3D1E5" d="M488.945 1275.478c-12.246 2.226-17.813-16.7-42.305-24.493-24.491-7.793-46.201-9.463-59.562 10.02-13.358 19.483-36.738 22.266-46.757 30.616-10.02 8.35-46.759 44.115-21.707 57.89 25.048 13.775 33.234-3.897 70.889 0s60.67-11.093 79.221-6.382c18.551 4.713 82.564-6.976 74.771-24.232s-18.369-23.379-33.955-24.492S488.945 1275.478 488.945 1275.478zM549.063 1116.834c15.586 11.133-2.782 6.124-16.143 17.256-13.359 11.131-41.361 20.039-52.409 6.679-11.048-13.36-7.151-35.626-18.284-18.369-11.133 17.256 3.714 37.229 4.453 55.108.741 17.877-24.638 7.875-36.254 5.049-11.617-2.823-26.09-15.07-43.902-8.389-17.813 6.68-44.531-5.567-72.92-3.34-28.389 2.227-33.473-45.038-50.172-69.251-16.699-24.212-8.661-14.049-65.123-12.522-56.464 1.524-69.299-14.195-76.813-34.232-7.515-20.038-9.953-66.016 65.75-62.676 75.703 3.339 112.441-24.493 135.822-54.551 23.377-30.059 64.43-40.591 104.02-24.192 39.592 16.398 108.615 10.833 121.975 31.985 13.359 21.152 66.799 41.192 55.664 76.817-11.131 35.625-79.964 7.38-95.827 24.591-15.864 17.21 77.646 13.036 82.655 31.404s-5.01 19.203-24.211 20.874C548.141 1100.744 549.063 1116.834 549.063 1116.834z"/><path fill="#A3D1E5" d="M675.977,1172.499c1.856,23.749-20.781,15.586-33.768,37.48c-12.989,21.895,12.244,35.995-7.423,48.611
				c-19.669,12.62-38.222-5.937-60.489-5.565c-22.266,0.372-19.297-18.184-46.758-18.554c-27.461-0.371-29.713,17.45-43.789-7.793
				c-14.075-25.245,2.598-26.344,25.605-38.777s29.687-28.391,16.699-33.586c-12.987-5.196,0.742-30.059,10.021-34.141
				c9.275-4.081,67.537-11.133,125.985,2.784c58.446,13.915,96.855-2.784,111.328,11.133c14.474,13.916,47.871,31.17,7.794,41.19
				c-40.08,10.02-67.354-8.906-68.469,16.143c-1.113,25.048,95.186,34.513,50.098,45.087c-45.088,10.577-82.939-1.113-75.146-25.049
				C695.459,1187.527,675.977,1172.499,675.977,1172.499z"/></g><g clip-path="url(#b)"><path fill="#76BDD6" d="M2326.254 1649.302c-10.646-28.977-11.693-27.273-34.564-49.726-22.872-22.45-38.244-7.401-55.832-2.635-17.59 4.768-47.496-13.886-47.496-13.886s35.506 8.186 42.648 6.244c7.146-1.94-20.71-40.766-20.71-40.766s21.115 27.794 27.055 33.762c5.94 5.967 20.765-4.876 27.601-5.546 6.837-.667-25.145-50.546-25.145-50.546s15.623 19.181 23.416 32.398c6.374 10.811 14.173 12.448 14.173 12.448l-25.05-60.231-46.961-37.726 47.277 32.223-9.587-71.48c0 0 11.21 70.526 19.232 88.124 8.021 17.598 21.563 48.097 21.563 48.097l10.554-86.893c0 0-2.667 78.954-2.048 95.326.621 16.375 16.62 21.786 29.266 44.023s12.646 22.237 12.646 22.237L2326.254 1649.302zM2416.073 1951.992c-5.424-56.56-24.002-100.924-32.628-135.73-8.628-34.806-38.684-120.216-38.684-120.216l15.796-9.04c0 0 21.171 90.209 32.661 117.378 11.491 27.169 9.377-64.02 14.422-95.53 5.044-31.513 8.672-93.143 8.672-93.143l7.001-1.509c0 0-8.993 91.651-6.489 113.736 2.506 22.084 26.313-121.128 26.313-121.128l8.079-1.74c0 0-19.133 104.758-23.583 133.8-4.447 29.043-5.808 85.504 1.582 119.798s19.943-64.367 19.943-64.367l7.371 5.434c0 0-14.731 67.491-9.381 100.315 5.351 32.825 14.42 53.842 14.42 53.842s-1.441 12.762-22.785 16.583C2417.438 1974.293 2416.073 1951.992 2416.073 1951.992z"/><path fill="#A3D1E5" d="M2418.762 1765.967c8.328.285 8.277-17.389 22.575-27.75 14.301-10.363 27.983-14.872 40.349.668 12.367 15.538 27.982 14.773 36.051 20.837 8.07 6.063 38.65 32.892 25.141 48.673-13.507 15.781-22.188 1.139-45.726 9.854-23.54 8.714-41.271-1.473-52.33 5.313-11.059 6.786-54.601 5.248-52.892-11.244 1.706-16.491 7.349-23.428 17.188-26.589S2418.762 1765.967 2418.762 1765.967zM2349.459 1632.67c-7.911 12.106 2.975 5.08 13.733 13.164 10.759 8.082 30.536 12.144 35.092-1.321 4.556-13.464-2.24-32.804 8.262-18.942 10.499 13.86 4.767 33.758 7.73 49.824 2.96 16.066 17.406 3.606 24.356-.531 6.948-4.135 13.93-17.082 26.705-13.592 12.774 3.488 27.652-11.16 46.393-13.118s12.928-44.866 19.04-68.808c6.112-23.939 2.885-13.749 39.599-20.234 36.715-6.485 41.97-22.306 42.961-41.242.992-18.936-6.28-60.329-54.471-46.824-48.189 13.504-77.242-6.24-98.107-29.829-20.864-23.59-49.37-27.29-71.752-7.144-22.384 20.146-67.979 24.77-72.527 45.514-4.548 20.744-35.16 46.063-21.124 76.326 14.032 30.263 53-4.524 66.542 8.638 13.547 13.161-47.577 22.433-47.273 39.529.303 17.098 6.925 16.451 19.634 15.274C2346.96 1618.175 2349.459 1632.67 2349.459 1632.67z"/><path fill="#A3D1E5" d="M2278.305,1700.014c3.371,21.463,16.402,11.028,28.993,28.772s-0.973,33.842,14.141,42.374
				c15.114,8.534,23.513-10.614,37.949-13.378c14.432-2.762,8.947-18.919,26.591-23.065c17.641-4.148,22.523,11.451,26.745-13.045
				c4.223-24.498-6.744-23.161-23.976-31.065c-17.234-7.904-24.612-21.226-17.235-27.668c7.378-6.445-6.263-26.736-13.031-29.092
				c-6.771-2.354-45.709-0.553-80.733,19.996s-63.013,10.978-69.669,25.415c-6.658,14.438-24.882,34.486,2.899,37.862
				c27.777,3.376,41.73-17.313,47.27,4.898c5.537,22.21-54.761,44.046-23.641,47.221c31.119,3.178,53.285-12.522,43.652-32.812
				C2268.628,1716.141,2278.305,1700.014,2278.305,1700.014z"/></g><g clip-path="url(#b)"><path fill="#76BDD6" d="M1899.227 1783.816c-3.023-16.026-3.781-15.236-14.303-28.986-10.521-13.748-20.642-7.328-30.961-6.454-10.32.874-25.16-11.541-25.16-11.541s19.031 7.486 23.222 7.128c4.192-.356-7.46-23.066-7.46-23.066s8.999 16.364 11.717 20.006c2.719 3.642 12.107-.641 15.999-.367 3.892.277-8.949-28.553-8.949-28.553s6.797 11.39 9.819 18.966c2.471 6.198 6.666 7.76 6.666 7.76l-7.916-33.577-22.45-23.879 23.184 21.049 1.87-38.013c0 0-.866 37.665 1.841 47.54 2.706 9.873 7.195 26.953 7.195 26.953l14.694-44.186c0 0-9.48 40.779-10.79 49.342-1.309 8.565 7.092 12.835 11.915 25.54 4.823 12.707 4.823 12.707 4.823 12.707L1899.227 1783.816zM1918.841 1949.27c2.688-29.881-3.215-54.624-4.519-73.494-1.304-18.871-9.474-65.986-9.474-65.986l9.75-3.258c0 0 2.715 48.799 6.393 63.963 3.679 15.162 11.723-32.409 17.731-48.322 6.011-15.912 14.273-47.604 14.273-47.604l4.07-.146c0 0-14.304 46.801-15.137 58.504-.833 11.701 26.972-60.539 26.972-60.539l4.694-.167c0 0-21.299 52.686-26.728 67.37-5.426 14.685-11.898 43.896-11.235 62.388.664 18.492 17.667-31.627 17.667-31.627l3.573 3.495c0 0-15.067 33.725-15.396 51.267-.329 17.543 2.618 29.288 2.618 29.288s-2.098 6.5-14.423 6.541C1917.348 1960.98 1918.841 1949.27 1918.841 1949.27z"/><path fill="#A3D1E5" d="M1939.164 1852.86c4.631.907 6.391-8.281 15.436-12.361 9.047-4.082 17.157-5.179 22.5 4.022 5.346 9.199 14.157 10.225 18.057 14.11 3.9 3.885 18.29 20.612 9.137 27.579-9.15 6.97-12.524-1.43-26.572.954-14.047 2.384-22.935-4.524-29.807-2.006-6.872 2.518-31.07-2.248-28.446-10.661 2.622-8.413 6.48-11.503 12.304-12.25C1937.596 1861.503 1939.164 1852.86 1939.164 1852.86zM1913.888 1777.289c-5.649 5.568 1.15 2.91 6.351 8.092 5.2 5.178 15.85 9.09 19.761 2.509s2.065-17.247 6.538-9.09c4.47 8.159-.749 17.975-.718 26.593.03 8.617 9.372 3.459 13.678 1.943 4.305-1.517 9.52-7.607 16.312-4.63 6.793 2.976 16.596-3.278 27.277-2.589 10.679.689 11.769-22.134 17.611-34.016 5.84-11.882 3.004-6.882 24.194-6.907 21.192-.024 25.731-7.765 28.202-17.515 2.471-9.747 2.591-31.917-25.73-29.29-28.319 2.626-42.571-10.278-51.855-24.437-9.283-14.158-24.854-18.677-39.41-10.249-14.559 8.429-40.528 6.677-45.172 17.04-4.642 10.364-24.326 20.73-19.536 37.733 4.786 17.002 30.102 2.478 36.344 10.55 6.245 8.072-28.881 7.321-30.44 16.232-1.561 8.911 2.209 9.179 9.437 9.725S1913.888 1777.289 1913.888 1777.289z"/><path fill="#A3D1E5" d="M1867.277,1805.797c-0.287,11.459,8.058,7.224,13.305,17.591c5.247,10.365-3.967,17.494,3.621,23.305
				c7.592,5.811,14.228-3.373,22.581-3.495c8.351-0.119,6.917-9.015,17.206-9.561c10.286-0.548,11.439,8.003,16.279-4.341
				s-1.429-12.648-10.268-18.326c-8.84-5.677-11.619-13.271-6.841-15.944c4.778-2.677-0.798-14.464-4.347-16.305
				c-3.549-1.839-25.508-4.449-47.178,3.036s-36.356-0.038-41.54,6.857c-5.185,6.896-17.405,15.651-2.209,19.937
				c15.195,4.284,25.093-5.193,25.944,6.852c0.85,12.044-35.086,17.897-18.001,22.381c17.084,4.486,31.071-1.652,27.736-13.071
				C1860.232,1813.294,1867.277,1805.797,1867.277,1805.797z"/></g><path fill="#A3D1E5" d="M1503.18,1818.41c20.871,28.748,42.579-17.986,127.737,27.761
			c85.159,45.749,136.964-27.022,183.834,16.331c46.87,43.354,80.029,79.69,129.255,70.813
			c49.226-8.879,78.644-43.354,139.028-47.019c60.386-3.666,264.769-107.963,323.605-17.105
			c58.836,90.858,83.611-15.463,167.221,28.407c83.611,43.87,186.577-51.427,186.577-51.427v153.36H1553.5l-90.578-140.9
			L1503.18,1818.41z" clip-path="url(#b)"/><path fill="#76BDD6" d="M1482.84,1889.614c44.768-27.204,92.021-28.558,136.146,7.983
			c44.126,36.54,91.734-4.93,134.7,19.869c42.965,24.8,82.444,29.445,126.571,50.347c44.124,20.901,138.184-15.811,173.019-33.452
			c34.837-17.642,114.959-10,154.439-1.047c39.481,8.952,67.352-69.934,116.121-35.717c48.771,34.218-32.515,73.438-6.969,76.472
			c25.549,3.033,127.735-52.702,154.442-31.8c26.708,20.901,17.418-23.224,56.899,5.806c39.48,29.03,104.634,61.54,119.604,8.129
			c14.971-53.413-4.645-107.213,42.964-137.794c47.609-30.581,48.773-8.52,10.452,61.152c-38.319,69.674-17.419,58.063,13.934,56.9
			c31.353-1.161,45.274-33.675,45.274-33.675v96.743H1352.215L1482.84,1889.614z" clip-path="url(#b)"/><g clip-path="url(#b)"><path fill="#AF7A2E" d="M1545.379,1999.531H325.324v-538.4c142.047,38.454,608.488,30.674,746.033,144.438
				c185.125,153.125,249.688-54.68,359.855,63.801c27.488,29.566,48.375,64.93,64.229,101.369
				c7.847,18.031,14.466,36.332,20.044,54.31c0,0,0.008,0.038,0.034,0.108c2.294,7.4,4.409,14.748,6.36,22.002
				C1544.056,1929.328,1545.379,1999.531,1545.379,1999.531z"/></g><path fill="#934C11" d="M1506.232,1830.791c-13.799-9.622-44.785,18.58-58.286,4.646
			s-41.511,34.839-60.698,23.226c-19.191-11.612-53.725,13.936-84.429-26.709c-30.703-40.645-70.36,26.709-110.021,12.773
			c-39.651-13.936-26.857,32.516-53.724,23.226c-26.865-9.29-17.911-19.741-17.911-45.289s-44.775-9.29-70.105-26.709
			c-25.321-17.419-42.475,38.322-75.983,27.87c-33.519-10.451-36.846,40.645-64.692,24.387c-27.846-16.258-55.308,0-51.633-25.594
			c3.669-25.595-11.351-24.34-55.633-46.141c-44.282-21.81-61.893,36.896-87.479,25.284
			c-25.588-11.613-115.133,27.87-122.988,19.741c-7.854-8.129-30.523-10.452-54.48-32.809
			c-23.958-22.358-61.748,40.938-90.456,21.195c-28.709-19.741-62.124,5.807-74.739-4.645c-12.604-10.451-4.017-9.29-11.547-27.87
			c-7.531-18.581-36.104-15.096-36.104-47.039v-269.204c142.047,38.454,608.488,30.674,746.033,144.438
			c185.125,153.125,249.688-54.68,359.855,63.801c27.488,29.566,48.375,64.93,64.229,101.369
			c7.847,18.031,14.466,36.332,20.044,54.31c0,0,0.008,0.038,0.034,0.108C1515.887,1826.512,1519.34,1839.927,1506.232,1830.791z" clip-path="url(#b)"/><path fill="#8ECC36" d="M1495.442,1770.738c-7.188,21.004-29.987,21.189-63.931-16.621
			c-37.527-41.806-39.232,49.548-71.643,13.936c-32.409-35.613-59.701,20.129-90.406,9.964
			c-30.702-10.166-63.111,30.293-104.05-2.223c-40.94-32.515-73.349,12.388-81.877,0c-8.528-12.387,6.822-21.677,10.234-54.192
			c3.413-32.515-25.586-3.097-42.644-15.483c-17.058-12.386-57.996,32.517-80.171,24.217c-22.175-8.307-114.286,26.88-131.343,0
			c-17.058-26.887,32.408-39.699,23.88-45.893s-97.229,23.225-127.934,12.387c-30.702-10.839-49.466,51.095-63.112,52.644
			c-13.646,1.549-54.583,27.87-85.288,9.29c-30.704-18.58,28.999-40.258,18.763-58.838c-10.232-18.579-68.229,26.323-95.522,6.202
			c-27.291-20.121-59.7-3.104-68.229,24.208c-8.529,27.305-17.059,28.428-34.115-16.475s-59.703,7.741-82.73-51.096v-201.634
			c142.047,38.454,608.488,30.674,746.033,144.438c185.125,153.125,249.688-54.68,359.855,63.801
			c5.875,6.316,11.444,12.898,16.733,19.703C1467.4,1714.1,1482.974,1742.088,1495.442,1770.738z" clip-path="url(#b)"/><path fill="#ACEF4B" d="M1447.946,1689.072c-3.267,27.824-27.437,18.634-26.668-1.108
			c0.765-19.741-37.87,6.969-66.007-17.419c-28.146-24.387-5.116,37.161-26.865,19.742c-21.749-17.42-49.894,24.387-62.686,13.935
			c-12.795-10.451-39.661,22.063-56.292,8.129c-16.63-13.936-30.694,19.741-35.813,17.984c-5.116-1.765-49.894-0.565-53.731-20.307
			s3.838-12.774,0-22.064s-57.568-15.097-74.199-27.87c-16.632-12.773-29.426,19.742-42.21,12.773
			c-12.793-6.968-21.749,37.161-37.101,30.193s-17.278,26.818-46.055,13.935c-28.775-12.889-8.955-4.645-2.56-31.353
			c6.398-26.71,14.072-25.549,0-39.484c-14.072-13.935-80.589-1.16-80.589-1.16s-35.82,4.646-38.379-1.161
			s-19.189,10.451-25.586,3.483c-6.396-6.969-19.189,9.29-28.145-1.162c-8.955-10.451-69.076,47.612-69.076,30.193
			s29.416-52.257,16.623-70.837s-69.074,54.579-88.266,34.837c-19.189-19.741-29.424,25.548-51.172,17.42
			s-60.119,2.322-60.119-17.42c0-19.741,10.234-27.869,5.117-43.662s-47.335,29.728-72.921,7.665
			c-25.585-22.065-40.938,24.387-61.408,0c-12.912-15.392-27.36-9.507-38.517-9.926v-133.298
			c142.047,38.454,608.488,30.674,746.033,144.438c185.125,153.125,249.688-54.68,359.855,63.801
			C1437.088,1675.686,1442.657,1682.268,1447.946,1689.072z" clip-path="url(#b)"/><path fill="#ACEF4B" d="M356.082,1462.784c0.604,5.255,18.078-41.44,36.174-21.021
			c18.099,20.418,31.025-5.474,40.074,8.118c9.049,13.593,23.268,2.701,31.023,13.317c7.757,10.616,12.928-10.616,21.977,0
			c9.047,10.616,16.804-10.951,32.316,3.065c15.512,14.015,28.439-19.595,37.488-9.254c9.048,10.342,40.072-11.596,52.998-3.858
			c12.928,7.736,34.902-15.493,38.781,0c3.878,15.493-24.336,7.767-12.928,26.962c11.41,19.196,24.174-7.673,34.543,7.501
			c10.367,15.172,15.871-1.747,19.75,2.568s4.928-24.949,21.976-12.17s34.901-8.104,42.659-1.626
			c7.756,6.477,16.804-5.258,24.56,6.427c7.757,11.685,32.316-4.701,43.95,7.369c11.635,12.07,24.561-1.34,32.316,11.182
			c7.757,12.523-18.807,9.594,0,19.461c18.81,9.867,45.639-20.207,55.586,0c9.948,20.208,19.391-4.881,33.609,6.371
			c14.22,11.252,23.268-11.539,33.61,1.795c10.341,13.335,25.853-10.254,36.194,6.711c10.341,16.965,23.268,11.129,25.854,21.804
			c2.586,10.674,6.204,10.43,14.221,25.232c8.016,14.802,17.428,2.45,24.56,17.854s10.337-5.766,19.391,12.289
			c9.054,18.057,28.439,6.302,34.902,13.763c6.462,7.461,18.097-16.511,24.561,0c6.463,16.511,25.853,7.462,31.024,16.511
			c5.17,9.048,12.926-10.342,20.682,0c7.756,10.341,42.563-8.148,47.829,2.482c5.268,10.629,17.577-19.336,22.748-10.287
			c5.171,9.05,4.31-9.91,12.927-2.584c8.618,7.324,9.48-9.481,12.066-9.05c2.585,0.431,18.529-4.739,20.684,0
			c2.154,4.74,10.773-10.342,13.359-4.739c2.585,5.602,16.804-5.603,13.357-0.863c-3.447,4.741-5.172,0.432-3.447,4.741
			c1.724,4.309,10.342,2.408,12.496,3.789s5.957-5.182,9.226-1.47c3.271,3.713,4.134,11.47,4.134,11.47s-26.718,6.032-33.612,8.188
			c-6.895,2.154-80.061,40.98-153.743,30.64c-73.681-10.341-190.021-62.59-190.021-62.59l-624.064-131.51l-17.811-11.204
			L356.082,1462.784z" clip-path="url(#b)"/><path fill="#934C11" d="M373.087 1798.245c-.854 38.709-7.677 201.286-7.677 201.286h7.677c0 0 8.528-183.48 17.057-196.642 8.53-13.159 33.264-10.587 40.087-14.196 6.822-3.609 28.145-7.479 28.145-7.479v173.414l17.057-173.414 36.676-15.483 64.817 22.963-11.939 180.645c0 0 15.353-140.125 34.968-152.512 19.615-12.388 30.704-18.581 30.704-18.581l63.112-16.257-14.498 217.543h22.174l24.624-233.801c0 0 68.858-16.258 94.612-4.645 25.754 11.611 60.447 41.03 60.447 41.03v20.903l-8.254 143.222 33.262-141.673-65.079-73.901H769.72l-151.536 38.026c0 0-201.89-35.702-207.007-33.381-5.117 2.323-38.198 23.225-38.198 23.225L373.087 1798.245zM1095.285 1779.697l-8.129 202.05c0 0 18.047-172.353 24.291-174.985s25.549-13.161 29.419-10.839 32.515 21.677 37.159 22.451c4.646.774 6.194 37.935 6.194 37.935l-3.871 143.223h13.161l6.193-164.125 44.902-13.935 12.387.773 13.162 126.964 11.611-145.544 39.483-3.097 20.128 15.482 11.612 23.227 10.065 145.544 13.16-152.512 23.999-3.872 27.871-1.548 5.419 172.642 8.516-183.48 27.87-2.322 12.387 1.549 29.419 184.254-11.645-191.996-52.611-10.839-63.482 3.098-50.321-1.549-34.21-5.418-59.465 6.193-34.063 6.192-48.773-8.517-21.677-4.645-31.74-8.517L1095.285 1779.697z" clip-path="url(#b)"/><g clip-path="url(#b)"><path fill="#C69738" d="M343.236 1809.858c-.854-24-5.97-32.516-17.912-40.258v229.931h23.027c0 0 5.119-147.867 5.119-170.318S344.09 1833.857 343.236 1809.858zM411.466 1839.277c-17.91 24.773-20.468 160.254-20.468 160.254h50.318c0 0 5.118-53.418 5.118-111.481S429.377 1814.503 411.466 1839.277zM494.195 1828.438c-14.499 20.903-30.703 171.094-30.703 171.094h97.229c0 0-3.412-156.383-10.234-176.512C543.663 1802.89 508.695 1807.535 494.195 1828.438zM598.248 1843.922c-10.235 17.031-37.527 155.609-37.527 155.609h105.757c0 0 15.353-131.609 0-164.9C651.126 1801.342 608.482 1826.89 598.248 1843.922zM843.024 1869.19c-11.94-2.601.853-41.526-14.499-62.429-15.352-20.903-46.909-15.483-74.201.773-27.291 16.258-28.145 191.996-28.145 191.996h135.607c0 0-7.676-34.838-7.676-66.58C854.111 1901.211 854.965 1871.792 843.024 1869.19zM1024.688 1819.148c-4.264 6.193-40.086 18.579-53.731 18.579s-6.823 14.71-22.175 22.451c-15.352 7.743-33.262 7.743-42.645 29.435-9.382 21.693-44.35 109.918-44.35 109.918h173.988C1035.775 1999.531 1028.951 1812.955 1024.688 1819.148zM1107.416 1875.098c-9.381-14.5-9.441-68.607-23.027-52.853-13.586 15.754-48.613 177.286-48.613 177.286h97.229c0 0-3.411-44.903-6.823-66.58C1122.77 1911.274 1116.8 1889.599 1107.416 1875.098zM1301.873 1862.502c-11.086-27.871-33.263-27.096-33.263-27.096l-24.732 156.384-26.438-130.837c0 0-13.648 6.193-30.706.774-17.057-5.419-14.498 137.804-14.498 137.804h172.282l-22.175-114.965C1322.343 1884.566 1312.961 1890.371 1301.873 1862.502zM1397.396 1875.098c-12.793 3.307-28.144-5.907-28.144-5.907l-24.734 130.341h69.936l-4.264-127.739C1410.189 1871.792 1410.189 1871.792 1397.396 1875.098zM1454.539 1858.631c-11.088-2.322-11.94-7.741-11.94-7.741l-8.812 148.642h65.102c0 0-13.646-27.097-23.028-69.676C1466.479 1887.275 1465.627 1860.953 1454.539 1858.631zM1521.881 1847.158c-9.277-4.6-13.611 8.376-13.611 8.376l15.352 143.997h21.758C1545.379 1999.531 1544.056 1929.328 1521.881 1847.158z"/></g><path fill="#934C11" d="M1605.113,1999.531h-63.744c0,0-41.031,0-41.805,0h-187.172v-24
			c0,0,53.758-5.674,57.885-5.674c4.133,0,68.126-8.261,70.193-8.78c2.066-0.511,47.48-17.031,47.48-17.031l26.84-5.675
			c0,0,27.631-9.29,30.588-10.838c2.957-1.549,9.15-14.455,9.15-14.455l28.389-15.482c17.033,9.81,16.003,19.818,16.258,35.72
			c0.256,15.894-1.804,21.058,0,32.407C1600.98,1977.079,1605.113,1999.531,1605.113,1999.531z" clip-path="url(#b)"/><path fill="#8ECC36" d="M1350.151,1954.371c34.58,12.387,34.063,0,44.644,3.097
			s10.063-12.904,27.096-10.323s3.102-28.148,22.195-12.783c19.095,15.364,28.9,14.332,35.095,2.979
			c6.192-11.355,0.999-19.805,20.271-14.489c19.272,5.317,30.308-4.131,34.952,0c4.645,4.132,3.486,0.729,3.486,0.729l-6.078-34.2
			c0,0,25.3-7.232,26.333,0.235s24.772,5.918,24.772,7.983s3.098,13.419,0,23.226c-3.096,9.806-16.516,4.367-13.418,13.538
			c3.096,9.171,15.998,9.687,4.129,18.977c-11.872,9.29-26.322,8.774-35.097,12.387c-8.772,3.613-8.229-3.295-19.64,2.065
			s-12.358-5.678-29.907,0c-17.548,5.677-36.643-4.645-59.868,5.161s-22.361,1.857-62.535,6.089
			c-40.173,4.232-64.431-2.993-49.978-6.605c14.45-3.612,31.997,1.032,26.321-7.226
			C1337.248,1956.951,1350.151,1954.371,1350.151,1954.371z" clip-path="url(#b)"/><g clip-path="url(#b)"><path fill="#AF7A2E" d="M1372.089 1999.531h-53.798c-.279-6.619-.418-11.488-.418-11.488 15.562 7.741 20.407 4.002 34.342 1.167 13.936-2.841 19.61-.486 19.874 2.208C1372.345 1994.111 1372.089 1999.531 1372.089 1999.531zM1460.344 1999.531h-82.581c0 0-2.065-10.321 13.162-11.613 15.227-1.293 18.062 0 31.484-1.029 13.417-1.037 29.419-4.391 33.29.773C1459.57 1992.818 1460.344 1999.531 1460.344 1999.531zM1499.564 1999.531h-31.741c0 0-1.03-13.417 4.645-16.003 5.682-2.577 15.746-9.235 21.676-3.197C1500.082 1986.369 1498.789 1999.531 1499.564 1999.531zM1574.921 1999.531h-33.552c0 0 1.037-24.773 2.842-28.125 1.804-3.36 22.969-10.84 25.028 0C1571.307 1982.244 1574.921 1999.531 1574.921 1999.531zM1603.565 1999.531h-16.257c0 0-6.968-47.225-5.164-48.773 1.805-1.549-.774-7.742-4.645-12.132-3.871-4.381 6.449-11.868 9.809 9.94C1590.661 1970.367 1603.565 1999.531 1603.565 1999.531z"/></g><g><rect width="31.664" height="736.517" x="1339.27" y="1292.526" fill="#4C4C4C"/><rect width="586.337" height="31.664" x="1082.084" y="1644.952" fill="#5D5D5D"/><polygon fill="#5D5D5D" points="958.678 2029.043 924.665 2029.043 1219.452 1258.058 1253.467 1258.058"/><polygon fill="#5D5D5D" points="1785.981 2029.043 1819.996 2029.043 1525.208 1258.058 1491.193 1258.058"/><rect width="1035.983" height="716.876" x="854.338" y="642.343" fill="#5D5D5D"/><rect width="987.393" height="668.284" x="878.634" y="666.639" fill="#FFF"/><g><rect width="84.118" height="158.243" x="993.286" y="1105.664" fill="red"/><rect width="84.119" height="283.019" x="1131.124" y="980.887" fill="red"/><rect width="84.121" height="222.391" x="1268.963" y="1041.516" fill="red"/><rect width="84.119" height="270.355" x="1406.803" y="993.551" fill="red"/><rect width="84.12" height="385.657" x="1544.642" y="878.25" fill="red"/><rect width="427.922" height="17.007" x="917.162" y="726.394" fill="#A3D1E5"/><rect width="427.922" height="17.007" x="917.162" y="761.218" fill="#A3D1E5"/><rect width="186.718" height="17.007" x="917.162" y="796.042" fill="#A3D1E5"/><rect width="163.749" height="17.006" x="1665.023" y="863.974" fill="#8ECC36"/><rect width="163.749" height="17.007" x="1665.023" y="898.797" fill="#8ECC36"/><rect width="71.449" height="17.007" x="1665.023" y="933.621" fill="#8ECC36"/><polyline fill="none" stroke="#8ECC36" stroke-linejoin="bevel" stroke-miterlimit="10" stroke-width="26" points="917.162 1047.999 1197.153 851.438 1296.762 976.768 1645.744 752.714"/><polygon fill="#8ECC36" points="1574.246 742.867 1689.235 722.75 1628.134 814.717"/></g><g><path fill="none" stroke="#FFCE00" stroke-miterlimit="10" stroke-width="6" d="M1934.241,531.978
			c-9.592-26.932-22.001-46.455-38.438-46.661c-16.438-0.207-21.73-39.764-2.071-32.218c19.659,7.545,9.971,28.343,1.918,14.24
			c-8.053-14.103,2.366-23.957,14.569-21.589c19.348,3.752,9.475,37.727,3.021,17.902c-6.454-19.825,9.193-36.307,20.475-23.354
			c11.281,12.954,7.191,33.807-0.48,20.779c-7.67-13.028,3.297-29.889,11.929-18.417c8.631,11.473-2.185,31.311-4.786,41.026
			c-2.6,9.715,10.271,42.45,10.271,42.45"/><rect width="56.06" height="10.879" x="1917.399" y="539.173" fill="none" stroke="#A4D1E4" stroke-linejoin="bevel" stroke-miterlimit="10" stroke-width="6" transform="rotate(-19.604 1945.429 544.626)"/><rect width="56.06" height="10.88" x="1924.014" y="557.749" fill="none" stroke="#A4D1E4" stroke-linejoin="bevel" stroke-miterlimit="10" stroke-width="6" transform="rotate(-19.604 1952.043 563.202)"/><rect width="56.061" height="10.88" x="1930.695" y="576.507" fill="none" stroke="#A4D1E4" stroke-linejoin="bevel" stroke-miterlimit="10" stroke-width="6" transform="rotate(-19.604 1958.738 581.962)"/><rect width="25.939" height="10.879" x="1952.822" y="596.351" fill="none" stroke="#A4D1E4" stroke-linejoin="bevel" stroke-miterlimit="10" stroke-width="6" transform="rotate(-19.604 1965.81 601.806)"/><path fill="none" stroke="#A4D1E4" stroke-linejoin="bevel" stroke-miterlimit="10" stroke-width="6" d="M1975.44,454.104
			l-0.003,0c4.865-14.981,5.009-31.624-0.685-47.608c-13.704-38.482-56.009-58.566-94.489-44.862
			c-38.481,13.704-58.567,56.01-44.862,94.49c5.693,15.985,16.323,28.792,29.563,37.324h-0.002c0.017,0.012,0.031,0.02,0.047,0.03
			c1.139,0.733,2.294,1.436,3.469,2.104c28.065,16.831,35.756,16.692,45.359,43.663l52.679-18.76
			c-9.606-26.971-3.561-31.724,7.549-62.506c0.488-1.261,0.938-2.536,1.357-3.823
			C1975.427,454.138,1975.435,454.121,1975.44,454.104z"/><line x1="1875.904" x2="1829.601" y1="349.394" y2="219.38" fill="none" stroke="#A4D1E4" stroke-linejoin="bevel" stroke-miterlimit="10" stroke-width="6"/><line x1="1823.838" x2="1692.685" y1="461.051" y2="507.76" fill="none" stroke="#A4D1E4" stroke-linejoin="bevel" stroke-miterlimit="10" stroke-width="6"/><line x1="2117.98" x2="1986.827" y1="356.295" y2="403.004" fill="none" stroke="#A4D1E4" stroke-linejoin="bevel" stroke-miterlimit="10" stroke-width="6"/><line x1="1826.412" x2="1701.418" y1="394.558" y2="335.214" fill="none" stroke="#A4D1E4" stroke-linejoin="bevel" stroke-miterlimit="10" stroke-width="6"/><line x1="2109.248" x2="1983.095" y1="528.841" y2="468.946" fill="none" stroke="#A4D1E4" stroke-linejoin="bevel" stroke-miterlimit="10" stroke-width="6"/><line x1="1868.413" x2="1808.519" y1="509.791" y2="635.942" fill="none" stroke="#A4D1E4" stroke-linejoin="bevel" stroke-miterlimit="10" stroke-width="6"/><line x1="2002.146" x2="1942.8" y1="228.112" y2="353.113" fill="none" stroke="#A4D1E4" stroke-linejoin="bevel" stroke-miterlimit="10" stroke-width="6"/><line x1="1844.686" x2="1749.11" y1="368.772" y2="269.088" fill="none" stroke="#A4D1E4" stroke-linejoin="bevel" stroke-miterlimit="10" stroke-width="6"/><line x1="1843.229" x2="1742.394" y1="491.571" y2="588.249" fill="none" stroke="#A4D1E4" stroke-linejoin="bevel" stroke-miterlimit="10" stroke-width="6"/><line x1="2068.272" x2="1968.148" y1="275.806" y2="371.802" fill="none" stroke="#A4D1E4" stroke-linejoin="bevel" stroke-miterlimit="10" stroke-width="6"/><line x1="1818.387" x2="1679.651" y1="430.197" y2="427.277" fill="none" stroke="#A4D1E4" stroke-linejoin="bevel" stroke-miterlimit="10" stroke-width="6"/><line x1="2131.013" x2="1989.526" y1="436.778" y2="433.799" fill="none" stroke="#A4D1E4" stroke-linejoin="bevel" stroke-miterlimit="10" stroke-width="6"/><line x1="1910.084" x2="1907.177" y1="206.347" y2="344.387" fill="none" stroke="#A4D1E4" stroke-linejoin="bevel" stroke-miterlimit="10" stroke-width="6"/><path fill="none" stroke="#A4D1E4" stroke-linejoin="bevel" stroke-miterlimit="10" stroke-width="6" d="M1990.66,432.594"/></g><g opacity=".4"><ellipse cx="2133.229" cy="2151.45" fill="#252525" opacity=".01" rx="256.499" ry="70.889"/><ellipse cx="2133.229" cy="2151.45" fill="#252525" opacity=".028" rx="252.788" ry="69.863"/><ellipse cx="2133.228" cy="2151.45" fill="#252525" opacity=".045" rx="249.078" ry="68.837"/><ellipse cx="2133.228" cy="2151.45" fill="#252525" opacity=".063" rx="245.367" ry="67.812"/><ellipse cx="2133.229" cy="2151.45" fill="#252525" opacity=".081" rx="241.656" ry="66.786"/><ellipse cx="2133.229" cy="2151.45" fill="#252525" opacity=".098" rx="237.945" ry="65.761"/><ellipse cx="2133.229" cy="2151.45" fill="#252525" opacity=".116" rx="234.235" ry="64.735"/><ellipse cx="2133.229" cy="2151.45" fill="#252525" opacity=".134" rx="230.524" ry="63.71"/><ellipse cx="2133.229" cy="2151.45" fill="#252525" opacity=".151" rx="226.813" ry="62.685"/><ellipse cx="2133.228" cy="2151.45" fill="#252525" opacity=".169" rx="223.103" ry="61.659"/><ellipse cx="2133.229" cy="2151.45" fill="#252525" opacity=".187" rx="219.393" ry="60.634"/><ellipse cx="2133.229" cy="2151.45" fill="#252525" opacity=".204" rx="215.682" ry="59.608"/><ellipse cx="2133.228" cy="2151.45" fill="#252525" opacity=".222" rx="211.971" ry="58.582"/><ellipse cx="2133.229" cy="2151.45" fill="#252525" opacity=".24" rx="208.261" ry="57.557"/><ellipse cx="2133.229" cy="2151.45" fill="#252525" opacity=".258" rx="204.55" ry="56.531"/><ellipse cx="2133.229" cy="2151.45" fill="#252525" opacity=".275" rx="200.839" ry="55.506"/><ellipse cx="2133.228" cy="2151.45" fill="#252525" opacity=".293" rx="197.128" ry="54.48"/><ellipse cx="2133.229" cy="2151.45" fill="#252525" opacity=".31" rx="193.418" ry="53.455"/><ellipse cx="2133.229" cy="2151.45" fill="#252525" opacity=".328" rx="189.707" ry="52.43"/><ellipse cx="2133.229" cy="2151.45" fill="#252525" opacity=".346" rx="185.996" ry="51.404"/><ellipse cx="2133.229" cy="2151.45" fill="#252525" opacity=".364" rx="182.286" ry="50.378"/><ellipse cx="2133.229" cy="2151.45" fill="#252525" opacity=".381" rx="178.575" ry="49.353"/><ellipse cx="2133.229" cy="2151.45" fill="#252525" opacity=".399" rx="174.864" ry="48.327"/><ellipse cx="2133.229" cy="2151.45" fill="#252525" opacity=".417" rx="171.153" ry="47.302"/><ellipse cx="2133.229" cy="2151.45" fill="#252525" opacity=".434" rx="167.443" ry="46.276"/><ellipse cx="2133.229" cy="2151.45" fill="#252525" opacity=".452" rx="163.732" ry="45.251"/><ellipse cx="2133.228" cy="2151.45" fill="#252525" opacity=".47" rx="160.022" ry="44.226"/><ellipse cx="2133.229" cy="2151.45" fill="#252525" opacity=".487" rx="156.312" ry="43.2"/><ellipse cx="2133.229" cy="2151.45" fill="#252525" opacity=".505" rx="152.601" ry="42.175"/><ellipse cx="2133.229" cy="2151.45" fill="#252525" opacity=".523" rx="148.89" ry="41.148"/><ellipse cx="2133.229" cy="2151.45" fill="#252525" opacity=".54" rx="145.179" ry="40.123"/><ellipse cx="2133.229" cy="2151.45" fill="#252525" opacity=".558" rx="141.469" ry="39.098"/><ellipse cx="2133.229" cy="2151.45" fill="#252525" opacity=".576" rx="137.758" ry="38.072"/><ellipse cx="2133.229" cy="2151.45" fill="#252525" opacity=".593" rx="134.048" ry="37.047"/><ellipse cx="2133.229" cy="2151.45" fill="#252525" opacity=".611" rx="130.337" ry="36.021"/><ellipse cx="2133.229" cy="2151.45" fill="#252525" opacity=".629" rx="126.626" ry="34.995"/><ellipse cx="2133.229" cy="2151.45" fill="#252525" opacity=".646" rx="122.915" ry="33.97"/><ellipse cx="2133.229" cy="2151.45" fill="#252525" opacity=".664" rx="119.204" ry="32.944"/><ellipse cx="2133.229" cy="2151.45" fill="#252525" opacity=".682" rx="115.494" ry="31.919"/><ellipse cx="2133.229" cy="2151.45" fill="#252525" opacity=".7" rx="111.783" ry="30.894"/><ellipse cx="2133.229" cy="2151.45" fill="#252525" opacity=".717" rx="108.072" ry="29.868"/><ellipse cx="2133.229" cy="2151.45" fill="#252525" opacity=".735" rx="104.362" ry="28.843"/><ellipse cx="2133.229" cy="2151.45" fill="#252525" opacity=".752" rx="100.651" ry="27.817"/><ellipse cx="2133.229" cy="2151.45" fill="#252525" opacity=".77" rx="96.94" ry="26.792"/><ellipse cx="2133.229" cy="2151.45" fill="#252525" opacity=".788" rx="93.23" ry="25.766"/><ellipse cx="2133.229" cy="2151.45" fill="#252525" opacity=".805" rx="89.52" ry="24.74"/><ellipse cx="2133.229" cy="2151.45" fill="#252525" opacity=".823" rx="85.809" ry="23.715"/><ellipse cx="2133.228" cy="2151.45" fill="#252525" opacity=".841" rx="82.098" ry="22.689"/><ellipse cx="2133.229" cy="2151.45" fill="#252525" opacity=".859" rx="78.388" ry="21.664"/><ellipse cx="2133.229" cy="2151.45" fill="#252525" opacity=".876" rx="74.677" ry="20.639"/><ellipse cx="2133.229" cy="2151.45" fill="#252525" opacity=".894" rx="70.966" ry="19.613"/><ellipse cx="2133.229" cy="2151.45" fill="#252525" opacity=".912" rx="67.255" ry="18.588"/><ellipse cx="2133.229" cy="2151.45" fill="#252525" opacity=".929" rx="63.545" ry="17.562"/><ellipse cx="2133.229" cy="2151.45" fill="#252525" opacity=".947" rx="59.834" ry="16.536"/><ellipse cx="2133.228" cy="2151.45" fill="#252525" opacity=".965" rx="56.124" ry="15.511"/><ellipse cx="2133.229" cy="2151.45" fill="#252525" opacity=".982" rx="52.413" ry="14.485"/><ellipse cx="2133.229" cy="2151.45" fill="#252525" rx="48.702" ry="13.46"/></g><g><path fill="#252525" d="M2058.045,1902.279c-16.089,18.65-50.098,48.27-43.149,59.971s89.751,94.525,110.879,114.82
			c21.129,20.295,54.039,20.402,35.39-21.064s-39.767-103.447-39.767-103.447L2058.045,1902.279z"/><path fill="#333" d="M2121.397,2050.193c6.308,17.551,21.392,37.916,42.51,52.828c21.117,14.912,55.673,35.207,68.014,45.629
			c12.342,10.42,17.553,18.1,4.662,26.875c-12.89,8.777-54.027,23.037-94.068,2.195c-40.041-20.844-90.503-27.975-98.73-52.656
			c-8.228-24.684,10.147-46.074,10.147-46.074s33.613-26.598,49.64-34.008C2119.598,2037.57,2121.397,2050.193,2121.397,2050.193z"/><path fill="#FFCA7D" d="M2120.849,2019.477c-2.742,13.986-0.548,25.779,0,28.248c0.549,2.469,0.549,2.469,0.549,2.469
			s-5.211-2.742-12.067,0s-7.679,16.455,0,34.006c7.68,17.553-15.083,22.764-32.636,15.908
			c-17.552-6.857-22.763-21.117-22.763-21.117s7.93-35.924,6.033-59.514C2058.069,1995.887,2120.849,2019.477,2120.849,2019.477z"/><path fill="#252525" d="M2268.305,1365.842c0,0,68.747,173.328,73.136,249.387c4.388,76.059-24.135,88.492-73.136,133.105
			c-48.999,44.611-142.53,149.193-142.53,149.193l-24.213-121.404c0,0,60.656-63.26,98.525-96.719
			c37.868-33.459,43.354-34.557,45.547-44.979c2.194-10.422-45.547-89.955-45.547-89.955s-55.378-154.494-15.886-185.211
			S2268.305,1365.842,2268.305,1365.842z"/><path fill="#333" d="M2051.463,2013.992c0,0,11.519,12.066,30.168,15.906c13.076,2.688,27.766-1.625,35.379-4.453
			c3.248-1.197,5.211-2.129,5.211-2.129s0.548-9.873,2.742-24.684c2.194-14.809,11.705-77.701,27.063-153.031
			c15.357-75.332,53.018-152.484,60.697-229.275c7.679-76.791-6.582-228.179-6.582-228.179s-130.906-115.921-145.54-53.019
			c-3.017,12.967-3.883,28.172-3.225,44.923c2.566,64.471,27.907,151.761,41.258,222.013
			c16.817,88.496-32.176,130.906-36.563,177.715C2057.684,1826.59,2051.463,2013.992,2051.463,2013.992z"/><path fill="#252525" d="M2051.463,2013.992c0,0,11.519,12.066,30.168,15.906c13.076,2.688,27.766-1.625,35.379-4.453
			c-2.61,0.207-5.387,0.34-8.228,0.34c-13.713,0-43.881-5.76-48.543-13.164c-4.662-7.406-0.549-29.895,0-76.518
			s7.679-166.559,23.037-196.551c15.358-29.98,24.135-74.137,25.78-90.043s4.662-12.066,20.568,11.52
			c15.907,23.586,33.459,24.133,48.269,20.842c14.349-3.191,21.743-14.359,22.193-15.049c-0.658,0.701-14.898,15.73-42.214,9.84
			c-27.974-6.035-41.687-52.658-54.302-92.15s-35.653-167.294-37.847-199.107c0,0-3.257-2.095-8.348-5.353
			c2.566,64.471,27.907,151.761,41.258,222.013c16.817,88.496-32.176,130.906-36.563,177.715
			C2057.684,1826.59,2051.463,2013.992,2051.463,2013.992z"/><path fill="#CECECE" d="M2364.11,1062.764c0,0-35.286-23.557-41.686-15.238l-3.018,12.25c0,0,17.004,14.078,17.461,14.078
			c0.458,0,22.214-3.565,22.214-3.565l4.72-4.594l0.515-1.234L2364.11,1062.764z"/><path fill="#F2BA70" d="M2374.121,1040.533c-5.297,7.108-12.753,24.134-15.495,30.442s-3.428,6.308-3.84,6.445
			c-0.411,0.137-33.047-15.084-33.047-15.084s4.524-19.061,4.25-32.362c-0.273-13.301,40.864,6.034,40.864,6.034L2374.121,1040.533z
			"/><path fill="#EFEFEF" d="M2191.233,932.889l2.447,14.009l28.916,165.462c0,0,14.623,55.651,41.324,86.367
			c26.69,30.717,38.396,20.481,51.187,0c12.802-20.47,38.22-108.055,40.228-115.734c2.008-7.679,5.484-12.615,8.041-14.81
			c2.566-2.194,0.734-5.419,0.734-5.419s-0.812,4.827-6.473,6.9c-3.017,1.107-7.426,1.426-13.821-0.198
			c-18.375-4.663-21.392-21.94-21.392-21.94l-27.426,64.833c0,0-19.746-37.408-37.298-73.609S2227.533,953.183,2191.233,932.889z"/><path fill="#FFF" d="M2188.904,931.881l4.776,15.017c2.785,1.832,5.637,3.324,8.435,4.278
			c16.094,5.485,37.299,53.753,41.687,67.279c4.389,13.526,46.447,93.904,46.447,93.904s-4.761,14.7-9.511,39.821
			c-4.75,25.121,3.291,51.121,3.291,51.121s-2.929-40.403,2.556-59.052c5.485-18.649,29.443-70.943,32.362-80.816
			c2.929-9.873,2.38-5.847,8.601,0c6.198,5.836,20.776,10.762,30.09,6.231c-3.017,1.107-7.426,1.426-13.821-0.198
			c-18.375-4.663-21.392-21.94-21.392-21.94l-27.426,64.833c0,0-19.746-37.408-37.298-73.609S2225.202,949.207,2188.904,931.881z"/><path fill="#CECECE" d="M1984.184,988.101c-17.19-6.761-36.947,23.048-36.947,23.048s-5.274,4.137,11.446,18.886
			c16.723,14.748,27.693-16.882,27.693-16.882L1984.184,988.101z"/><path fill="#F2BA70" d="M1968.468,953.28c14.98,18.735,19.277,64.626,19.277,64.626l-35.195,8.045c0,0-2.012-23.952-14.078-31.265
			c-12.067-7.313-63.539-24.952-75.285-43.741c-11.743-18.789,82.621-5.259,82.621-5.259L1968.468,953.28z"/><path fill="#FFF" d="M2191.149,935.448c26.511,19.929,40.224,52.291,49,106.593c8.775,54.302-9.143,171.582-0.367,223.191
			c8.776,51.609,32.91,100.609,32.91,100.609s-2.193,24.134-59.238,32.179s-101.655,3.657-133.835,0
			c-32.178-3.657-36.565-13.896-36.565-13.896s-11.703-29.985,0-86.299c11.7-56.313,25.467-87.76,13.83-152.118
			c-11.637-64.357-12.551-204.592-12.551-204.592l-6.481-10.654l31.164-28.656L2191.149,935.448z"/><path fill="#F2BA70" d="M2069.016,901.81c0,0,36.201,13.164,71.667,20.47c35.478,7.317,51.933,18.649,50.463,13.165
			c-0.264-0.977-0.689-1.81-1.294-2.556c-2.753-3.478-9.04-5.123-17.981-10.235c-10.871-6.22-9.609-47.544,6.846-78.984
			c0,0-34.007-40.59-35.104-40.962c-1.098-0.362-55.213-15.424-55.213-15.424s3.248,6.68,5.541,20.24
			c1.536,8.995,2.654,21.03,2.138,36.146C2094.784,881.549,2069.016,901.81,2069.016,901.81z"/><path fill="#F4A769" d="M2069.016,901.81c0,0,36.201,13.164,71.667,20.47c35.478,7.317,51.933,18.649,50.463,13.165
			c-0.264-0.977-0.689-1.81-1.294-2.556c0.176,3.839-7.021-1.097-22.38-6.001c-15.357-4.915-83.921-24.441-87.761-27.458
			c-3.839-3.017,1.098-4.937,11.519-21.94c10.422-17.004,9.6-43.606,9.6-43.606s6.855,7.405,13.164,17.849
			c6.177,10.224,37.836,50.067,39.186,51.757c-1.416-2.063-46.711-68.574-54.544-89.9l-4.694-6.066
			c1.536,8.995,2.654,21.03,2.138,36.146C2094.784,881.549,2069.016,901.81,2069.016,901.81z"/><path fill="#252525" d="M2175.532,659.552c66.444,12.98,86.831,70.39,39.66,104.821l-51.834-58.268L2175.532,659.552z"/><path fill="#FFCA7D" d="M2059.198,792.296c0.777,0.669,1.59,1.338,2.412,1.985c1.318,1.042,2.666,2.052,4.016,3.061
			c0.021,0.012,0.034,0.022,0.045,0.022c0.197,0.164,0.405,0.307,0.602,0.46c9.194,6.846,19.616,0.955,19.616,0.955
			s-0.967-2.194,8.084,11.793c9.05,13.987,52.656,40.041,77.897,41.138c8.207,0.351,15.678-3.192,21.996-8.71
			c13.154-11.453,21.336-31.375,20.777-42.301c-0.823-16.181,4.662-32.362,5.759-56.496c1.098-24.134-6.308-44.155-29.619-67.192
			l-34.007,3.565c0,0-84.832,31.813-87.761,34.369c-2.929,2.567-17.827,39.679-19.56,54.488
			C2048.172,780.35,2052.923,786.866,2059.198,792.296z"/><path fill="#F4A769" d="M2217.945,767.986c0.445-41.884-11.804-61.447-11.804-61.447s9.507,53.753-17.734,64.175
			c-27.243,10.421-52.656-5.485-52.656-5.485l4.707,5.851c0,0-15.495,5.526-27.563,3.174c-12.066-2.352-17.826-7.014-20.295-3.312
			c-2.468,3.703,2.053,14.941-2.538,14.807c-4.592-0.134-10.077-30.439-10.077-30.439s-3.291-52.793,2.561-57.182
			c5.85-4.388,111.162-19.38,111.162-19.38S2232.673,708.397,2217.945,767.986z"/><path fill="#252525" d="M2193.708,678.748c17,48.996,5.819,92.688-32.27,91.234c-43.149-1.646-44.978-44.977-44.978-44.977
			s-3.565,25.231,14.718,39.368c0,0-28.34,9.998-36.75,1.039c-8.41-8.959-6.946,10.604-4.752,18.101
			c2.193,7.496-5.485,3.656-8.228-10.056c-2.743-13.713-5.121-19.563-17.188-20.66c-12.066-1.097-14.81,16.638-14.81,16.638
			s-21.392-88.675,42.602-109.152C2156.046,639.805,2187.492,660.83,2193.708,678.748z"/><path fill="#F4A769" d="M2065.671 797.364c.197.164.405.307.602.46 9.194 6.846 19.616.955 19.616.955s-.967-2.194 8.084 11.793c9.05 13.987 52.656 40.041 77.897 41.138 8.207.351 15.678-3.192 21.996-8.71-27.766 13.373-44.221.208-62.87-10.213-18.648-10.422-44.154-37.573-44.154-37.573S2074.995 802.125 2065.671 797.364zM2059.198 792.296c.777.669 1.59 1.338 2.412 1.985C2060.734 793.338 2059.933 792.691 2059.198 792.296z"/><path fill="#EFEFEF" d="M1947.521,1017.632c0.407,0.45,0.868,1.755,1.371,3.796c4.104,16.444,11.75,80.29,26.877,123.731
			c17.004,48.817,47.172,65.272,68.015,55.399s29.07-75.145,41.687-132.738c1.009-4.597,1.986-9.006,2.929-13.241
			c0.011-0.077,0.034-0.165,0.056-0.242c0.032-0.132,0.066-0.263,0.088-0.395c0.032-0.12,0.054-0.23,0.077-0.318
			c0.043-0.198,0.077-0.33,0.088-0.406c0.011-0.066,0.021-0.088,0.021-0.088c10.762-47.851,17.584-71.975,17.584-71.975
			c5.848-41.686-31.451-62.167-55.212-58.503c-23.772,3.653-25.604,43.508-30.717,79.347c-5.123,35.839-6.582,60.698-6.582,60.698
			s-0.011-0.022-0.021-0.066l-29.598-74.531c0,0-0.735,27.425-21.216,29.257c-19.976,1.788-15.928-5.836-15.731-6.209
			C1946.983,1011.335,1943.978,1013.683,1947.521,1017.632z"/><path fill="#EFEFEF" d="M1982.066,1029.162c-0.054,0.022-0.253,0.132-0.591,0.308
			C1981.858,1029.305,1982.034,1029.184,1982.066,1029.162z"/><path fill="#FFF" d="M1981.409,1029.502c-2.413,1.196-10.829,4.992-16.884,2.666c-7.131-2.743-10.422-3.565-10.422-3.565
				s17.728,119.3,39.767,145.08s52.568,49.53,72.402-29.62c16.28-64.987,20.966-84.557,22.127-89.482
				c-0.942,4.234-1.92,8.644-2.929,13.241c-12.616,57.593-20.844,122.865-41.687,132.738s-51.011-6.582-68.015-55.399
				c-15.127-43.441-22.773-107.287-26.877-123.731c0,0,10.971,9.094,20.844,9.368
				C1976.877,1030.994,1980.147,1030.04,1981.409,1029.502z"/><path fill="#FFF" d="M1947.236,1011.149c-0.196,0.374-4.244,7.998,15.731,6.209c20.48-1.832,21.216-29.257,21.216-29.257
				l29.598,74.531c0.011,0.044,0.021,0.066,0.021,0.066l43.081,103.711c-1.845-3.862-41.358-86.664-53.141-115.592
				c-12.066-29.619-15.357-42.235-15.357-42.235s-8.229,10.97-18.375,12.89c-10.147,1.919-21.118-0.044-21.118-0.044
				c-0.503-2.041-0.964-3.346-1.371-3.796C1943.978,1013.683,1946.983,1011.335,1947.236,1011.149z"/><path fill="#FFCA7D" d="M1969.188 954.463c6.582 18.649-15.723 32.91-39.492 25.597-23.768-7.313-51.193-18.284-71.67-32.544-20.479-14.261-25.142-25.049-25.142-26.694s1.509-2.194 1.509-2.194-16.408-13.895-16.956-18.649c-.549-4.754 6.945-5.12 6.945-5.12s-11.7-10.604-11.151-14.627c.548-4.022 15.176 0 15.176 0s-1.279-7.313 4.388-8.41c5.668-1.097 18.465 11.701 22.305 14.992s28.34 26.329 42.783 31.083c14.445 4.753 24.867 9.689 27.609 6.398 2.743-3.291-15.906-22.672-18.833-31.265-2.925-8.593-.366-16.455 5.303-14.81 5.667 1.646 27.607 26.968 36.932 42.601C1958.218 936.454 1969.188 954.463 1969.188 954.463zM2398.667 988.105c-4.755 15.723-15.725 42.783-22.123 51.376-6.399 8.593-19.563 19.746-32.361 13.53-12.8-6.216-13.53-12.25-13.53-12.25s-11.701-10.787-12.067-23.585-2.561-20.478-4.388-34.556c-1.828-14.078-3.657-21.757 1.278-24.5 4.938-2.743 8.776 2.56 10.422 8.228 1.646 5.668 1.83 19.563 6.767 22.306s18.101-19.563 21.573-36.75c3.474-17.186 5.76-29.848 12.891-29.162 7.13.686 4.113 8.776 4.525 14.124.411 5.348-.549 13.164-.549 13.164s.686-13.164 5.759-17.141c5.074-3.977 8.365-.412 7.954 5.896-.412 6.308-.686 15.495-.549 15.906.137.412 4.937-4.662 7.131-3.428 2.193 1.234 3.291 8.639 1.919 13.301-1.371 4.663-3.153 15.358-3.153 15.358s6.308-3.565 8.502-1.783C2400.86 979.923 2398.667 988.105 2398.667 988.105z"/></g><g opacity=".5"><polygon fill="#545454" points="1825.618 2043.201 912.115 2043.201 936.28 2018.589 1805.889 2018.589"/><polygon fill="#545454" points="1828.059 2046.236 909.136 2046.236 933.703 2021.215 1808 2021.215" opacity=".982"/><polygon fill="#545454" points="1830.487 2049.271 906.156 2049.271 931.12 2023.848 1810.106 2023.848" opacity=".964"/><polygon fill="#545454" points="1832.922 2052.307 903.182 2052.307 928.537 2026.474 1812.214 2026.474" opacity=".946"/><polygon fill="#545454" points="1835.357 2055.334 900.203 2055.334 925.96 2029.107 1814.327 2029.107" opacity=".929"/><polygon fill="#545454" points="1837.796 2058.371 897.229 2058.371 923.377 2031.734 1816.432 2031.734" opacity=".911"/><polygon fill="#545454" points="1840.232 2061.406 894.25 2061.406 920.799 2034.361 1818.545 2034.361" opacity=".893"/><polygon fill="#545454" points="1842.666 2064.441 891.27 2064.441 918.217 2036.993 1820.65 2036.993" opacity=".875"/><polygon fill="#545454" points="1845.103 2067.484 888.291 2067.484 915.639 2039.625 1822.764 2039.625" opacity=".857"/><polygon fill="#545454" points="1847.535 2070.514 885.31 2070.514 913.056 2042.246 1824.868 2042.246" opacity=".839"/><polygon fill="#545454" points="1849.976 2073.549 882.336 2073.549 910.474 2044.879 1826.981 2044.879" opacity=".821"/><polygon fill="#545454" points="1852.41 2076.584 879.358 2076.584 907.896 2047.51 1829.093 2047.51" opacity=".804"/><polygon fill="#545454" points="1854.84 2079.613 876.378 2079.613 905.313 2050.139 1831.193 2050.139" opacity=".786"/><polygon fill="#545454" points="1857.278 2082.646 873.398 2082.646 902.736 2052.766 1833.305 2052.766" opacity=".768"/><polygon fill="#545454" points="1859.713 2085.684 870.418 2085.684 900.153 2055.398 1835.418 2055.398" opacity=".75"/><polygon fill="#545454" points="1862.147 2088.719 867.446 2088.719 897.577 2058.023 1837.525 2058.023" opacity=".732"/><polygon fill="#545454" points="1864.583 2091.754 864.466 2091.754 894.993 2060.656 1839.639 2060.656" opacity=".714"/><polygon fill="#545454" points="1867.018 2094.789 861.486 2094.789 892.416 2063.283 1841.743 2063.283" opacity=".696"/><polygon fill="#545454" points="1869.458 2097.824 858.512 2097.824 889.832 2065.908 1843.849 2065.908" opacity=".679"/><polygon fill="#545454" points="1871.893 2100.859 855.532 2100.859 887.256 2068.541 1845.962 2068.541" opacity=".661"/><polygon fill="#545454" points="1874.328 2103.895 852.554 2103.895 884.672 2071.174 1848.074 2071.174" opacity=".643"/><polygon fill="#545454" points="1876.761 2106.932 849.58 2106.932 882.089 2073.802 1850.18 2073.802" opacity=".625"/><polygon fill="#545454" points="1879.195 2109.967 846.6 2109.967 879.513 2076.429 1852.293 2076.429" opacity=".607"/><polygon fill="#545454" points="1881.63 2112.996 843.62 2112.996 876.929 2079.055 1854.398 2079.055" opacity=".589"/><polygon fill="#545454" points="1884.064 2116.031 840.646 2116.031 874.352 2081.688 1856.511 2081.688" opacity=".571"/><polygon fill="#545454" points="1886.506 2119.066 837.662 2119.066 871.769 2084.313 1858.618 2084.313" opacity=".554"/><polygon fill="#545454" points="1888.94 2122.102 834.688 2122.102 869.186 2086.946 1860.731 2086.946" opacity=".536"/><polygon fill="#545454" points="1891.375 2125.131 831.708 2125.131 866.609 2089.572 1862.836 2089.572" opacity=".518"/><polygon fill="#545454" points="1893.811 2128.166 828.728 2128.166 864.025 2092.199 1864.947 2092.199" opacity=".5"/><polygon fill="#545454" points="1896.243 2131.201 825.754 2131.201 861.449 2094.826 1867.055 2094.826" opacity=".482"/><polygon fill="#545454" points="1898.678 2134.236 822.776 2134.236 858.865 2097.46 1869.16 2097.46" opacity=".464"/><polygon fill="#545454" points="1901.112 2137.273 819.796 2137.273 856.289 2100.092 1871.273 2100.092" opacity=".446"/><polygon fill="#545454" points="1903.553 2140.307 816.822 2140.307 853.705 2102.718 1873.38 2102.718" opacity=".429"/><polygon fill="#545454" points="1905.988 2143.344 813.842 2143.344 851.128 2105.351 1875.491 2105.351" opacity=".411"/><polygon fill="#545454" points="1908.423 2146.377 810.862 2146.377 848.545 2107.978 1877.599 2107.978" opacity=".393"/><polygon fill="#545454" points="1910.857 2149.414 807.884 2149.414 845.967 2110.609 1879.709 2110.609" opacity=".375"/><polygon fill="#545454" points="1913.292 2152.443 804.904 2152.443 843.385 2113.236 1881.822 2113.236" opacity=".357"/><polygon fill="#545454" points="1915.733 2155.479 801.93 2155.479 840.808 2115.864 1883.93 2115.864" opacity=".339"/><polygon fill="#545454" points="1918.16 2158.514 798.95 2158.514 838.225 2118.497 1886.035 2118.497" opacity=".321"/><polygon fill="#545454" points="1920.595 2161.549 795.971 2161.549 835.648 2121.123 1888.147 2121.123" opacity=".304"/><polygon fill="#545454" points="1923.035 2164.584 792.998 2164.584 833.064 2123.756 1890.253 2123.756" opacity=".286"/><polygon fill="#545454" points="1925.471 2167.619 790.018 2167.619 830.481 2126.382 1892.366 2126.382" opacity=".268"/><polygon fill="#545454" points="1927.905 2170.654 787.038 2170.654 827.904 2129.008 1894.473 2129.008" opacity=".25"/><polygon fill="#545454" points="1930.34 2173.689 784.064 2173.689 825.322 2131.641 1896.584 2131.641" opacity=".232"/><polygon fill="#545454" points="1932.774 2176.719 781.086 2176.719 822.744 2134.269 1898.691 2134.269" opacity=".214"/><polygon fill="#545454" points="1935.209 2179.756 778.105 2179.756 820.161 2136.895 1900.803 2136.895" opacity=".196"/><polygon fill="#545454" points="1937.65 2182.791 775.126 2182.791 817.578 2139.527 1902.909 2139.527" opacity=".179"/><polygon fill="#545454" points="1940.083 2185.826 772.152 2185.826 815.001 2142.154 1905.022 2142.154" opacity=".161"/><polygon fill="#545454" points="1942.518 2188.861 769.172 2188.861 812.424 2144.787 1907.128 2144.787" opacity=".143"/><polygon fill="#545454" points="1944.952 2191.896 766.193 2191.896 809.841 2147.412 1909.241 2147.412" opacity=".125"/><polygon fill="#545454" points="1947.388 2194.932 763.214 2194.932 807.258 2150.045 1911.346 2150.045" opacity=".107"/><polygon fill="#545454" points="1949.822 2197.967 760.24 2197.967 804.681 2152.672 1913.453 2152.672" opacity=".089"/><polygon fill="#545454" points="1952.257 2200.998 757.26 2200.998 802.097 2155.298 1915.566 2155.298" opacity=".071"/><polygon fill="#545454" points="1954.697 2204.033 754.28 2204.033 799.521 2157.925 1917.678 2157.925" opacity=".054"/><polygon fill="#545454" points="1957.131 2207.068 751.301 2207.068 796.937 2160.558 1919.784 2160.558" opacity=".036"/><polygon fill="#545454" points="1959.565 2210.104 748.327 2210.104 794.354 2163.186 1921.896 2163.186" opacity=".018"/><polygon fill="#545454" points="1962 2213.139 745.348 2213.139 791.776 2165.816 1924.003 2165.816" opacity="0"/></g></g></svg>