<svg xmlns="http://www.w3.org/2000/svg" width="80" height="80" fill="none"><circle cx="40" cy="40" r="40" fill="#E4E7EC"/><g clip-path="url(#a)"><path fill="#101828" d="M58.692 34.574 53.43 50.607a7.624 7.624 0 0 1-4.551 4.934c.576-1.343.873-2.788.871-4.25V35.876a10.804 10.804 0 0 0-10.792-10.792h-2.566a7.732 7.732 0 0 1 8.394-2.742l8.766 2.691a7.74 7.74 0 0 1 5.14 9.542Zm-12.025 1.301v15.417A7.718 7.718 0 0 1 38.958 59h-9.25A7.717 7.717 0 0 1 22 51.292V35.875a7.718 7.718 0 0 1 7.708-7.708h9.25a7.717 7.717 0 0 1 7.709 7.708ZM40.5 42.042a3.083 3.083 0 0 0-6.167 0 3.083 3.083 0 1 0-6.166 0c0 2.235 2.38 5.227 4.184 6.75a3.07 3.07 0 0 0 3.965 0c1.804-1.523 4.184-4.515 4.184-6.75Z"/></g><defs><clipPath id="a"><path fill="#fff" d="M22 22h37v37H22z"/></clipPath></defs></svg>