<svg xmlns="http://www.w3.org/2000/svg" width="80" height="80" fill="none"><circle cx="40" cy="40" r="40" fill="#E4E7EC"/><g clip-path="url(#a)"><path fill="#101828" d="M54.146 24.083H41.812a3.854 3.854 0 0 0-3.854 3.855v.462l-1.95-3.382a3.91 3.91 0 0 0-2.346-1.894 3.854 3.854 0 0 0-4.388 1.793l-7.696 13.33a3.913 3.913 0 0 0-.462 2.977 3.853 3.853 0 0 0 3.738 2.901h4.163a10.905 10.905 0 1 0 20.966 0h4.163A3.854 3.854 0 0 0 58 40.271V27.937a3.856 3.856 0 0 0-3.854-3.854ZM26.196 39.5l6.416-11.114 4.64 8.03a10.872 10.872 0 0 0-5.57 3.084h-5.487ZM39.5 53.375a6.281 6.281 0 1 1 6.28-6.28 6.289 6.289 0 0 1-6.28 6.28ZM53.375 39.5h-6.057a11.52 11.52 0 0 0-4.735-2.87v-7.922h10.792V39.5Z"/></g><defs><clipPath id="a"><path fill="#fff" d="M21 21h37v37H21z"/></clipPath></defs></svg>