<svg xmlns="http://www.w3.org/2000/svg" width="80" height="80" fill="none"><circle cx="40" cy="40" r="40" fill="#E4E7EC"/><g fill="#101828" clip-path="url(#a)"><path d="M30.48 53.375a3.854 3.854 0 0 1-3.855-3.854V23.312A2.312 2.312 0 0 0 24.312 21 2.312 2.312 0 0 0 22 23.313V49.52A8.479 8.479 0 0 0 30.48 58h26.207a2.312 2.312 0 1 0 0-4.625H30.48Z"/><path d="M52.063 48.75a2.312 2.312 0 0 0 2.312-2.313v-9.25a2.312 2.312 0 1 0-4.625 0v9.25a2.312 2.312 0 0 0 2.313 2.313ZM33.563 48.75a2.312 2.312 0 0 0 2.312-2.313v-9.25a2.312 2.312 0 1 0-4.625 0v9.25a2.312 2.312 0 0 0 2.313 2.313ZM42.813 48.75a2.313 2.313 0 0 0 2.312-2.313V29.48a2.312 2.312 0 1 0-4.625 0v16.959a2.312 2.312 0 0 0 2.313 2.312Z"/></g><defs><clipPath id="a"><path fill="#fff" d="M22 21h37v37H22z"/></clipPath></defs></svg>