<svg xmlns="http://www.w3.org/2000/svg" width="64" height="64" fill="none"><circle cx="32" cy="32" r="32" fill="#E4E7EC"/><g clip-path="url(#a)"><path fill="#101828" d="M19.315 28.265a2.647 2.647 0 0 1 .166-2.78 5.11 5.11 0 0 1 1.807-1.625l8.126-4.23a5.605 5.605 0 0 1 5.172 0l8.125 4.233a5.108 5.108 0 0 1 1.807 1.625 2.646 2.646 0 0 1 .166 2.78 2.94 2.94 0 0 1-2.618 1.565H21.934a2.939 2.939 0 0 1-2.619-1.568Zm24.602 14.568a2.167 2.167 0 0 0-2.167-2.166V32h-2.167v8.667h-3.25V32h-2.166v8.667h-4.334V32h-2.166v8.667h-3.25V32H22.25v8.667a2.166 2.166 0 0 0-2.167 2.166 1.084 1.084 0 0 0 0 2.167h23.834a1.083 1.083 0 0 0 0-2.167Z"/></g><defs><clipPath id="a"><path fill="#fff" d="M19 19h26v26H19z"/></clipPath></defs></svg>