<svg xmlns="http://www.w3.org/2000/svg" width="64" height="64" fill="none"><circle cx="32" cy="32" r="32" fill="#E4E7EC"/><g clip-path="url(#a)"><path fill="#101828" d="M44.991 32.173a12.892 12.892 0 0 1-1.3 5.469c-.08 0-.16.008-.237.025a20.56 20.56 0 0 1-6.067.833c-2.21.062-4.414-.23-6.531-.867a1.601 1.601 0 0 1-.67-2.593c.364-.406.754-.788 1.167-1.145a1.583 1.583 0 0 1 1.54-.253c1.386.462 2.836.699 4.296.7a15.7 15.7 0 0 0 7.802-2.169Zm-9.472-.147a1.613 1.613 0 0 0 1.86-1.771 18.545 18.545 0 0 0-5.264-10.828 1.061 1.061 0 0 1-.239-.42 12.901 12.901 0 0 0-4.983 1.04 15.073 15.073 0 0 1 5.958 10.338 1.607 1.607 0 0 0 1.186 1.328c.486.137.981.241 1.482.313Zm6.146-.697a14.757 14.757 0 0 0 3.125-1.59 13.02 13.02 0 0 0-9.874-10.4 20.583 20.583 0 0 1 4.61 10.686 1.597 1.597 0 0 0 2.14 1.304ZM37.2 40.667a22.743 22.743 0 0 1-7.845-1.258 1.558 1.558 0 0 0-2.04 1.056 12.805 12.805 0 0 0-.39 3.5 12.983 12.983 0 0 0 15.098-3.69 22.83 22.83 0 0 1-4.823.392Zm-6.5-9.933a12.746 12.746 0 0 0-.35-1.894 1.588 1.588 0 0 0-2.565-.784 20.728 20.728 0 0 0-6.392 10.381 7.198 7.198 0 0 0-.1.912 13.086 13.086 0 0 0 3.466 3.436 15.074 15.074 0 0 1 5.35-10.69 1.58 1.58 0 0 0 .59-1.361Zm-3.286-7.283a12.739 12.739 0 0 0-2.672-2.232 12.932 12.932 0 0 0-4.984 15.135 22.9 22.9 0 0 1 7.45-10.644 1.563 1.563 0 0 0 .206-2.259Z"/></g><defs><clipPath id="a"><path fill="#fff" d="M19 19h26v26H19z"/></clipPath></defs></svg>