<svg xmlns="http://www.w3.org/2000/svg" width="64" height="64" fill="none"><circle cx="32" cy="32" r="32" fill="#E4E7EC"/><g clip-path="url(#a)"><path fill="#101828" d="M19 29.675v-6.5a2.167 2.167 0 0 1 .822-1.704 2.147 2.147 0 0 1 1.842-.415 6.645 6.645 0 0 1 4.486 4.041A23.693 23.693 0 0 1 32 24.25c1.978.037 3.943.322 5.85.847a6.642 6.642 0 0 1 4.49-4.04A2.173 2.173 0 0 1 45 23.172v6.5c-1.787.044-3.546.45-5.172 1.192a11.11 11.11 0 0 0-6.745 10.718 1.083 1.083 0 1 1-2.166 0 11.114 11.114 0 0 0-6.745-10.725A13.252 13.252 0 0 0 19 29.675Zm21.667 3.242a4.093 4.093 0 0 1-3.946 3.238 9.683 9.683 0 0 0-1.471 5.428 3.25 3.25 0 1 1-6.5 0 9.683 9.683 0 0 0-1.471-5.428 4.093 4.093 0 0 1-3.946-3.238A11.002 11.002 0 0 0 19 31.844a11.836 11.836 0 0 0 3.488 8.262l5.045 5.045a6.35 6.35 0 0 0 8.93 0l5.044-5.045A11.835 11.835 0 0 0 45 31.844a11.002 11.002 0 0 0-4.333 1.073Z"/></g><defs><clipPath id="a"><path fill="#fff" d="M19 21h26v26H19z"/></clipPath></defs></svg>