<svg width="268" height="63" fill="none" xmlns="http://www.w3.org/2000/svg"><g clip-path="url(#a)"><path d="M50.497 6.102c.635-.635.211-1.764-.705-1.764h-6.136c-1.975 0-3.88.776-5.22 2.187L27.224 17.668l5.854 5.854 17.42-17.42Z" fill="#C3C9CB"/><path d="m21.299 23.592 3.597 3.597c1.27 1.27 3.244 1.27 4.514 0l2.962-2.962.634-.635-5.853-5.854-3.668-3.667c-1.34-1.34-3.244-2.116-5.148-2.116H9.662L21.3 23.592Z" fill="#DDE1E2"/><path d="M3.879 56.951c-.635.635-.212 1.763.705 1.763h6.207c1.904 0 3.808-.776 5.148-2.116l11.214-11.213-5.854-5.854-17.42 17.42Z" fill="#C3C9CB"/><path d="M29.41 35.864c-1.27-1.27-3.245-1.27-4.514 0l-2.962 2.962-.635.635 5.854 5.853 3.667 3.668a7.473 7.473 0 0 0 5.29 2.186h8.604L33.077 39.53l-3.667-3.667Z" fill="#DDE1E2"/><path d="m13.33 31.562-3.668 3.667 9.521-9.521-17.42-17.49C1.128 7.582 0 8.005 0 8.922v6.135c0 1.975.776 3.809 2.186 5.22L13.33 31.561Z" fill="#C3C9CB"/><path d="M7.546 40.377v8.675l11.708-11.707 3.596-3.668c1.27-1.27 1.27-3.244 0-4.513l-3.596-3.597-9.592 9.662c-1.34 1.34-2.116 3.244-2.116 5.148Z" fill="#DDE1E2"/><path d="m35.263 37.345 17.42 17.49a.983.983 0 0 0 1.693-.705v-6.206a7.252 7.252 0 0 0-2.116-5.148L41.117 31.562l-5.854 5.783Z" fill="#C3C9CB"/><path d="M46.9 22.746V14L35.263 25.636l-3.526 3.597a3.282 3.282 0 0 0 0 4.514l3.597 3.597 9.52-9.521c1.27-1.34 2.046-3.174 2.046-5.078Z" fill="#DDE1E2"/></g><path d="m65.4 45.526 14.323-31.804H90.71l14.323 31.804h-7.74l-3.025-6.716H76.164l-3.025 6.716H65.4Zm13.344-12.5h12.944l-6.183-13.744h-.578l-6.183 13.745Zm33.239 22.509v-5.116h13.433c1.779 0 2.669-.904 2.669-2.713v-2.18h-9.786c-3.974 0-7.073-.978-9.297-2.935-2.224-1.958-3.336-4.79-3.336-8.497 0-3.736 1.112-6.583 3.336-8.54 2.224-1.957 5.323-2.936 9.297-2.936h16.236v25.889c0 2.105-.608 3.795-1.824 5.07-1.216 1.305-3.114 1.958-5.694 1.958h-15.034Zm6.316-15.124h9.786V27.734h-9.786c-1.928 0-3.41.533-4.448 1.6-1.008 1.039-1.513 2.625-1.513 4.76 0 2.106.505 3.692 1.513 4.76 1.038 1.038 2.52 1.557 4.448 1.557Zm32.856 5.338c-3.974 0-7.073-.979-9.297-2.936-2.224-1.987-3.336-4.893-3.336-8.719 0-3.855 1.112-6.76 3.336-8.718 2.224-1.987 5.323-2.98 9.297-2.98h8.229c3.974 0 7.073.993 9.297 2.98 2.224 1.957 3.336 4.863 3.336 8.718 0 3.826-1.112 6.732-3.336 8.719-2.224 1.957-5.323 2.936-9.297 2.936h-8.229Zm0-5.116h8.229c1.928 0 3.395-.533 4.404-1.601 1.038-1.068 1.557-2.713 1.557-4.938 0-2.253-.519-3.914-1.557-4.982-1.009-1.067-2.476-1.6-4.404-1.6h-8.229c-1.928 0-3.41.533-4.448 1.6-1.009 1.068-1.513 2.729-1.513 4.982 0 2.225.504 3.87 1.513 4.938 1.038 1.068 2.52 1.601 4.448 1.601Zm24.848 4.893V22.618h19.973c2.609 0 4.507.653 5.693 1.957 1.216 1.276 1.824 2.966 1.824 5.071v15.88h-6.45V30.402c0-1.779-.89-2.668-2.669-2.668h-11.921v17.792h-6.45Z" fill="#C3C9CB"/><defs><clipPath id="a"><path fill="#fff" transform="translate(0 4.338)" d="M0 0h54.376v54.376H0z"/></clipPath></defs></svg>