<svg width="268" height="76" fill="none" xmlns="http://www.w3.org/2000/svg"><g clip-path="url(#a)"><path d="M36.182 22.285c-1.56-.296-3.18-.473-4.74-.473-3 0-6 .532-8.881 1.595h-.06c-.42.119-.78.296-1.14.473l-.12.06c-.36.176-.78.354-1.14.53l-.12.06c-.36.177-.72.413-1.08.59-.06.06-.12.06-.18.119-.3.177-.66.354-.96.59-.06 0-.06.06-.18.119-1.32.886-2.58 1.89-3.78 3.072l-.06.059c.06-.118.06-.236.12-.295v-.06c.24-.472.42-.945.72-1.358a22.377 22.377 0 0 1 5.82-6.913c.12-.118.3-.236.42-.295.12-.06.18-.177.3-.236.06-.06.18-.119.24-.178.18-.118.3-.236.48-.354.24-.177.48-.295.72-.473.3-.236.54-.413.84-.531 2.7-1.536 5.76-2.54 9-2.895 1.68 2.067 3 4.372 3.78 6.794ZM39.242 47.985c.06-.532.06-1.064.06-1.596 0-2.954-.54-5.908-1.62-8.743v-.06c-.12-.354-.3-.708-.42-1.004-.06-.177-.18-.354-.24-.472a4.032 4.032 0 0 1-.18-.473l-.06-.118c-.06-.06-.06-.118-.12-.177v-.06c-.06-.059-.06-.177-.12-.236l-.18-.354-.06-.06c-.06-.177-.18-.295-.24-.472-.12-.177-.24-.414-.36-.59-.12-.178-.24-.355-.36-.592-.06-.059-.12-.177-.18-.295l-.06-.06-.3-.354c-.12-.118-.18-.295-.3-.413s-.18-.237-.3-.355c-.06-.059-.12-.118-.12-.177-.12-.118-.18-.236-.3-.354l-.12-.178c-.12-.118-.24-.295-.36-.413-.42-.473-.84-.886-1.26-1.359l.36.177c4.38 1.95 8.1 5.2 10.5 9.276a22.486 22.486 0 0 1 2.94 8.862c-2.1 1.654-4.5 2.895-6.96 3.722 0-.06 0-.178.06-.237.06-.177.06-.354.12-.531.06-.532.18-1.005.18-1.536 0-.178 0-.296.06-.414-.06-.118-.06-.236-.06-.354ZM32.041 46.921c0 .06-.06.118-.06.118-.06.118-.06.178-.12.237-1.98 4.312-5.28 7.975-9.42 10.339-2.7 1.536-5.76 2.54-9 2.953-1.68-2.126-3-4.43-3.84-6.853 1.56.296 3.18.473 4.74.473 3 0 6-.532 8.88-1.595.36-.118.72-.296 1.08-.473l.06-.059c.18-.059.36-.177.54-.236l.36-.178h.06l.06-.059h.06c.06-.059.18-.059.24-.118h.12c.12-.059.18-.118.24-.118s.12-.059.18-.059h.06c.12-.059.3-.177.42-.236l.06-.06s.06-.058.18-.117c.12-.06.24-.119.3-.178l.06-.059c.06 0 .12-.059.18-.118.18-.118.3-.177.48-.295.12-.119.3-.178.48-.296.12-.118.24-.177.36-.295.24-.177.42-.296.66-.473l.06-.059c.12-.059.24-.177.36-.236l.06-.06c.12-.117.3-.236.42-.354.72-.65 1.2-1.063 1.68-1.536ZM13.86 46.98c-.12-.059-.18-.059-.3-.118l-.06-.06C9.78 45.15 6.54 42.55 4.2 39.3c-.42-.591-.84-1.182-1.2-1.773a22.486 22.486 0 0 1-2.94-8.862c2.16-1.654 4.5-2.954 6.96-3.722-.3 1.536-.48 3.132-.48 4.668 0 2.954.54 5.908 1.62 8.743.66 1.714 1.5 3.309 2.52 4.845.9 1.3 1.92 2.6 3.18 3.781-.06 0-.06 0 0 0Z" fill="#DDE1E2"/><path d="M21.061 17.618a24.767 24.767 0 0 0-8.82 10.338c-.78 1.655-1.32 3.368-1.68 5.2-.3 1.536-.48 3.19-.48 4.785v.06l-.18-.355c-1.02-2.6-1.5-5.318-1.5-8.094 0-1.95.24-3.9.78-5.79.78-2.954 2.22-5.79 4.26-8.33a23.59 23.59 0 0 1 7.62 2.186ZM45.842 28.665a22.69 22.69 0 0 1-2.22 7.503 24.793 24.793 0 0 0-10.44-8.684c-.78-.355-1.62-.65-2.46-.946-.12-.059-.24-.059-.36-.118s-.24-.059-.42-.118h-.06a7.6 7.6 0 0 1-.6-.177c-.18-.06-.42-.118-.66-.177-.24-.06-.42-.119-.66-.119-.12 0-.24-.059-.36-.059h-.18c-.18-.059-.36-.059-.54-.059h-.06c-.18 0-.3-.059-.48-.059h-.24c-.12 0-.3-.059-.48-.059h-.06c-.18 0-.36-.059-.54-.059-.6-.059-1.26-.059-1.86-.059h-.06l.36-.177c2.64-1.005 5.4-1.477 8.22-1.477 1.98 0 3.96.236 5.88.768 2.82.65 5.7 2.068 8.28 4.076ZM37.442 46.39c0 1.949-.24 3.899-.78 5.79a22.072 22.072 0 0 1-4.26 8.33 23.588 23.588 0 0 1-7.62-2.187c3.84-2.54 6.9-6.085 8.82-10.28.18-.354.36-.767.48-1.122.06-.177.12-.413.24-.59a.844.844 0 0 0 .12-.414v-.06c.06-.118.06-.236.12-.354v-.059l.18-.532c.06-.177.12-.413.18-.59 0 0 0-.119.06-.178.06-.118.06-.236.12-.354v-.06c0-.058 0-.117.06-.236.06-.177.06-.354.12-.531.06-.178.06-.355.12-.591.06-.177.06-.355.06-.473.06-.295.06-.532.12-.768v-.059c0-.118.06-.295.06-.413v-.06c0-.177.06-.354.06-.531.06-.591.06-1.24.06-1.832v-.059l.18.355c1.02 2.363 1.5 5.14 1.5 7.857ZM22.981 50.643l-.36.177c-2.64 1.005-5.4 1.477-8.22 1.477-1.98 0-3.96-.236-5.88-.768-3.06-.768-5.94-2.186-8.521-4.194.3-2.659 1.08-5.2 2.22-7.504 2.58 3.782 6.24 6.795 10.44 8.685 1.68.768 3.42 1.3 5.28 1.654 1.62.355 3.301.532 5.041.473-.06 0-.06.06 0 0Z" fill="#C3C9CB"/></g><path d="M65.72 20.383h8.258l9.832 32.886h-5.498l-3.002-10.05H64.679l-2.858 10.05H56.18l9.541-32.886Zm8.451 18.622L69.74 22.877l-3.996 16.128h8.427Zm12.392-20.584h5.013v30.78l1.429 1.016v3.052h-1.38l-.049-.049v.049c-1.598 0-2.833-.323-3.705-.97-.872-.645-1.307-1.71-1.307-3.196V18.421Zm14.887 5.91c-.452 0-.88-.081-1.284-.243a3.662 3.662 0 0 1-1.041-.654 3.352 3.352 0 0 1-.702-.944 2.715 2.715 0 0 1-.267-1.187c0-.436.089-.84.267-1.21.177-.372.411-.695.702-.97a3.27 3.27 0 0 1 1.041-.629 3.427 3.427 0 0 1 1.284-.242c.452 0 .879.08 1.283.242a2.94 2.94 0 0 1 1.041.63c.307.274.549.597.727.968.177.372.266.775.266 1.211 0 .42-.089.815-.266 1.187-.178.355-.42.67-.727.944a3.422 3.422 0 0 1-2.324.896Zm-2.785 4.189h5.037V49.2l1.429 1.017v3.052h-1.381l-.048-.049v.049c-1.599 0-2.842-.323-3.73-.97-.871-.645-1.307-1.71-1.307-3.196V28.52Zm13.603 3.753h-3.173a42.57 42.57 0 0 1-.048-.581 26.366 26.366 0 0 1-.049-.63v-.799c0-.29.008-.557.025-.799.016-.258.04-.573.072-.944h3.173v-3.85l2.784-3.149h2.156v6.999h6.853c.032.161.056.355.072.58.033.227.049.445.049.655 0 .37-.04.71-.121 1.017a6.215 6.215 0 0 1-.218.799c-.097.258-.21.492-.339.702h-6.296v14.045c0 1.179.193 2.035.581 2.567.403.533 1.041.8 1.913.8.371 0 .759-.04 1.162-.122.42-.096.816-.21 1.187-.339.42-.145.847-.306 1.283-.484.323.42.573.831.751 1.235.194.404.331.767.412 1.09.097.371.153.718.169 1.041a9.07 9.07 0 0 1-1.525.823c-.501.21-1.098.396-1.792.557-.695.178-1.494.267-2.398.267-1.259 0-2.316-.162-3.172-.484-.84-.307-1.526-.767-2.059-1.38-.516-.63-.887-1.405-1.113-2.326-.226-.936-.339-2.01-.339-3.22v-14.07Zm16.871-13.876h5.207v8.137l-.242 3.705h.145c.113-.097.379-.274.799-.533a12.14 12.14 0 0 1 1.598-.823 16.058 16.058 0 0 1 2.156-.727 9.87 9.87 0 0 1 2.494-.314c1.356 0 2.551.201 3.584.605 1.049.404 1.929.985 2.64 1.744.71.742 1.243 1.638 1.598 2.688.371 1.049.557 2.227.557 3.535V53.27h-5.207V36.923c0-1.76-.355-3.052-1.065-3.875-.694-.84-1.849-1.26-3.463-1.26-.775 0-1.502.073-2.18.219-.662.129-1.251.282-1.767.46-.598.194-1.147.42-1.647.678v20.124h-5.207V18.397Zm25.857 22.74c0-2.325.282-4.327.847-6.006.565-1.68 1.356-3.06 2.373-4.141a9.114 9.114 0 0 1 3.633-2.373c1.42-.517 2.978-.776 4.673-.776 1.566 0 2.963.267 4.19.8 1.243.516 2.292 1.25 3.148 2.203.856.953 1.509 2.091 1.962 3.415.452 1.324.678 2.785.678 4.383a14.998 14.998 0 0 1-.243 2.736 12.64 12.64 0 0 1-.218 1.09l-15.885-.073c.016 1.437.169 2.632.46 3.584.29.937.718 1.68 1.283 2.228.581.55 1.308.937 2.18 1.163.871.21 1.905.315 3.099.315 1.017 0 1.93-.065 2.737-.194.807-.13 1.493-.283 2.058-.46.646-.194 1.227-.42 1.744-.678.242.565.428 1.09.557 1.574.145.484.25.904.314 1.259.065.42.113.791.146 1.114-.533.274-1.179.517-1.938.726a21.57 21.57 0 0 1-2.373.485c-.936.161-2.018.242-3.245.242-1.937 0-3.664-.218-5.182-.654-1.501-.436-2.777-1.146-3.826-2.131-1.033-1-1.824-2.3-2.373-3.899-.533-1.614-.799-3.592-.799-5.933Zm16.321-2.277v-.823c0-1.017-.129-1.913-.387-2.688-.242-.791-.581-1.453-1.017-1.986a4.318 4.318 0 0 0-1.55-1.211 4.583 4.583 0 0 0-1.937-.412c-1.017 0-1.913.138-2.688.412a4.577 4.577 0 0 0-1.962 1.26c-.517.564-.904 1.299-1.162 2.203-.259.904-.388 1.986-.388 3.245h11.091Zm8.832-7.87v-2.737h4.456l2.083 2.107.654-.387c.08-.081.314-.235.702-.46.404-.243.904-.485 1.501-.727a13.984 13.984 0 0 1 2.01-.678 9.27 9.27 0 0 1 2.301-.29c1.437 0 2.615.21 3.535.629a7.067 7.067 0 0 1 2.446 1.816c.259-.21.638-.452 1.138-.726.501-.29 1.074-.565 1.72-.824a13.684 13.684 0 0 1 2.131-.63 10.058 10.058 0 0 1 2.3-.266c1.356 0 2.591.202 3.705.606 1.13.403 2.091.985 2.882 1.743a7.527 7.527 0 0 1 1.865 2.688c.452 1.05.678 2.228.678 3.536v16.879h-5.207v-16.37c0-1.744-.468-3.036-1.404-3.875-.937-.84-2.212-1.26-3.826-1.26-.953 0-1.849.081-2.688.243-.824.145-1.437.306-1.841.484.226.517.404 1.066.533 1.647.129.58.194 1.17.194 1.768v17.363h-5.207V36.414c0-1.566-.323-2.728-.968-3.487-.646-.775-1.752-1.162-3.318-1.162-.743 0-1.437.072-2.083.218a10.69 10.69 0 0 0-1.671.46c-.549.193-1.057.411-1.525.653V53.27h-5.182V32.95l-1.914-1.961Zm41.428 10.146c0-2.325.282-4.326.847-6.005.565-1.68 1.356-3.06 2.373-4.141a9.114 9.114 0 0 1 3.633-2.373c1.42-.517 2.978-.776 4.674-.776 1.565 0 2.962.267 4.189.8 1.243.516 2.292 1.25 3.148 2.203.856.953 1.509 2.091 1.962 3.415.452 1.324.678 2.785.678 4.383a14.998 14.998 0 0 1-.243 2.736 12.64 12.64 0 0 1-.218 1.09l-15.885-.073c.016 1.437.169 2.632.46 3.584.29.937.718 1.68 1.283 2.228.581.55 1.308.937 2.18 1.163.871.21 1.905.315 3.099.315 1.017 0 1.93-.065 2.737-.194.807-.13 1.493-.283 2.058-.46.646-.194 1.227-.42 1.744-.678.242.565.428 1.09.557 1.574.145.484.25.904.315 1.259.064.42.113.791.145 1.114-.533.274-1.179.517-1.937.726-.646.178-1.437.34-2.374.485-.936.161-2.018.242-3.245.242-1.937 0-3.664-.218-5.182-.654-1.501-.436-2.777-1.146-3.826-2.131-1.033-1-1.824-2.3-2.373-3.899-.533-1.614-.799-3.592-.799-5.933Zm16.321-2.276v-.823c0-1.017-.129-1.913-.387-2.688-.242-.791-.581-1.453-1.017-1.986a4.318 4.318 0 0 0-1.55-1.211 4.583 4.583 0 0 0-1.937-.412c-1.017 0-1.913.138-2.688.412a4.577 4.577 0 0 0-1.962 1.26c-.516.564-.904 1.299-1.162 2.203-.259.904-.388 1.986-.388 3.245h11.091Zm9.147 13.295c0-.372.033-.775.097-1.211.049-.372.121-.791.218-1.26.113-.484.275-.984.484-1.5a22.54 22.54 0 0 0 2.228.726c.662.177 1.381.347 2.156.508.774.145 1.541.218 2.3.218.678 0 1.308-.024 1.889-.073.581-.048 1.082-.177 1.501-.387a2.41 2.41 0 0 0 1.017-.993c.243-.452.364-1.073.364-1.864 0-.953-.299-1.704-.896-2.253-.582-.549-1.599-.96-3.052-1.235-1.501-.29-2.768-.678-3.802-1.162-1.017-.484-1.848-1.041-2.494-1.67a6.067 6.067 0 0 1-1.38-2.156 7.69 7.69 0 0 1-.412-2.543c0-1.356.218-2.51.654-3.463a5.623 5.623 0 0 1 1.889-2.3c.839-.598 1.873-1.025 3.1-1.284 1.243-.274 2.663-.412 4.262-.412 1.114 0 2.098.081 2.954.243.872.145 1.598.306 2.179.484.679.21 1.268.452 1.768.726a7.336 7.336 0 0 1-.266 1.163c-.113.355-.267.759-.46 1.21-.178.453-.42.913-.727 1.381a8.082 8.082 0 0 0-1.501-.678 11.21 11.21 0 0 0-1.744-.46c-.678-.145-1.453-.218-2.324-.218-.679 0-1.308.032-1.889.097-.565.064-1.058.21-1.478.436-.403.226-.718.573-.944 1.041-.226.452-.339 1.074-.339 1.865 0 .387.048.742.145 1.065.113.307.323.59.63.848.323.258.767.5 1.332.726.581.21 1.348.42 2.3.63 1.486.323 2.721.694 3.705 1.114 1.001.42 1.792.928 2.374 1.525a4.946 4.946 0 0 1 1.259 2.107c.258.791.387 1.736.387 2.834 0 1.178-.185 2.244-.557 3.196a6.092 6.092 0 0 1-1.743 2.446c-.791.678-1.808 1.203-3.051 1.574-1.244.371-2.745.557-4.505.557-1.13 0-2.163-.08-3.099-.242a19.689 19.689 0 0 1-2.398-.557 13.075 13.075 0 0 1-2.131-.8Z" fill="#C3C9CB"/><defs><clipPath id="a"><path fill="#fff" transform="translate(0 15.432)" d="M0 0h45.842v45.137H0z"/></clipPath></defs></svg>