<svg width="148" height="45" fill="none" xmlns="http://www.w3.org/2000/svg"><g clip-path="url(#a)"><path d="M147.499 39.656v.096c-.049 2.132-1.727 3.814-3.761 3.814H4.268C2.202 43.566.5 41.832.5 39.656V4.483C.5 2.307 2.204.566 4.267.566h139.47c2.064 0 3.762 1.74 3.762 3.917v35.173Z" stroke="#E1E1E1"/><path fill-rule="evenodd" clip-rule="evenodd" d="M32.98 21.724c-.031-3.529 2.89-5.245 3.023-5.326-1.654-2.412-4.218-2.741-5.119-2.766-2.153-.227-4.242 1.288-5.339 1.288-1.118 0-2.809-1.267-4.628-1.23-2.341.037-4.534 1.393-5.736 3.5-2.48 4.294-.63 10.604 1.746 14.076 1.189 1.7 2.578 3.598 4.395 3.531 1.779-.074 2.443-1.135 4.591-1.135 2.127 0 2.751 1.135 4.605 1.093 1.91-.032 3.111-1.708 4.259-3.424 1.374-1.95 1.925-3.868 1.947-3.967-.045-.014-3.707-1.412-3.744-5.64ZM29.477 11.348c.956-1.196 1.61-2.824 1.429-4.476-1.385.061-3.117.957-4.113 2.128-.882 1.031-1.67 2.721-1.467 4.31 1.556.117 3.153-.784 4.151-1.962ZM54.466 28.479l-1.232-3.803c-.13-.39-.374-1.305-.736-2.746h-.042c-.144.621-.375 1.535-.692 2.746l-1.21 3.803h3.912Zm4.258 6.074h-2.486l-1.362-4.279h-4.732l-1.297 4.279h-2.42l4.689-14.568h2.896l4.712 14.568ZM68.406 29.257c0-1.022-.23-1.865-.692-2.529-.504-.69-1.18-1.038-2.031-1.038-.576 0-1.1.193-1.567.574a2.648 2.648 0 0 0-.918 1.503 3.045 3.045 0 0 0-.109.712v1.751c0 .764.235 1.409.703 1.934.469.527 1.077.79 1.826.79.88 0 1.564-.34 2.054-1.016.489-.678.734-1.571.734-2.681Zm2.378-.085c0 1.786-.483 3.198-1.448 4.235-.865.923-1.938 1.384-3.22 1.384-1.383 0-2.377-.497-2.983-1.492h-.044v5.533h-2.334V27.507c0-1.123-.029-2.276-.086-3.459h2.053l.13 1.666h.044c.777-1.255 1.96-1.881 3.543-1.881 1.24 0 2.274.49 3.102 1.469.83.98 1.243 2.27 1.243 3.87ZM80.488 29.257c0-1.022-.23-1.865-.692-2.529-.504-.69-1.18-1.038-2.031-1.038-.577 0-1.1.193-1.568.574a2.658 2.658 0 0 0-.917 1.503 3.11 3.11 0 0 0-.109.712v1.751c0 .764.235 1.409.7 1.934.47.527 1.08.79 1.829.79.88 0 1.563-.34 2.052-1.016.491-.678.736-1.571.736-2.681Zm2.378-.085c0 1.786-.483 3.198-1.45 4.235-.863.923-1.937 1.384-3.219 1.384-1.384 0-2.378-.497-2.982-1.492h-.044v5.533h-2.334V27.507c0-1.123-.03-2.276-.086-3.459h2.054l.129 1.666h.044c.777-1.255 1.957-1.881 3.543-1.881 1.238 0 2.274.49 3.102 1.469.828.98 1.243 2.27 1.243 3.87ZM96.374 30.469c0 1.238-.43 2.246-1.294 3.024-.949.852-2.27 1.276-3.968 1.276-1.566 0-2.824-.302-3.776-.908l.541-1.945c1.025.62 2.149.93 3.374.93.879 0 1.563-.199 2.055-.596.49-.396.733-.927.733-1.592 0-.591-.2-1.09-.605-1.493-.402-.404-1.073-.78-2.009-1.126-2.55-.952-3.826-2.345-3.826-4.179 0-1.196.448-2.178 1.341-2.943.891-.766 2.08-1.148 3.567-1.148 1.325 0 2.426.23 3.304.691l-.583 1.903c-.821-.447-1.75-.67-2.788-.67-.821 0-1.463.201-1.922.605-.39.36-.584.8-.584 1.32 0 .575.222 1.051.67 1.425.389.347 1.095.72 2.118 1.125 1.254.504 2.174 1.095 2.767 1.771.59.678.885 1.522.885 2.53ZM104.09 25.8h-2.572v5.1c0 1.297.453 1.945 1.362 1.945.417 0 .764-.036 1.037-.107l.064 1.772c-.46.172-1.064.259-1.815.259-.922 0-1.642-.282-2.162-.842-.517-.563-.779-1.507-.779-2.832V25.8h-1.532v-1.752h1.532v-1.923l2.293-.692v2.615h2.572V25.8ZM113.276 29.29c0-.968-.208-1.799-.627-2.493-.49-.838-1.189-1.256-2.095-1.256-.939 0-1.651.418-2.14 1.256-.42.694-.627 1.538-.627 2.537 0 .968.207 1.8.627 2.492.504.838 1.21 1.257 2.119 1.257.891 0 1.59-.426 2.095-1.279.431-.707.648-1.546.648-2.514Zm2.421-.076c0 1.615-.46 2.94-1.382 3.977-.967 1.066-2.25 1.6-3.849 1.6-1.541 0-2.768-.512-3.684-1.535-.915-1.023-1.372-2.313-1.372-3.869 0-1.628.47-2.96 1.415-3.997.943-1.038 2.215-1.557 3.814-1.557 1.542 0 2.782.511 3.719 1.535.893.994 1.339 2.275 1.339 3.846ZM123.283 26.101a4.042 4.042 0 0 0-.735-.063c-.821 0-1.456.31-1.903.929-.39.547-.583 1.24-.583 2.074v5.512h-2.333l.021-7.196c0-1.212-.03-2.314-.088-3.308h2.034l.085 2.01h.064c.246-.691.636-1.248 1.168-1.664a2.821 2.821 0 0 1 1.687-.562c.216 0 .41.015.583.043V26.1ZM131.496 28.198c.015-.692-.137-1.288-.453-1.794-.404-.648-1.025-.972-1.86-.972-.763 0-1.384.317-1.858.951-.39.505-.621 1.11-.691 1.815h4.862Zm2.225.606c0 .418-.027.77-.085 1.058h-7.002c.028 1.038.366 1.832 1.015 2.379.59.49 1.354.734 2.29.734 1.037 0 1.983-.166 2.833-.498l.366 1.622c-.994.432-2.168.649-3.522.649-1.629 0-2.907-.48-3.838-1.439-.927-.957-1.393-2.244-1.393-3.857 0-1.585.431-2.904 1.298-3.955.907-1.125 2.131-1.686 3.673-1.686 1.514 0 2.66.561 3.438 1.686.618.893.927 1.996.927 3.307ZM52.484 11.055c0-.835-.22-1.476-.664-1.922-.443-.446-1.088-.67-1.938-.67-.361 0-.67.026-.924.075v5.352c.142.022.4.032.775.032.878 0 1.556-.244 2.034-.733.477-.488.717-1.2.717-2.134Zm1.21-.032c0 1.288-.386 2.258-1.157 2.91-.716.6-1.73.902-3.048.902-.651 0-1.21-.029-1.678-.085V7.71a12.39 12.39 0 0 1 1.976-.148c1.252 0 2.198.272 2.835.817.714.616 1.072 1.497 1.072 2.644ZM58.918 12.186c0-.476-.103-.884-.31-1.224-.239-.413-.583-.619-1.028-.619-.46 0-.811.206-1.052.619-.205.34-.308.755-.308 1.244 0 .477.103.885.308 1.226.248.411.594.617 1.041.617.439 0 .782-.21 1.03-.627.212-.349.319-.76.319-1.236Zm1.19-.038c0 .794-.227 1.444-.68 1.954-.475.525-1.105.786-1.89.786-.758 0-1.361-.25-1.811-.754-.45-.502-.675-1.136-.675-1.9 0-.8.231-1.455.695-1.965.465-.51 1.089-.764 1.874-.764.76 0 1.367.252 1.828.754.437.488.659 1.119.659 1.89ZM68.707 9.61l-1.615 5.161h-1.05l-.67-2.24c-.169-.56-.307-1.115-.414-1.668h-.02c-.1.567-.237 1.123-.415 1.667l-.711 2.241H62.75l-1.519-5.16h1.18l.583 2.452c.141.581.258 1.133.351 1.657h.02c.085-.431.227-.98.426-1.646l.732-2.463h.934l.702 2.41c.17.588.307 1.154.413 1.7h.032c.078-.532.195-1.098.352-1.7l.626-2.41h1.125ZM74.655 14.771h-1.148v-2.955c0-.911-.346-1.367-1.04-1.367-.34 0-.616.126-.828.377-.213.25-.319.545-.319.884v3.061h-1.147v-3.684c0-.454-.014-.945-.042-1.476h1.009l.053.807h.032a1.65 1.65 0 0 1 .594-.623 1.93 1.93 0 0 1 1.04-.29c.482 0 .883.155 1.201.467.397.382.595.952.595 1.709v3.09ZM76.672 14.771h1.146V7.243h-1.146v7.528ZM83.381 12.186c0-.476-.103-.884-.307-1.224-.24-.413-.585-.619-1.03-.619-.461 0-.812.206-1.051.619-.205.34-.308.755-.308 1.244 0 .477.103.885.308 1.226.248.411.594.617 1.04.617.44 0 .781-.21 1.03-.627.213-.349.318-.76.318-1.236Zm1.191-.038c0 .794-.226 1.444-.68 1.954-.475.525-1.105.786-1.89.786-.759 0-1.362-.25-1.81-.754-.45-.502-.674-1.136-.674-1.9 0-.8.231-1.455.694-1.965.464-.51 1.09-.764 1.873-.764.76 0 1.366.252 1.828.754.44.488.66 1.119.66 1.89ZM88.934 12.998v-.796c-1.266-.022-1.898.325-1.898 1.04 0 .27.072.47.22.605a.802.802 0 0 0 .56.202c.252 0 .487-.08.7-.239a.972.972 0 0 0 .418-.812Zm1.19 1.773h-1.03l-.086-.594h-.032c-.352.474-.855.711-1.507.711-.487 0-.88-.155-1.178-.467a1.467 1.467 0 0 1-.404-1.05c0-.632.263-1.112.792-1.446.527-.332 1.27-.495 2.225-.488v-.095c0-.68-.357-1.02-1.072-1.02-.508 0-.957.128-1.344.383l-.233-.755c.479-.296 1.07-.445 1.77-.445 1.349 0 2.025.711 2.025 2.134v1.9c0 .517.026.928.075 1.232ZM95.455 12.595v-.86a1.307 1.307 0 0 0-.447-1.056 1.122 1.122 0 0 0-.767-.282c-.428 0-.763.17-1.01.509-.244.34-.367.775-.367 1.306 0 .51.117.924.352 1.242.248.34.583.51 1.003.51.376 0 .677-.142.906-.424.221-.262.33-.577.33-.945Zm1.188 2.176h-1.018l-.052-.829h-.033c-.325.631-.878.946-1.656.946-.623 0-1.14-.244-1.55-.732-.41-.49-.617-1.122-.617-1.902 0-.835.223-1.511.67-2.027.432-.482.961-.722 1.593-.722.692 0 1.178.233 1.454.7h.02V7.243h1.149v6.138c0 .502.013.965.04 1.39ZM105.266 12.186c0-.476-.103-.884-.307-1.224-.242-.413-.584-.619-1.032-.619-.458 0-.81.206-1.052.619-.204.34-.307.755-.307 1.244 0 .477.103.885.307 1.226.249.411.595.617 1.043.617.437 0 .782-.21 1.03-.627.211-.349.318-.76.318-1.236Zm1.189-.038c0 .794-.227 1.444-.68 1.954-.475.525-1.103.786-1.89.786-.757 0-1.36-.25-1.811-.754-.449-.502-.673-1.136-.673-1.9 0-.8.231-1.455.695-1.965.463-.51 1.088-.764 1.875-.764.757 0 1.366.252 1.825.754.439.488.659 1.119.659 1.89ZM112.623 14.771h-1.146v-2.955c0-.911-.346-1.367-1.041-1.367-.34 0-.616.126-.828.377-.211.25-.318.545-.318.884v3.061h-1.148v-3.684c0-.454-.013-.945-.041-1.476h1.007l.054.807h.032c.134-.251.333-.459.594-.623.312-.194.659-.29 1.041-.29.482 0 .881.155 1.2.467.397.382.594.952.594 1.709v3.09ZM120.344 10.47h-1.264v2.507c0 .637.224.955.67.955.204 0 .375-.017.51-.053l.031.871c-.227.085-.525.127-.893.127-.453 0-.805-.138-1.059-.414-.258-.277-.383-.74-.383-1.39V10.47h-.756v-.86h.756v-.945l1.124-.34v1.286h1.264v.859ZM126.418 14.771h-1.148v-2.934c0-.925-.347-1.388-1.04-1.388-.532 0-.895.268-1.094.806-.034.113-.053.25-.053.413v3.103h-1.146V7.243h1.146v3.11h.021c.361-.566.879-.848 1.55-.848.475 0 .868.155 1.18.467.39.389.584.967.584 1.73v3.07ZM131.588 11.65a1.548 1.548 0 0 0-.223-.882c-.199-.319-.502-.477-.913-.477a1.09 1.09 0 0 0-.913.467c-.19.247-.303.545-.34.891h2.389Zm1.094.297c0 .206-.015.379-.042.52h-3.441c.015.51.18.899.498 1.168.291.24.668.361 1.128.361.509 0 .972-.081 1.391-.244l.179.796c-.489.212-1.064.32-1.731.32-.799 0-1.428-.236-1.883-.708-.458-.47-.684-1.102-.684-1.895 0-.778.211-1.426.637-1.943.444-.552 1.045-.828 1.804-.828.742 0 1.306.276 1.687.828.305.44.457.981.457 1.625Z" fill="#fff"/></g><defs><clipPath id="a"><path fill="#fff" transform="translate(0 .066)" d="M0 0h148v44H0z"/></clipPath></defs></svg>