<svg width="27" height="27" fill="none" xmlns="http://www.w3.org/2000/svg"><g clip-path="url(#a)"><path d="M2.89 7.2H.777v5.285h.01L.777 22a2.12 2.12 0 0 0 2.115 2.114h19.028V22H2.891V7.2Zm21.143-2.115h-8.457l-2.114-2.114H7.119a2.111 2.111 0 0 0-2.104 2.114l-.01 12.686a2.12 2.12 0 0 0 2.114 2.114h16.914a2.12 2.12 0 0 0 2.115-2.114V7.2a2.12 2.12 0 0 0-2.115-2.115ZM8.176 16.714l4.757-6.343 3.7 4.768 2.643-3.182 3.7 4.757h-14.8Z" fill="#006D77"/></g><defs><clipPath id="a"><path fill="#fff" transform="translate(.776 .857)" d="M0 0h25.371v25.371H0z"/></clipPath></defs></svg>