<svg width="268" height="69" fill="none" xmlns="http://www.w3.org/2000/svg"><g clip-path="url(#a)"><path d="M19.254 11.579c-1.905 8.322-8.464 14.81-16.715 16.715C1.058 28.646 0 29.916 0 31.397v6.206c0 1.975 1.763 3.456 3.738 3.103 5.007-.917 9.591-2.891 13.611-5.642 3.386-2.327 6.277-5.29 8.675-8.674a34.522 34.522 0 0 0 5.995-16.08c.07-.706-.423-1.27-1.128-1.27h-8.534c-1.481 0-2.75 1.058-3.103 2.539Z" fill="#C3C9CB"/><path d="M26.024 42.61c-2.327-3.385-5.29-6.276-8.675-8.674-4.02-2.821-8.604-4.796-13.611-5.642C1.763 27.94 0 29.422 0 31.397v6.206c0 1.481 1.058 2.75 2.539 3.103 8.322 1.905 14.881 8.464 16.715 16.715.352 1.481 1.622 2.54 3.103 2.54h8.534c.634 0 1.199-.565 1.128-1.27a34.522 34.522 0 0 0-5.995-16.08Z" fill="#DDE1E2"/><path d="M35.334 58.69c-.07.635.423 1.27 1.128 1.27h8.534c1.48 0 2.75-1.058 3.103-2.539 1.904-8.322 8.463-14.81 16.715-16.715 1.48-.352 2.539-1.622 2.539-3.103v-6.206c0-1.975-1.763-3.456-3.738-3.103-5.008.917-9.592 2.891-13.612 5.642-3.385 2.327-6.277 5.29-8.675 8.675a34.522 34.522 0 0 0-5.994 16.08Z" fill="#C3C9CB"/><path d="M44.996 9.04h-8.534c-.705 0-1.199.564-1.128 1.27a34.522 34.522 0 0 0 5.994 16.08c2.328 3.385 5.29 6.276 8.675 8.674 4.02 2.821 8.604 4.796 13.612 5.642 1.974.353 3.738-1.128 3.738-3.103v-6.206c0-1.481-1.058-2.75-2.54-3.103-8.321-1.904-14.81-8.463-16.714-16.715-.353-1.481-1.622-2.539-3.103-2.539Z" fill="#DDE1E2"/></g><path d="M101.836 44.255c.628 0 1.091.248 1.389.744.331.463.496.975.496 1.537 0 .695-.116 1.19-.347 1.488-.199.265-.595.546-1.191.843-1.388.662-3.108 1.19-5.157 1.588-2.05.396-4.249.595-6.596.595-2.943 0-5.109-.496-6.497-1.488-1.356-.992-2.2-2.182-2.53-3.571-.297-1.422-.446-3.273-.446-5.555 0-2.446.1-4.843.297-7.19.199-2.382.546-5.407 1.042-9.077.231-1.587.86-2.727 1.884-3.422 1.025-.727 2.15-1.09 3.373-1.09 1.025 0 2.695-.034 5.009-.1l4.315-.05c1.785 0 3.075.05 3.868.15.992.198 1.719.429 2.182.693.496.232.744.645.744 1.24 0 .662-.231 1.306-.694 1.934-.43.629-1.091.943-1.984.943-1.025 0-2.496-.066-4.414-.199-1.917-.132-3.356-.198-4.314-.198-.827 0-1.637.05-2.43.149-.926.066-1.588.182-1.984.347-.397.165-.629.446-.695.843-.463 3.406-.694 5.918-.694 7.538.76.1 1.504.15 2.232.15.925 0 1.917-.05 2.975-.15 1.058-.099 1.736-.165 2.034-.198 1.752-.165 3.257-.248 4.513-.248.727 0 1.273.132 1.637.397.396.264.595.628.595 1.091 0 .727-.199 1.29-.595 1.686-.364.397-1.025.695-1.984.893-1.157.231-2.596.413-4.315.546a63.45 63.45 0 0 1-4.96.198c-.562 0-1.339-.033-2.33-.1-.1 2.017-.15 3.886-.15 5.605 0 2.347 1.555 3.521 4.663 3.521 1.653 0 3.025-.116 4.116-.347a46.742 46.742 0 0 0 3.77-.992c1.322-.496 2.38-.744 3.173-.744Zm17.031-6c.099-.265.446-1.224 1.041-2.877.628-1.654 1.207-2.91 1.736-3.77.86-1.355 1.62-2.033 2.281-2.033.926 0 1.637.182 2.133.546.496.33.744.81.744 1.438 0 .297-.132.71-.397 1.24-.231.529-.364.843-.397.942-1.322 2.91-2.512 6.034-3.571 9.373l-1.041 3.869c-.397 1.256-1.075 2.281-2.033 3.075-.959.76-2.083 1.14-3.373 1.14-1.157 0-2.232-.529-3.223-1.587-.596-.925-1.224-2.1-1.885-3.52a51.628 51.628 0 0 1-1.637-4.167l-1.736-5.207a86.8 86.8 0 0 1-.892-2.629c-.199-.727-.298-1.389-.298-1.984-.033-.694.165-1.256.595-1.686.43-.43 1.025-.645 1.786-.645.859 0 1.471.182 1.835.546.363.33.694.86.992 1.587.132.76.496 2.314 1.091 4.662l.347 1.389a29.523 29.523 0 0 0 1.141 3.422 110.47 110.47 0 0 0 1.388 3.323c-.066-.166.166.38.695 1.636.33-.959.71-2.133 1.14-3.521l1.538-4.563Zm33.743 10.364c0 .728-.397 1.34-1.19 1.836-.761.495-1.471.743-2.133.743-1.256 0-2.265-.148-3.025-.446-.727-.33-1.405-.926-2.033-1.785-.86.76-2.034 1.339-3.522 1.735-1.487.364-2.86.546-4.116.546-2.05 0-3.736-.546-5.059-1.637-1.322-1.124-1.983-2.76-1.983-4.91 0-.925.248-1.768.743-2.529.496-.793 1.174-1.488 2.034-2.083.959-.628 2.05-1.108 3.273-1.438a13.327 13.327 0 0 1 3.819-.546c.694 0 1.521.133 2.48.397.958.265 1.702.546 2.231.843v-.793c0-1.786-.429-3.009-1.289-3.67-.86-.695-2.248-1.042-4.166-1.042-.562 0-1.124.116-1.686.347a19.65 19.65 0 0 0-1.835.943c-.926.496-1.802.744-2.629.744-.297 0-.578-.199-.843-.596-.264-.43-.397-.81-.397-1.14 0-.96.447-1.786 1.339-2.48.926-.694 2.017-1.207 3.274-1.537 1.256-.364 2.38-.546 3.372-.546s2.133.198 3.422.595c1.29.364 2.348.876 3.174 1.538a8.825 8.825 0 0 1 2.282 3.025c.562 1.124.843 2.364.843 3.72 0 .43-.033 1.074-.099 1.934-.067.925-.1 1.719-.1 2.38 0 .298-.033.744-.099 1.34a20.248 20.248 0 0 0-.099 1.735c0 .397.149.744.446 1.042a1.52 1.52 0 0 0 1.042.396l1.388-.05c.364 0 .645.133.844.398.198.264.297.595.297.991Zm-15.969-1.289c1.421 0 2.612-.149 3.57-.446.959-.298 2.116-.843 3.472-1.637.132-.562.215-1.306.248-2.232-1.818-.86-3.323-1.29-4.513-1.29-1.356 0-2.562.249-3.621.745-1.058.496-1.587 1.372-1.587 2.628 0 .628.265 1.157.794 1.587.529.43 1.075.645 1.637.645Zm19.434-13.738c-.86-.595-1.29-1.223-1.29-1.884 0-.463.199-.893.595-1.29.397-.397.992-.595 1.786-.595.926 0 1.752.248 2.48.744.76.463 1.289 1.14 1.587 2.033a9.245 9.245 0 0 1 2.579-2.132c.991-.53 2-.794 3.025-.794a5.86 5.86 0 0 1 3.323.992c.992.661 1.488 1.554 1.488 2.678 0 .628-.281 1.273-.844 1.934-.529.662-1.074.992-1.636.992-.298 0-.562-.066-.794-.198a11.98 11.98 0 0 1-.744-.694c-.33-.331-.611-.562-.843-.695a1.33 1.33 0 0 0-.793-.248c-.529 0-1.025.083-1.488.248-.463.166-.777.364-.942.595-.529.827-.926 1.57-1.191 2.232a6.422 6.422 0 0 0-.347 2.133c0 .562-.016 1.008-.049 1.339l-.05 2.827c0 .43.017.909.05 1.438.033.529.066.926.099 1.19.099.893.149 1.753.149 2.58 0 .561-.215 1.057-.645 1.487-.43.43-.959.645-1.587.645-.992 0-1.72-.182-2.182-.546-.463-.397-.695-1.107-.695-2.132l-.049-3.174c-.033-.629-.05-1.521-.05-2.678l.05-3.274c.066-1.587.099-2.876.099-3.868 0-.364-.083-.694-.248-.992-.132-.298-.413-.595-.843-.893Zm37.311 17.606c-1.124 0-1.983-.165-2.579-.496-.595-.363-1.239-1.024-1.934-1.983-.859.76-2.149 1.372-3.868 1.835-1.686.462-3.141.694-4.365.694-2.016 0-3.653-.546-4.909-1.637-1.224-1.124-1.835-2.76-1.835-4.91 0-.925.248-1.768.744-2.529a8.092 8.092 0 0 1 2.033-2.083c.926-.628 2.017-1.124 3.273-1.488 1.29-.363 2.463-.545 3.521-.545 1.786 0 3.373.165 4.761.496v-.05c0-1.785-.446-3.009-1.339-3.67-.859-.694-2.248-1.041-4.166-1.041-1.223 0-2.281.545-3.174 1.636-.33.43-1.025.645-2.083.645-.529 0-.925-.215-1.19-.645a3.087 3.087 0 0 1-.347-1.388c0-.96.397-1.786 1.19-2.48.827-.695 1.819-1.207 2.976-1.538 1.157-.363 2.232-.545 3.224-.545.958 0 2.099.198 3.422.595 1.322.397 2.397.926 3.223 1.587a8.825 8.825 0 0 1 2.282 3.025c.562 1.124.843 2.364.843 3.72 0 .43-.033 1.075-.099 1.934-.067.992-.1 1.802-.1 2.43 0 .298-.033.678-.099 1.14a13.934 13.934 0 0 0-.099 1.489c0 .43.132.843.397 1.24a3.17 3.17 0 0 0 1.091.992c.43.231.711.479.843.743.132.265.198.563.198.893 0 .33-.215.744-.644 1.24-.397.463-.794.694-1.191.694Zm-9.919-9.472c-1.289 0-2.43.248-3.422.744s-1.487 1.372-1.487 2.628c0 .628.214 1.157.644 1.587.463.43.959.645 1.488.645 1.422 0 2.612-.149 3.571-.446.959-.298 2.116-.843 3.472-1.637.165-.529.264-1.273.297-2.232 0-.364.017-.645.05-.843-1.786-.297-3.323-.446-4.613-.446Z" fill="#C3C9CB"/><defs><clipPath id="a"><path fill="#fff" transform="translate(0 9.04)" d="M0 0h67.353v50.92H0z"/></clipPath></defs></svg>