<svg width="268" height="69" fill="none" xmlns="http://www.w3.org/2000/svg"><g clip-path="url(#a)"><path d="m23.344 47.195-.635-1.552a8.21 8.21 0 0 0-4.725-4.725l-1.551-.635-.635-.282-3.597-1.41-.776-.283-3.738-1.48-3.032-1.2c-.494-.211-.776-.564-.776-1.128 0-.494.282-.917.776-1.129l3.032-1.199 3.738-1.48.776-.283-1.481-3.455-.07-.142-3.597 1.411-4.232 1.693c-1.058.423-1.763.987-2.186 1.763C.212 32.384 0 33.37 0 34.499c0 1.13.212 2.117.635 2.892.423.776 1.128 1.34 2.186 1.693l4.232 1.693 3.596 1.41.142.07 3.455 1.34 1.2-2.75-1.2 2.75.776.283a8.21 8.21 0 0 1 4.725 4.725l.282.776 3.597-1.552-.282-.634Z" fill="#DDE1E2"/><path d="m50.99 49.875-1.833-4.161-1.552-3.527-.07-.14-1.481-3.457-1.552.635 1.552-.635-.353-.705a8.504 8.504 0 0 1 0-6.7l.353-.705-3.668-1.41-.282.634-.635 1.552a8.504 8.504 0 0 0 0 6.7l.635 1.551.282.635 1.552 3.597 1.622-.635-1.622.635.352.776 1.623 3.667 1.34 3.033c.211.493.14.916-.282 1.27-.353.352-.776.422-1.27.281l-3.033-1.34-3.667-1.622-.776-.353-1.34 3.456-.07.141L40.34 54.6l4.161 1.834c.987.423 1.975.564 2.75.352.847-.211 1.623-.776 2.47-1.551.845-.847 1.339-1.623 1.55-2.469.283-.987.142-1.904-.282-2.891Z" fill="#C3C9CB"/><path d="m35.404 12.425-1.692-4.231c-.424-1.058-.988-1.764-1.693-2.187-.776-.423-1.693-.634-2.892-.634-1.128 0-2.115.211-2.891.634-.776.423-1.34 1.129-1.693 2.187l-1.692 4.231-1.411 3.597.141.07 2.257.988-2.257-.987-.141-.071-.07.141-1.34 3.456-.283.776a8.21 8.21 0 0 1-4.725 4.725l-.776.282 1.552 3.597.635-.282 1.551-.635a8.21 8.21 0 0 0 4.725-4.725l.635-1.552.282-.634-.987-.424.987.424 1.41-3.668.283-.776L26.8 12.99l1.199-3.032c.212-.494.564-.776 1.128-.776h.07c.495 0 .918.282 1.13.776l1.198 3.032 1.481 3.738.282.776 3.456-1.481.141-.07-1.48-3.527Z" fill="#DDE1E2"/><path d="M51.273 16.375c-.212-.847-.776-1.623-1.552-2.469-.846-.846-1.622-1.34-2.468-1.551-.847-.212-1.764-.141-2.75.352l-4.162 1.834-3.526 1.552h-.141l-3.456 1.48-.776.283a8.504 8.504 0 0 1-6.7 0l-.776-.353-1.41 3.667.634.282 1.552.635a8.504 8.504 0 0 0 6.7 0l1.552-.634.634-.283-.282-.634.282.634 3.597-1.551-1.34-3.456v-.07.07l1.34 3.456.776-.353 3.667-1.622 3.033-1.34c.494-.211.917-.14 1.27.282.352.353.423.776.282 1.27l-1.34 3.032-1.622 3.668-.353.775 3.456 1.34.14.071 1.552-3.526 1.834-4.161c.494-.917.635-1.834.353-2.68Z" fill="#C3C9CB"/><path d="M57.62 31.608c-.423-.775-1.128-1.34-2.186-1.763l-4.232-1.692-3.597-1.41-.07.07.07-.07-.14-.071-3.457-1.34-.775-.212a8.21 8.21 0 0 1-4.726-4.725l-.282-.776-3.597 1.552.282.634.635 1.552a8.21 8.21 0 0 0 4.725 4.725l1.552.635.635.282 3.597 1.41.916-2.045-.916 2.045.776.283 3.737 1.48 3.033 1.2c.494.211.776.564.776 1.128 0 .494-.282.846-.776 1.128l-3.033 1.2-3.737 1.48-.776.282 1.48 3.456.071.141 3.597-1.41 4.232-1.693c1.058-.423 1.763-.987 2.186-1.693.423-.775.635-1.692.635-2.891 0-1.129-.212-2.116-.635-2.892Z" fill="#DDE1E2"/><path d="m33.994 47.547-1.552-.705a8.504 8.504 0 0 0-6.7 0l-1.552.705-.634.282-3.597 1.552-.776.353-3.667 1.622-2.892 1.27c-.494.21-.917.14-1.27-.283-.352-.353-.422-.776-.281-1.27l1.34-3.032 1.622-3.667.352-.776-3.455-1.34-.142-.07-1.551 3.526-1.834 4.16c-.423.988-.564 1.975-.352 2.751.211.846.775 1.622 1.551 2.469.847.846 1.622 1.34 2.469 1.551.846.212 1.763.141 2.75-.353l4.161-1.833 3.526-1.552.142-.07 3.455-1.481-.846-2.187.846 2.187.706-.353a8.504 8.504 0 0 1 6.7 0l.775.353 1.41-3.597-.704-.212ZM17.914 14.47l-4.161-1.833c-.988-.424-1.975-.565-2.75-.353-.847.212-1.623.776-2.47 1.552-.846.846-1.34 1.622-1.55 2.468-.212.846-.142 1.763.352 2.75l1.833 4.162 1.552 3.526.07.14 1.482 3.457 1.763-.706-1.763.706.352.776a8.504 8.504 0 0 1 0 6.7l-.352.705 3.596 1.41.283-.634.634-1.552a8.504 8.504 0 0 0 0-6.7l-.705-1.552-.282-.634-1.552-3.597-.352-.776-1.622-3.667-1.34-3.033c-.212-.494-.142-.917.282-1.27.352-.352.775-.423 1.27-.282l3.032 1.34 3.667 1.623.776.352 1.34-3.456.07-.14-3.455-1.482Z" fill="#C3C9CB"/><path d="m42.457 40.001-.635.282-1.552.635a8.21 8.21 0 0 0-4.725 4.725l-.635 1.552-.282.634-1.41 3.597-.282.776-1.481 3.738-1.2 3.033c-.21.493-.563.775-1.128.775-.493 0-.916-.282-1.128-.775L26.8 55.94l-1.481-3.738-.282-.776-3.456 1.481-.141.07 1.41 3.598 1.693 4.231c.423 1.058.988 1.763 1.693 2.187.776.423 1.692.634 2.891.634 1.129 0 2.116-.211 2.892-.634.776-.424 1.34-1.129 1.693-2.187l1.692-4.231 1.41-3.597h-.07.07l.071-.141 1.34-3.456-1.904-.846 1.904.846.282-.776a8.21 8.21 0 0 1 4.726-4.725l.775-.282L42.457 40Z" fill="#DDE1E2"/></g><path d="M72.305 52V17.978h19.64v3.967H76.67v11.01h13.49v3.968H76.67V52h-4.365Zm24.964 0V25.913h4.067V52h-4.067Zm-.1-31.145v-4.712h4.216v4.712H97.17Zm14.825 40.171c-2.116 0-3.719-.611-4.81-1.835-1.091-1.19-1.637-2.645-1.637-4.364 0-1.256.298-2.397.893-3.422.628-1.025 1.454-1.736 2.479-2.133a4.855 4.855 0 0 1-1.587-1.686 4.947 4.947 0 0 1-.545-2.232c0-1.058.331-1.967.992-2.727.694-.794 1.587-1.39 2.678-1.786a8.557 8.557 0 0 1-2.232-2.827c-.529-1.157-.793-2.463-.793-3.918 0-2.744.76-4.893 2.281-6.447 1.521-1.554 3.604-2.331 6.249-2.331 1.356 0 2.612.314 3.769.942 1.157-.628 1.951-1.339 2.381-2.132a7.619 7.619 0 0 0 .843-2.43h3.571c0 1.553-.397 2.893-1.191 4.017-.76 1.124-1.818 1.868-3.174 2.232.728.727 1.29 1.62 1.686 2.678.43 1.025.645 2.182.645 3.471 0 2.712-.76 4.844-2.281 6.398-1.488 1.554-3.505 2.348-6.051 2.38h-2.727c-.662 0-1.224.232-1.687.695-.463.43-.694.975-.694 1.636 0 .629.231 1.174.694 1.637.496.463 1.058.694 1.687.694h7.439c1.884 0 3.372.612 4.463 1.835 1.124 1.19 1.687 2.612 1.687 4.266 0 1.355-.298 2.595-.893 3.72-.562 1.123-1.422 2.016-2.579 2.677-1.124.662-2.513.992-4.166.992h-7.39Zm.645-3.521h7.191a2.89 2.89 0 0 0 2.182-.942c.596-.595.893-1.306.893-2.133 0-.86-.248-1.587-.744-2.182-.496-.562-1.273-.843-2.331-.843h-7.191c-1.025 0-1.785.28-2.281.843-.496.595-.744 1.323-.744 2.182 0 .827.248 1.538.744 2.133.496.628 1.256.942 2.281.942Zm3.273-18.003c1.455 0 2.563-.48 3.323-1.438.761-.992 1.141-2.315 1.141-3.968 0-1.752-.38-3.091-1.141-4.017-.76-.926-1.868-1.389-3.323-1.389-1.421 0-2.512.496-3.273 1.488-.76.96-1.141 2.265-1.141 3.918 0 1.72.381 3.059 1.141 4.018.761.925 1.852 1.388 3.273 1.388ZM134.036 52l-6.497-26.087h4.463l3.274 14.68c.165.694.33 1.538.496 2.53.165.958.297 1.818.396 2.579l.149 1.09h.198l.1-.991c.066-.662.165-1.472.297-2.43.132-.96.265-1.885.397-2.778l2.629-14.68h4.711l2.678 14.68c.099.661.199 1.356.298 2.083.099.694.182 1.356.248 1.984.099.628.165 1.14.198 1.537l.05.595h.198l.05-.545c.066-.364.132-.843.198-1.438.099-.595.215-1.257.347-1.984.132-.76.281-1.504.447-2.232l3.273-14.68h4.116L150.253 52h-4.513l-2.728-14.878a67.181 67.181 0 0 1-.446-2.728 1354.855 1354.855 0 0 1-.347-3.273h-.199l-.099.942a65.428 65.428 0 0 1-.297 2.33 41.83 41.83 0 0 1-.397 2.729L138.549 52h-4.513Zm26.393 0V25.913h4.066V52h-4.066Zm-.099-31.145v-4.712h4.215v4.712h-4.215ZM171.038 52V25.913h3.075l.545 3.422h.298a8.278 8.278 0 0 1 1.537-2.727c.694-.86 1.653-1.29 2.877-1.29.562 0 1.025.066 1.388.198l.546.199v4.215h-1.339c-.86 0-1.67.199-2.43.595-.728.364-1.323.992-1.786 1.885-.43.893-.645 2.116-.645 3.67V52h-4.066Zm22.506.595c-3.24 0-5.703-1.058-7.389-3.174-1.653-2.149-2.48-5.637-2.48-10.464 0-4.695.81-8.134 2.43-10.316 1.653-2.215 4.117-3.323 7.39-3.323 2.843 0 4.976.959 6.398 2.877 1.454 1.884 2.182 5.009 2.182 9.373v2.579H187.94c.033 3.042.513 5.273 1.439 6.695.925 1.422 2.347 2.133 4.265 2.133 1.289 0 2.347-.513 3.174-1.538.826-1.058 1.24-2.496 1.24-4.314h4.017c0 2.91-.794 5.224-2.381 6.943-1.554 1.686-3.604 2.53-6.15 2.53Zm-5.554-16.069h9.82c0-2.48-.364-4.364-1.091-5.653-.728-1.29-1.802-1.935-3.224-1.935-1.819 0-3.158.645-4.017 1.935-.827 1.256-1.323 3.14-1.488 5.653Z" fill="#C3C9CB"/><defs><clipPath id="a"><path fill="#fff" transform="translate(0 5.373)" d="M0 0h58.255v58.255H0z"/></clipPath></defs></svg>