<svg width="268" height="69" fill="none" xmlns="http://www.w3.org/2000/svg"><g clip-path="url(#a)"><path d="m21.158 48.57 7.052 7.053-7.052 7.123L0 41.517l7.053-7.052 7.052 7.052 7.053-7.052 7.052 7.052-7.052 7.053Z" fill="#C3C9CB"/><path d="M56.492 41.517 35.263 62.746l-7.052-7.123 7.052-7.053-7.052-7.053 7.052-7.052 7.053 7.052 7.052-7.052 7.124 7.052Z" fill="#DDE1E2"/><path d="m56.492 27.412-7.124 7.053-7.052-7.053-7.053 7.053-7.052-7.053 7.052-7.053-7.052-7.052 7.052-7.053 21.229 21.158Z" fill="#C3C9CB"/><path d="m21.158 20.36 7.052 7.052-7.052 7.053-7.053-7.053-7.052 7.053L0 27.412 21.158 6.254l7.052 7.053-7.052 7.052Z" fill="#DDE1E2"/></g><path d="M94.695 17.762v7.936h-.942c0-.232-.05-.463-.15-.695-.099-.231-.23-.347-.396-.347H77.138v8.778h12.994c.165 0 .298-.115.397-.347.099-.231.149-.463.149-.694h.942v7.935h-.942c0-.231-.05-.463-.15-.694-.098-.232-.23-.347-.396-.347H77.138v15.225c0 .166.116.298.347.397.265.1.53.149.794.149V56H69.55v-.942c.265 0 .513-.05.744-.15.265-.098.397-.23.397-.396v-34.22c0-.166-.132-.298-.397-.397a1.75 1.75 0 0 0-.694-.149v-.942h23.607c.165 0 .297-.116.397-.347.099-.232.148-.463.148-.695h.943Zm18.525 13.936v7.985h-.943a2.55 2.55 0 0 0-.148-.793c-.1-.298-.232-.463-.397-.496h-.347c-1.025 0-2.067.297-3.125.893a7.757 7.757 0 0 0-2.579 2.28c-.661.927-.992 1.919-.992 2.977v9.968c0 .166.116.298.347.397.265.1.513.149.744.149V56h-8.332v-.942c.232 0 .463-.05.695-.15.264-.098.397-.23.397-.396V34.674c0-.165-.133-.297-.397-.396a1.75 1.75 0 0 0-.695-.15v-.942h7.241v2.133c.893-.827 1.968-1.488 3.224-1.984 1.256-.496 2.513-.744 3.769-.744h.099c.166 0 .281-.099.348-.297.099-.199.148-.397.148-.595h.943Zm14.854 24.897c-2.447 0-4.612-.512-6.497-1.537a11.636 11.636 0 0 1-4.364-4.315c-1.025-1.819-1.538-3.868-1.538-6.15 0-2.248.513-4.298 1.538-6.15 1.058-1.851 2.529-3.306 4.414-4.364 1.884-1.091 4.033-1.636 6.447-1.636 2.314 0 4.414.529 6.299 1.587a11.43 11.43 0 0 1 4.463 4.314c1.091 1.819 1.637 3.902 1.637 6.25 0 2.05-.496 4-1.488 5.851-.959 1.819-2.381 3.307-4.265 4.464-1.885 1.124-4.1 1.686-6.646 1.686Zm0-5.703c1.951 0 3.521-.562 4.712-1.687 1.223-1.157 1.835-2.645 1.835-4.463 0-1.885-.612-3.439-1.835-4.662-1.191-1.223-2.761-1.835-4.712-1.835-1.818 0-3.339.612-4.563 1.835-1.223 1.19-1.835 2.695-1.835 4.513 0 1.918.612 3.455 1.835 4.612 1.224 1.125 2.745 1.687 4.563 1.687Zm40.503-16.763h-.347c-.429 0-.711.082-.843.248l-7.885 10.315 7.687 10.118c.132.165.529.248 1.19.248V56h-8.729v-.942c.397 0 .596-.083.596-.248 0-.066-.067-.199-.199-.397l-4.067-5.356-4.166 5.406-.099.198c0 .132.083.248.248.347.166.066.397.1.695.1V56h-9.225v-.942h.248c.463 0 .777-.083.942-.248l7.737-10.217-7.786-10.216c-.133-.166-.529-.248-1.191-.248v-.943h8.679v.893c-.396 0-.595.083-.595.248 0 .1.05.232.149.397l4.216 5.554 4.314-5.554.1-.199c0-.132-.1-.231-.298-.297-.165-.1-.397-.149-.694-.149v-.893h9.323v.943Z" fill="#C3C9CB"/><defs><clipPath id="a"><path fill="#fff" transform="translate(0 6.254)" d="M0 0h56.492v56.492H0z"/></clipPath></defs></svg>