<svg width="20" height="20" fill="none" xmlns="http://www.w3.org/2000/svg"><g clip-path="url(#a)"><path d="M14.247 1.298a5.179 5.179 0 0 0-4.45 2.67 5.18 5.18 0 0 0-4.451-2.67 5.503 5.503 0 0 0-5.26 5.705c0 5.482 8.865 11.814 9.243 12.083l.467.33.468-.33c.377-.267 9.243-6.6 9.243-12.083a5.503 5.503 0 0 0-5.26-5.705Zm-4.45 16.127c-2.633-1.967-8.093-6.798-8.093-10.422a3.884 3.884 0 0 1 3.642-4.087 3.884 3.884 0 0 1 3.641 4.087h1.618a3.884 3.884 0 0 1 3.642-4.087 3.884 3.884 0 0 1 3.641 4.087c0 3.626-5.46 8.455-8.092 10.422Z" fill="#006D77"/></g><defs><clipPath id="a"><path fill="#fff" transform="translate(.085 .556)" d="M0 0h19.421v19.421H0z"/></clipPath></defs></svg>