<svg width="268" height="69" fill="none" xmlns="http://www.w3.org/2000/svg"><g clip-path="url(#a)"><path d="m38.437 14.717-.846-2.257s-.353-1.058-.565-1.34c-.07-.14-.282-.352-.423-.564-.846-.846-2.116-1.27-3.174-.917-.705.212-1.34.494-1.34.494l-2.256.987c-.706.353-1.481.565-2.257.706a11 11 0 0 1-4.796 0c-.776-.142-1.552-.424-2.257-.706l-2.116-.917s-1.199-.564-1.622-.705c-1.058-.282-2.186.141-3.032.988-.141.14-.353.423-.424.634-.211.353-.493 1.34-.493 1.34l-.847 2.257c-.282.776-.634 1.41-1.057 2.116.634-.141 1.34-.07 2.045.282l3.315 1.481 2.82 1.199.142.07 3.314 1.411a6.877 6.877 0 0 0 5.29 0l3.385-1.481.141-.07 2.821-1.2 3.315-1.48c.776-.353 1.41-.424 2.045-.283-.493-.634-.846-1.34-1.128-2.045ZM44.996 47.724l2.257-.847 1.34-.564c.211-.141.352-.282.493-.423.847-.846 1.2-2.045.917-3.174l-.564-1.27-.987-2.256c-.353-.705-.565-1.481-.706-2.257a11.002 11.002 0 0 1 0-4.796c.141-.776.423-1.551.706-2.257l.916-2.115.706-1.623c.14-1.057-.141-2.186-.988-3.032-.14-.141-.282-.282-.423-.353l-1.551-.635-2.116-.846c-.776-.282-1.41-.635-2.116-1.058.141.635.07 1.34-.282 2.046l-1.481 3.314-1.2 2.821-.07.141-1.48 3.386a6.877 6.877 0 0 0 0 5.29l1.48 3.384.07.141 1.2 2.822 1.48 3.314c.353.776.424 1.41.283 2.045.705-.493 1.41-.846 2.116-1.198ZM11.919 54.353l.846 2.257s.353 1.058.564 1.34c.071.141.283.353.424.564.846.847 2.115 1.27 3.173.917.706-.211 1.34-.493 1.34-.493l2.257-.988c.705-.353 1.481-.564 2.257-.705a11 11 0 0 1 4.796 0c.776.14 1.551.423 2.257.705l2.115.917s1.2.564 1.623.705c1.057.282 2.186-.14 3.032-.987.141-.141.353-.423.423-.635.212-.353.494-1.34.494-1.34l.846-2.186c.282-.776.635-1.41 1.058-2.116-.635.141-1.34.07-2.045-.282l-3.315-1.481-2.82-1.2-.142-.07-3.385-1.48a6.877 6.877 0 0 0-5.29 0l-3.385 1.48-2.82 1.2-3.316 1.48c-.776.353-1.41.424-2.045.282a9.89 9.89 0 0 1 1.058 2.116ZM5.36 21.276l-2.257.846-1.34.565c-.211.14-.352.282-.494.423-.846.846-1.198 2.045-.916 3.174l.564 1.269.987 2.257c.353.705.564 1.48.705 2.257a11.001 11.001 0 0 1 0 4.795c-.14.776-.423 1.552-.705 2.257l-.917 2.116-.705 1.622c-.14 1.058.141 2.187.987 3.033.142.14.283.282.424.352l1.551.635 2.187.846c.775.283 1.41.635 2.115 1.058-.14-.634-.07-1.34.282-2.045l1.481-3.315 1.2-2.82.07-.142 1.481-3.385a6.876 6.876 0 0 0 0-5.29L10.579 28.4l-.07-.14-1.2-2.822-1.551-3.174c-.353-.775-.423-1.41-.282-2.045-.635.353-1.34.776-2.116 1.058Z" fill="#C3C9CB"/><path d="m20.523 10.909-2.186-.987s-.988-.494-1.34-.565c-.212-.07-.494-.07-.705-.07-1.27 0-2.398.635-2.892 1.622-.353.635-.564 1.27-.564 1.27l-.917 2.256a9.891 9.891 0 0 1-1.058 2.116 11.536 11.536 0 0 1-3.456 3.456c-.634.423-1.34.776-2.116 1.128l-2.115.847s-1.27.423-1.622.634C.494 23.18 0 24.31 0 25.508a3 3 0 0 0 .141.776c.07.352.564 1.34.564 1.34l.988 2.186c.282.564.493 1.199.634 1.834.07.14.282.211.353.07.353-.352.776-.705 1.41-.917l3.386-1.34 2.891-1.128.141-.07 3.456-1.34c1.693-.706 3.103-2.046 3.738-3.739l1.34-3.455.07-.141 1.13-2.892 1.34-3.385a4.075 4.075 0 0 1 .916-1.41c.14-.142.07-.353-.07-.353-.706-.141-1.27-.353-1.905-.635ZM48.804 29.81l.988-2.257.564-1.34c.07-.211.07-.423.07-.705 0-1.27-.634-2.328-1.622-2.962l-1.34-.494-2.257-.917a9.89 9.89 0 0 1-2.115-1.058 11.534 11.534 0 0 1-3.456-3.455c-.423-.635-.776-1.34-1.129-2.116l-.846-2.116-.635-1.622v-.07a3.574 3.574 0 0 0-2.82-1.411c-.212 0-.424 0-.565.07l-1.551.635-2.187.987a8.056 8.056 0 0 1-1.833.635c-.142.07-.212.282-.071.353.353.352.705.776.917 1.41l1.34 3.386 1.128 2.891.07.141 1.34 3.456c.706 1.693 2.046 3.103 3.739 3.738l3.455 1.34.142.07 2.891 1.129 3.385 1.34a4.074 4.074 0 0 1 1.41.917c.142.14.353.07.353-.07.142-.706.353-1.27.635-1.905ZM29.903 58.091l2.257.987s.987.494 1.34.565c.141.07.494.07.705.07 1.27 0 2.398-.635 2.892-1.622.352-.635.564-1.27.564-1.27l.917-2.256a9.886 9.886 0 0 1 1.058-2.116 11.532 11.532 0 0 1 3.456-3.456c.634-.423 1.34-.776 2.115-1.128l2.116-.846s1.27-.424 1.622-.635c.988-.494 1.481-1.693 1.481-2.821a3 3 0 0 0-.14-.776c-.142-.423-.636-1.34-.636-1.34l-.987-2.186a8.053 8.053 0 0 1-.635-1.834c-.07-.141-.282-.212-.352-.07-.353.352-.776.705-1.41.916l-3.386 1.34-2.892 1.129-.14.07-3.456 1.34c-1.693.706-3.104 2.045-3.738 3.738l-1.34 3.456-.07.141-.988 2.821-1.34 3.385a4.074 4.074 0 0 1-.917 1.41c-.141.142-.07.353.07.353a8.06 8.06 0 0 1 1.834.635ZM1.622 39.19l-.987 2.257-.564 1.34C0 42.999 0 43.21 0 43.492c0 1.27.635 2.328 1.622 2.962l1.34.494 2.257.917a9.89 9.89 0 0 1 2.116 1.058 11.535 11.535 0 0 1 3.455 3.456c.424.634.776 1.34 1.129 2.115l.846 2.116.635 1.622v.07a3.574 3.574 0 0 0 2.821 1.411c.212 0 .423 0 .564-.07l1.552-.635 2.186-.987a8.053 8.053 0 0 1 1.834-.635c.14-.07.211-.282.07-.353-.352-.352-.705-.776-.916-1.41l-1.34-3.386-1.129-2.891-.07-.141-1.34-3.385c-.706-1.693-2.046-3.104-3.738-3.738l-3.456-1.34-.141-.07-2.892-1.13-3.385-1.34a4.076 4.076 0 0 1-1.41-.916c-.142-.141-.353-.07-.353.07a8.056 8.056 0 0 1-.635 1.834Z" fill="#DDE1E2"/></g><path d="M77.124 21.194c0 2.082 1.289 7.141 3.868 15.176l1.587 4.959.347-.1c.033-.694 2.083-7.505 6.15-20.432 0-.33-.182-.645-.546-.942-.363-.331-.744-.546-1.14-.645l.148-.695c1.654.133 3.919.199 6.795.199 2.877 0 5.174-.133 6.894-.397l.248 1.24a27.189 27.189 0 0 1-4.811 1.041c-.165.794-.248 2.216-.248 4.265 0 2.017.264 6.084.794 12.2.562 6.118 1.074 10.184 1.537 12.201a37.75 37.75 0 0 1 5.455.942l-.148 1.19c-2.447-.264-5.092-.396-7.936-.396-2.843 0-5.141.132-6.893.397l-.199-1.24a29.521 29.521 0 0 1 4.761-1.042c0-3.14-.181-7.472-.545-12.993-.364-5.522-.827-10.25-1.389-14.185l-.149-.05c-4.728 13.094-7.207 21.062-7.439 23.905-2.149 1.29-3.752 2.546-4.81 3.77l-.596-.397c.067-.727.1-1.273.1-1.637 0-3.868-2.166-12.415-6.497-25.64l-.199.05-1.537 10.86c-.661 4.729-.992 8.994-.992 12.796 0 1.224.132 2.232.397 3.025.297.794.876 1.422 1.736 1.885l-.199.694c-1.025-.132-2.777-.198-5.257-.198-2.447 0-4.645.132-6.596.397l-.198-1.24a29.519 29.519 0 0 1 4.76-1.042l5.555-27.674c-3.901 0-6.397.53-7.489 1.588-.23.462-.347 1.19-.347 2.182s.166 1.67.496 2.033l-.05.347c-.826.496-1.653 1.19-2.48 2.083a1.273 1.273 0 0 1-.941-.496 1.519 1.519 0 0 1-.397-1.041c0-1.62.975-3.555 2.926-5.803 1.95-2.248 3.77-3.67 5.455-4.265.265 0 1.455.116 3.571.347 2.116.199 3.753.298 4.91.298 1.19 0 2.314-.1 3.373-.298l.198 1.24c-1.356.53-2.033 1.042-2.033 1.538Zm39.756 30.401c-3.273 0-5.918-1.025-7.935-3.075-2.017-2.083-3.025-4.86-3.025-8.332 0-3.471 1.058-6.728 3.174-9.77 2.116-3.042 4.877-4.992 8.282-5.852 3.406 0 6.001.975 7.787 2.926 1.785 1.918 2.678 4.662 2.678 8.233 0 3.57-.976 6.794-2.926 9.67-1.918 2.877-4.596 4.944-8.035 6.2Zm-.843-24.004c-1.488 0-2.777.413-3.868 1.24-1.356 2.314-2.034 5.224-2.034 8.729 0 4.033 1.125 7.125 3.373 9.274 1.19 1.157 2.595 1.736 4.215 1.736 1.621 0 2.927-.43 3.918-1.29 1.323-2.314 1.984-5.14 1.984-8.48 0-3.34-.595-6.034-1.785-8.084-1.19-2.083-3.125-3.125-5.803-3.125Zm27.959 23.756c-1.719-.231-3.654-.347-5.803-.347-2.116 0-4.017.132-5.703.397l-.198-1.29c1.058-.33 2.05-.578 2.975-.744.298-2.579.447-5.951.447-10.117v-2.33c0-4.431-.166-7.837-.496-10.217-.893-.1-1.968-.364-3.224-.794l.149-1.29c1.884.364 3.852.546 5.902.546 2.083 0 3.57-.116 4.463-.347l.099.843c-.892.232-1.339.612-1.339 1.14 0 .398.38 1.24 1.141 2.53.793 1.256 1.554 2.48 2.281 3.67 2.182 3.472 4.761 7.737 7.737 12.795l.149-.099v-6.05c0-4.43-.232-7.753-.694-9.969-.463-2.248-1.257-3.554-2.381-3.918l.099-.843c.86.165 2.149.248 3.869.248 1.719 0 3.488-.182 5.306-.545l.149 1.289c-1.356.43-2.496.694-3.422.793-.331 2.646-.496 6.051-.496 10.217v2.331c0 5.026.165 8.431.496 10.217 1.389.231 2.496.495 3.323.793l-.149 1.29c-1.653-.364-3.207-.546-4.662-.546s-2.579.066-3.372.198c0-.727-.513-1.95-1.538-3.67-.992-1.719-1.901-3.24-2.727-4.562a512.105 512.105 0 0 1-7.886-13.193l-.198.1v6.645c0 6.58.496 10.862 1.487 12.845 1.488.166 2.943.414 4.365.744l-.149 1.24Zm22.289-4.116c1.521.628 3.025.942 4.513.942s2.678-.347 3.571-1.041c.893-.695 1.339-1.687 1.339-2.976 0-1.323-1.868-2.96-5.604-4.91a19.784 19.784 0 0 1-3.918-2.629c-1.157-1.057-1.736-2.099-1.736-3.124 0-1.752.926-3.521 2.777-5.307 1.852-1.785 3.753-2.992 5.704-3.62 2.446 0 4.662.248 6.645.744v.893c-1.388 1.388-2.165 3.29-2.331 5.703h-1.239c0-.926-.083-2.083-.248-3.472a8.846 8.846 0 0 0-3.72-.793c-1.323 0-2.43.297-3.323.893-.86.562-1.289 1.388-1.289 2.48 0 .76.578 1.586 1.735 2.479a25.27 25.27 0 0 0 3.869 2.38 17.653 17.653 0 0 1 3.819 2.58c1.19 1.024 1.785 2.05 1.785 3.074 0 1.984-.876 3.968-2.628 5.952-1.753 1.95-3.687 3.323-5.803 4.116-2.083 0-4.034-.248-5.852-.744-.529.232-1.075.612-1.637 1.14l-.893-.644c1.852-2.017 2.877-4.513 3.075-7.489h1.24c0 1.158.05 2.282.149 3.373Zm33.688-19.392c-1.157-.562-2.264-.843-3.322-.843-1.058 0-1.769.066-2.133.199-.265 1.785-.397 5.24-.397 10.365s.182 9.06.546 11.803c1.488.166 2.86.414 4.116.744l-.149 1.24c-1.719-.231-3.703-.347-5.951-.347-2.215 0-4.166.132-5.852.397l-.199-1.29c.662-.198 1.802-.446 3.422-.744.298-2.38.447-5.753.447-10.117v-2.33c0-2.315-.182-5.555-.546-9.721-.363-.133-1.041-.199-2.033-.199s-2.05.232-3.174.694c-.331 1.025-.562 2.397-.695 4.117h-1.289c0-2.711-.446-4.81-1.339-6.299l.248-.843c2.546.33 6.117.496 10.712.496 4.596 0 8.299-.182 11.11-.545l.297.942c-.826.926-1.388 1.835-1.686 2.728-.298.86-.479 2.033-.546 3.52h-1.239c-.232-1.09-.348-2.413-.348-3.967Z" fill="#C3C9CB"/><defs><clipPath id="a"><path fill="#fff" transform="translate(0 9.287)" d="M0 0h50.426v50.426H0z"/></clipPath></defs></svg>