<svg width="268" height="70" fill="none" xmlns="http://www.w3.org/2000/svg"><g clip-path="url(#a)"><path d="M21.197 36.058c-.07 0-.141 0-.212-.07.07 0 .141.07.212.07ZM46.304 24.633c-2.468-4.302-6.277-7.688-10.86-9.733-1.623-.705-3.316-1.27-5.008-1.622.14.07.282.211.494.352.14.071.282.212.423.283.211.14.423.282.634.493h.07c.142.07.212.212.353.282l.071.07c.141.142.282.213.423.354.423.352.917.775 1.34 1.199.423.423.846.846 1.2 1.34.14.14.21.282.352.423 0 0 0 .07.07.07.07.141.212.212.282.353.07.07.07.14.141.14.071.142.212.283.283.424.07.141.211.282.282.423 0 .07.07.07.07.141.07.141.212.282.282.423l.07.283c0-.071 0-.212-.07-.283.141.212.212.353.353.565.141.211.212.352.353.564.07.14.211.282.282.494v.07c.07.141.14.212.14.353.071.14.142.352.283.493.07.212.211.353.282.564 0 .071.07.071.07.142l.212.423c.141.352.353.775.494 1.128 1.763 4.655 2.045 9.803.776 14.6-.847 3.314-2.469 6.417-4.726 9.167.706.071 1.41.071 2.187.071 3.455 0 6.77-.776 9.732-2.116a23.641 23.641 0 0 0 2.116-9.732c0-.706 0-1.481-.07-2.187-.565-3.738-1.693-7.052-3.386-10.014ZM5.117 24.633c2.468 4.302 6.277 7.687 10.86 9.732.212.07.424.212.636.282.14.07.282.141.423.141.211.07.352.141.564.212.07 0 .212.07.282.07.141.07.282.07.423.142h.07c.142.07.353.14.565.14.07 0 .07 0 .141.071.212.07.353.141.564.141.141 0 .212.07.353.07s.211.071.352.071c.212.07.424.07.635.141-1.27-.846-2.539-1.833-3.667-2.962-1.129-1.128-2.116-2.398-3.033-3.667-.987-1.481-1.833-3.103-2.398-4.726-1.763-4.654-2.045-9.803-.775-14.598.846-3.315 2.468-6.418 4.725-9.169-.705-.07-1.41-.07-2.187-.07-3.385.14-6.7.916-9.662 2.256a23.64 23.64 0 0 0-2.115 9.733c0 .705 0 1.481.07 2.186.353 3.527 1.481 6.841 3.174 9.803Z" fill="#DDE1E2"/><path d="M17.318 16.24c1.128-1.128 2.398-2.116 3.667-3.032 1.481-.988 3.103-1.834 4.726-2.398 4.654-1.764 9.803-2.046 14.599-.776 3.314.846 6.417 2.468 9.168 4.725.07-.705.07-1.41.07-2.186 0-3.456-.775-6.77-2.115-9.733A23.64 23.64 0 0 0 37.7.724c-.705 0-1.41 0-2.186.07-3.597.283-6.912 1.411-9.804 3.104-4.302 2.61-7.757 6.418-9.803 11.002-.705 1.622-1.27 3.315-1.622 5.078.917-1.34 1.904-2.61 3.033-3.738ZM36.007 33.096c.07-.141.141-.353.212-.494v-.14c.07-.142.141-.283.141-.424.07-.212.141-.353.141-.564 0-.07.07-.212.07-.282v-.07c.071-.142.071-.283.142-.424.07-.212.07-.423.14-.635v-.07c.071-.212.071-.423.142-.635v.07c-.07.142-.212.282-.282.424-.141.14-.212.282-.353.493-.07.141-.212.282-.282.353-.141.141-.212.282-.353.423-.07.07-.14.212-.211.282l-.212.212c-.352.423-.776.917-1.199 1.34-.423.423-.846.846-1.34 1.199-.07.07-.14.14-.211.14-.07.071-.142.142-.212.142 0 0-.07 0-.07.07-.142.07-.212.212-.353.282h-.07c-.071.071-.212.142-.283.212-.07.07-.211.141-.282.212-.14.07-.282.211-.423.282-.141.07-.282.211-.423.282h-.07c-.142.07-.283.211-.494.282-.07.07-.142.07-.212.141 0 0-.07 0-.07.07-.071.071-.212.142-.283.212-.07 0-.07.07-.14.07-.212.071-.353.212-.565.283-.14.07-.282.14-.494.282h-.07c-.141.07-.212.14-.353.14h-.07c-.141.071-.282.142-.353.212-.14.071-.352.141-.494.212l-.423.212c-.14.07-.282.07-.352.14-.141.071-.282.142-.423.142-4.655 1.763-9.804 2.045-14.6.776-3.103-.635-6.276-2.187-9.027-4.514-.07.705-.07 1.41-.07 2.186 0 3.456.775 6.77 2.115 9.733a23.64 23.64 0 0 0 9.733 2.116c.705 0 1.481 0 2.186-.071 3.527-.353 6.912-1.41 9.803-3.103 4.303-2.469 7.688-6.277 9.733-10.861.07-.212.212-.423.282-.635.141-.282.212-.494.282-.705Z" fill="#C3C9CB"/></g><path d="M87.322 22.21c0-1.663 1.195-2.495 3.584-2.495.55 0 1.082.21 1.598.63.517.42.775 1 .775 1.744 0 .742-.234 1.727-.702 2.954-.468 1.227-.759 2.39-.872 3.487-.113 1.098-.363 4.908-.75 11.43-.388 6.522-.638 10.026-.751 10.51-.226.969-.702 1.453-1.429 1.453-1.437 0-2.89-.945-4.359-2.833-.339-.436-2.559-4.012-6.66-10.728-4.084-6.732-6.481-10.098-7.191-10.098l-.315.193c-.13.194-.242.678-.34 1.453-.516 4.424-.774 9.21-.774 14.36 0 .55.032 1.147.097 1.793l.096.823c.097.807.146 1.308.146 1.501 0 1.114-.38 2.01-1.138 2.688a3.754 3.754 0 0 1-2.616 1.017h-.823c-1.017 0-1.526-.379-1.526-1.138 0-.775.218-1.638.654-2.59.436-.953.727-2.035.872-3.246.694-5.828 1.041-12.084 1.041-18.767 0-1.147-.08-2.1-.242-2.858l-.218-.823-.242-.751a4.832 4.832 0 0 1-.194-1.332c0-.597.573-.896 1.72-.896 2.195 0 4.157.969 5.884 2.906 1.744 1.921 4.367 5.723 7.87 11.406 3.504 5.683 5.393 8.524 5.667 8.524l.339-.097c.097-.145.194-.662.29-1.55.598-5.602.897-10.518.897-14.747 0-.372-.04-.937-.121-1.695l-.097-.775c-.113-.791-.17-1.276-.17-1.453Zm15.08 15.861v.388c0 .484.444.726 1.332.726h.581l.145-.024 1.187-.097c1.243-.178 2.05-.266 2.422-.266 1.759 0 3.083-.331 3.971-.993.42-.323.63-.896.63-1.72v-.266c0-1.21-.404-2.171-1.211-2.882-.791-.71-1.744-1.065-2.858-1.065h-.169l-.145.024c-1.566 0-2.939.662-4.117 1.986-1.179 1.324-1.768 2.72-1.768 4.19Zm5.279 15.038h-.533c-3.083 0-5.537-.976-7.361-2.93-1.825-1.97-2.737-4.593-2.737-7.87v-1.066c0-1.565.307-3.156.92-4.77 1.244-3.229 3.27-5.457 6.079-6.684 1.485-.662 2.995-.993 4.528-.993h1.042c2.114 0 3.898.71 5.351 2.131 1.469 1.405 2.204 3.221 2.204 5.45v.483c0 1.583-.63 2.705-1.889 3.367-.872.468-2.906.936-6.102 1.404-3.197.468-4.94.75-5.231.848-.969.339-1.453.984-1.453 1.937 0 1.324.565 2.454 1.695 3.39 1.13.937 2.648 1.405 4.553 1.405.888 0 2.098-.242 3.632-.727 1.534-.484 2.422-.726 2.664-.726.823 0 1.235.355 1.235 1.065 0 .953-.928 1.905-2.785 2.858-1.856.952-3.794 1.428-5.812 1.428Zm16.436-13.827c-.985-1-1.477-2.405-1.477-4.214 0-1.808.807-3.358 2.422-4.65 1.614-1.307 3.616-1.96 6.005-1.96h.63c2.115 0 3.794.298 5.037.895 1.259.598 1.889 1.494 1.889 2.688 0 1.179-.525 1.768-1.574 1.768-.275 0-1.05-.323-2.325-.968-1.275-.662-2.478-.993-3.608-.993s-2.042.258-2.737.775c-.678.5-1.017 1.194-1.017 2.082 0 .888.476 1.663 1.429 2.325.549.387 1.84 1 3.875 1.84 2.05.84 3.511 1.647 4.383 2.422 1.404 1.243 2.107 2.833 2.107 4.77 0 1.938-.824 3.6-2.471 4.99-1.646 1.371-3.785 2.057-6.417 2.057h-.629c-2.648 0-4.634-.379-5.958-1.138-1.323-.775-1.985-1.775-1.985-3.002 0-1.244.516-1.865 1.549-1.865.34 0 1.219.436 2.64 1.307 1.437.872 2.841 1.308 4.214 1.308 1.388 0 2.429-.29 3.124-.872.694-.597 1.041-1.34 1.041-2.227 0-.904-.436-1.696-1.308-2.374-.468-.371-1.808-1.04-4.02-2.01-2.211-.984-3.818-1.97-4.819-2.954Zm32.855 10.922c0 .645-.396 1.227-1.187 1.743-.775.5-1.832.75-3.172.75-2.502 0-4.262-.928-5.279-2.784-.63-1.162-.945-3.883-.945-8.16 0-4.28-.072-6.765-.218-7.46-.145-.694-.548-1.372-1.21-2.034-.662-.662-.993-1.17-.993-1.525 0-.13.783-.977 2.349-2.543.339-.339.678-1.09 1.017-2.252.355-1.163.605-1.93.751-2.3.484-1.163 1.122-1.744 1.913-1.744h.387c.694 0 1.187.266 1.477.799.113.21.283.969.509 2.276.242 1.292.516 2.123.823 2.495.307.37 1.074.782 2.301 1.235 1.243.435 1.864.904 1.864 1.404v.267c0 .645-.71 1.194-2.131 1.646-1.404.436-2.308 1.138-2.712 2.107-.791 1.953-1.187 5.134-1.187 9.541 0 2.067.356 3.471 1.066 4.214.436.452 1.308.767 2.615.944 1.308.178 1.962.638 1.962 1.38Zm8.711-24.628-.412-4.335c0-.34.218-.678.654-1.017.436-.355 1.082-.533 1.937-.533 1.954 0 3.528.896 4.723 2.688 1.21 1.792 3.083 5.86 5.618 12.205 1.098 2.68 1.743 4.198 1.937 4.553l.533.702c.355 0 1.937-2.631 4.746-7.894 2.809-5.28 4.561-8.404 5.255-9.372 1.388-1.938 3.156-2.906 5.303-2.906 1.518 0 2.277.557 2.277 1.67l-.146.8-.218.969c-.177.984-.298 3.18-.363 6.586-.064 3.39-.161 6.797-.29 10.22l-.121 3.826c0 1.63.088 2.777.266 3.438l.339.945c.323.872.484 1.526.484 1.962 0 .42-.234.815-.702 1.186a2.47 2.47 0 0 1-1.574.557h-.92c-.824 0-1.566-.33-2.228-.993-.662-.662-.993-1.356-.993-2.082 0-.743.073-1.849.218-3.318.161-1.47.242-4.61.242-9.42 0-4.827-.145-7.24-.436-7.24-.436 0-1.945 2.744-4.528 8.233-2.567 5.489-4.206 8.766-4.916 9.831-.71 1.066-1.502 1.599-2.373 1.599-.856 0-1.599-.606-2.228-1.816-.242-.469-1.389-3.536-3.439-9.203-2.034-5.682-3.293-8.524-3.778-8.524-.209 0-.411.283-.605.848-.178.549-.509 3.1-.993 7.652-.468 4.553-.702 7.62-.702 9.202 0 1.566-.258 2.745-.775 3.536-.517.775-1.413 1.162-2.688 1.162-1.275 0-1.913-.613-1.913-1.84 0-.162.234-.856.702-2.083.468-1.227.783-2.59.945-4.092.774-7.12 1.162-13.02 1.162-17.702Zm46.755 24.167h.629c1.324 0 2.486-.444 3.487-1.332 1.017-.904 1.526-1.945 1.526-3.123l.048-.315v-.315l.049-.75v-1.381c0-.936-.476-1.404-1.429-1.404h-1.09l-.169.024-.945.072a7.848 7.848 0 0 1-.968.097c-1.308 0-2.519.493-3.633 1.477-.775.695-1.162 1.68-1.162 2.955v.484c0 1.082.347 1.937 1.041 2.567.711.63 1.582.944 2.616.944Zm-5.401-15.474c-1.081 0-1.622-.694-1.622-2.082 0-1.033.872-1.93 2.615-2.688a13.443 13.443 0 0 1 5.473-1.163h1.211c1.631 0 3.067.307 4.31.92 1.244.598 2.188 1.413 2.834 2.446.662 1.034 1.065 2.382 1.211 4.044.032.388.048 2.269.048 5.643 0 3.374.04 5.32.121 5.836.097.5.355 1.114.775 1.84.436.727.654 1.324.654 1.792 0 .469-.226.872-.678 1.211-.436.323-1.074.485-1.913.485-.84 0-1.752-.202-2.737-.606-.985-.42-1.703-.63-2.155-.63-.048 0-.856.291-2.422.872-1.566.565-2.889.848-3.971.848h-.533c-1.808 0-3.35-.573-4.625-1.72-1.259-1.146-1.889-2.776-1.889-4.891s.694-3.762 2.083-4.94c1.388-1.195 3.075-2.01 5.061-2.446.597-.13 1.59-.299 2.978-.509 1.389-.21 2.333-.428 2.834-.654.871-.403 1.307-1.162 1.307-2.276 0-1.13-.371-2.01-1.114-2.64-.742-.645-1.63-.968-2.663-.968-1.017 0-2.357.38-4.02 1.138-1.663.759-2.721 1.138-3.173 1.138Zm24.791 5.933v-1.864c0-2.244-.121-3.883-.363-4.916-.242-1.05-.363-1.784-.363-2.204 0-.985.718-1.477 2.155-1.477 1.437 0 2.478.266 3.124.799.177.145.403.428.678.848.29.42.549.63.775.63.048 0 .75-.413 2.106-1.236 1.357-.823 2.519-1.235 3.488-1.235h.363c.791 0 1.421.194 1.889.581.468.372.702.832.702 1.38v.315c0 .662-.234 1.139-.702 1.43-.452.29-1.179.435-2.18.435-2.276 0-3.939.8-4.988 2.398-1.033 1.598-1.55 4.423-1.55 8.475 0 .581.097 1.477.29 2.688.21 1.211.315 2.123.315 2.737 0 .613-.331 1.202-.993 1.767-.661.565-1.501.848-2.518.848h-.823c-.888 0-1.574-.21-2.059-.63-.468-.436-.702-.96-.702-1.574 0-.63.113-1.267.339-1.913.613-1.743.92-3.665.92-5.763.065-1.163.097-2.002.097-2.519Zm31.184 10.002c0 .645-.396 1.227-1.187 1.743-.775.5-1.832.75-3.172.75-2.503 0-4.262-.928-5.279-2.784-.63-1.162-.945-3.883-.945-8.16 0-4.28-.072-6.765-.218-7.46-.145-.694-.549-1.372-1.21-2.034-.662-.662-.993-1.17-.993-1.525 0-.13.783-.977 2.349-2.543.339-.339.678-1.09 1.017-2.252.355-1.163.605-1.93.75-2.3.485-1.163 1.122-1.744 1.913-1.744h.388c.694 0 1.187.266 1.477.799.113.21.283.969.509 2.276.242 1.292.516 2.123.823 2.495.307.37 1.074.782 2.301 1.235 1.243.435 1.864.904 1.864 1.404v.267c0 .645-.71 1.194-2.131 1.646-1.404.436-2.308 1.138-2.712 2.107-.791 1.953-1.187 5.134-1.187 9.541 0 2.067.356 3.471 1.066 4.214.436.452 1.308.767 2.615.944 1.308.178 1.962.638 1.962 1.38Z" fill="#C3C9CB"/><defs><clipPath id="a"><path fill="#fff" transform="translate(1.873 .795)" d="M0 0h47.676v47.676H0z"/></clipPath></defs></svg>