<svg width="27" height="21" fill="none" xmlns="http://www.w3.org/2000/svg"><g clip-path="url(#a)"><path d="M20.324 8.93c-3.155 0-5.708 2.526-5.708 5.648 0 3.123 2.553 5.65 5.708 5.65 3.155 0 5.709-2.527 5.709-5.65 0-3.122-2.554-5.649-5.709-5.649Zm2.537 5.895c0 .21-.173.381-.385.381h-2.4a.384.384 0 0 1-.386-.38V11.82c0-.21.173-.38.385-.38h.498c.212 0 .385.17.385.38v2.13h1.518c.212 0 .385.171.385.38v.494Zm-2.537-7.151c.214 0 .425.013.634.032V5.79c0-1.004-.888-1.883-1.902-1.883h-3.172V2.025c0-1.004-.888-1.883-1.903-1.883H7.638c-1.014 0-1.902.879-1.902 1.883v1.883H2.564C1.55 3.908.661 4.787.661 5.79v3.138h15.664a6.984 6.984 0 0 1 4-1.255Zm-6.977-3.766H8.273V2.652h5.074v1.256Zm.27 8.787h-4.71a.63.63 0 0 1-.634-.627v-1.883H.66v5.649c0 1.004.888 1.883 1.903 1.883h11.553a6.798 6.798 0 0 1-.77-3.139c0-.653.098-1.283.27-1.883Z" fill="#fff"/></g><defs><clipPath id="a"><path fill="#fff" transform="translate(.661 .142)" d="M0 0h25.371v20.086H0z"/></clipPath></defs></svg>