<svg width="20" height="20" fill="none" xmlns="http://www.w3.org/2000/svg"><g clip-path="url(#a)" fill="#006D77"><path d="m16.309 11.313-1.145 1.144 1.855 1.855h-.309c-2.738 0-4.48-1.24-6.025-2.838l-.243.281c-.265.308-.539.624-.824.942a9.345 9.345 0 0 0 7.095 3.237h.306l-1.855 1.856 1.144 1.144 2.665-2.665a1.619 1.619 0 0 0 0-2.288l-2.664-2.668Z"/><path d="M16.71 6.22h.309l-1.855 1.856 1.144 1.144 2.665-2.665a1.619 1.619 0 0 0 0-2.288l-2.665-2.665-1.144 1.144 1.855 1.856h-.31c-4.01 0-6.204 2.16-8.193 4.433C6.55 6.815 4.187 4.602-.007 4.602V6.22c3.612 0 5.562 1.89 7.452 4.046-1.89 2.156-3.84 4.046-7.452 4.046v1.619c4.7 0 7.102-2.78 9.225-5.232 1.986-2.304 3.866-4.479 7.492-4.479Z"/></g><defs><clipPath id="a"><path fill="#fff" transform="translate(.026 .556)" d="M0 0h19.421v19.421H0z"/></clipPath></defs></svg>