<svg width="27" height="26" fill="none" xmlns="http://www.w3.org/2000/svg"><path d="M13.46 2.256C7.625 2.256 2.89 6.992 2.89 12.827c0 5.836 4.736 10.572 10.571 10.572s10.572-4.736 10.572-10.572c0-5.835-4.736-10.571-10.572-10.571Zm0 3.171A3.167 3.167 0 0 1 16.631 8.6a3.167 3.167 0 0 1-3.17 3.171A3.167 3.167 0 0 1 10.288 8.6a3.167 3.167 0 0 1 3.171-3.172Zm0 15.012a7.61 7.61 0 0 1-6.343-3.404c.032-2.104 4.229-3.256 6.343-3.256 2.104 0 6.311 1.152 6.343 3.256a7.611 7.611 0 0 1-6.343 3.404Z" fill="#006D77"/></svg>