<svg width="421" height="322" viewBox="0 0 421 322" fill="none" xmlns="http://www.w3.org/2000/svg">
<g filter="url(#filter0_d_2302_1919)">
<path d="M6 39.5L9.14547 18.3804C9.27656 17.5003 10.4056 17.2168 10.9368 17.9307L24.0632 35.5693C24.5944 36.2832 25.7234 35.9997 25.8545 35.1196L28.5651 16.9203C28.7059 15.9746 29.9664 15.7469 30.4292 16.5835L40.6051 34.9784C41.0643 35.8085 42.3132 35.5924 42.4669 34.6563L47.5 4M47.5 4L40.5 11M47.5 4L52 12.5" stroke="#90311B" stroke-width="4"/>
</g>
<g filter="url(#filter1_d_2302_1919)">
<path d="M407.162 274L391.523 282.485C391.201 282.66 391 282.998 391 283.364V305C391 308.866 394.134 312 398 312H417" stroke="#90311B" stroke-width="4"/>
</g>
<defs>
<filter id="filter0_d_2302_1919" x="0.0217896" y="0.671005" width="57.7458" height="47.1236" filterUnits="userSpaceOnUse" color-interpolation-filters="sRGB">
<feFlood flood-opacity="0" result="BackgroundImageFix"/>
<feColorMatrix in="SourceAlpha" type="matrix" values="0 0 0 0 0 0 0 0 0 0 0 0 0 0 0 0 0 0 127 0" result="hardAlpha"/>
<feOffset dy="4"/>
<feGaussianBlur stdDeviation="2"/>
<feComposite in2="hardAlpha" operator="out"/>
<feColorMatrix type="matrix" values="0 0 0 0 0 0 0 0 0 0 0 0 0 0 0 0 0 0 0.25 0"/>
<feBlend mode="normal" in2="BackgroundImageFix" result="effect1_dropShadow_2302_1919"/>
<feBlend mode="normal" in="SourceGraphic" in2="effect1_dropShadow_2302_1919" result="shape"/>
</filter>
<filter id="filter1_d_2302_1919" x="385" y="272.242" width="36" height="49.7579" filterUnits="userSpaceOnUse" color-interpolation-filters="sRGB">
<feFlood flood-opacity="0" result="BackgroundImageFix"/>
<feColorMatrix in="SourceAlpha" type="matrix" values="0 0 0 0 0 0 0 0 0 0 0 0 0 0 0 0 0 0 127 0" result="hardAlpha"/>
<feOffset dy="4"/>
<feGaussianBlur stdDeviation="2"/>
<feComposite in2="hardAlpha" operator="out"/>
<feColorMatrix type="matrix" values="0 0 0 0 0 0 0 0 0 0 0 0 0 0 0 0 0 0 0.25 0"/>
<feBlend mode="normal" in2="BackgroundImageFix" result="effect1_dropShadow_2302_1919"/>
<feBlend mode="normal" in="SourceGraphic" in2="effect1_dropShadow_2302_1919" result="shape"/>
</filter>
</defs>
</svg>
