<svg width="382" height="45" viewBox="0 0 382 45" fill="none" xmlns="http://www.w3.org/2000/svg">
<rect width="14.6898" height="4.10008" rx="2.05004" transform="matrix(0.873898 -0.486109 -0.612798 -0.790239 3.45197 11.0786)" fill="#90311B"/>
<rect width="15" height="4" rx="2" transform="matrix(1 0 0 -1 13.0005 45)" fill="#90311B"/>
<path d="M377.732 19.8274C378.87 20.1406 380.034 19.418 380.258 18.2589L380.459 17.215C380.487 17.0716 380.527 16.9307 380.577 16.7937L380.826 16.1218C381.237 15.0109 380.609 13.7862 379.467 13.472V13.472C378.485 13.2019 377.456 13.7042 377.065 14.6443L376.655 15.6304C376.553 15.8755 376.481 16.1323 376.442 16.395L376.266 17.5759C376.115 18.5891 376.744 19.5556 377.732 19.8274V19.8274Z" fill="#90311B"/>
<rect width="15" height="4" rx="2" transform="matrix(1 0 0 -1 4.00055 37)" fill="#90311B"/>
<rect width="15" height="4" rx="2" transform="matrix(1 0 0 -1 10.0005 15)" fill="#90311B"/>
<g filter="url(#filter0_d_2302_1904)">
<path d="M9.00055 26.6667H11.2005C11.2005 27.4467 12.7075 28.1111 14.5005 28.1111C16.2935 28.1111 17.8005 27.4467 17.8005 26.6667C17.8005 25.8722 16.6565 25.5833 14.2365 25.2006C11.9045 24.8178 9.00055 24.3411 9.00055 22.3333C9.00055 21.0406 10.6175 19.9428 12.8505 19.5744V18H16.1505V19.5744C18.3835 19.9428 20.0005 21.0406 20.0005 22.3333H17.8005C17.8005 21.5533 16.2935 20.8889 14.5005 20.8889C12.7075 20.8889 11.2005 21.5533 11.2005 22.3333C11.2005 23.1278 12.3445 23.4167 14.7645 23.7994C17.0965 24.1822 20.0005 24.6589 20.0005 26.6667C20.0005 27.9594 18.3835 29.0572 16.1505 29.4256V31H12.8505V29.4256C10.6175 29.0572 9.00055 27.9594 9.00055 26.6667Z" fill="#90311B"/>
</g>
<path d="M13.8577 13H30.0006C30.5528 13 31.0005 13.4477 31.0005 14V34C31.0005 34.5523 30.5528 35 30.0005 35H7.00055" stroke="#90311B" stroke-width="4"/>
<defs>
<filter id="filter0_d_2302_1904" x="5.00055" y="18" width="19" height="21" filterUnits="userSpaceOnUse" color-interpolation-filters="sRGB">
<feFlood flood-opacity="0" result="BackgroundImageFix"/>
<feColorMatrix in="SourceAlpha" type="matrix" values="0 0 0 0 0 0 0 0 0 0 0 0 0 0 0 0 0 0 127 0" result="hardAlpha"/>
<feOffset dy="4"/>
<feGaussianBlur stdDeviation="2"/>
<feComposite in2="hardAlpha" operator="out"/>
<feColorMatrix type="matrix" values="0 0 0 0 0 0 0 0 0 0 0 0 0 0 0 0 0 0 0.25 0"/>
<feBlend mode="normal" in2="BackgroundImageFix" result="effect1_dropShadow_2302_1904"/>
<feBlend mode="normal" in="SourceGraphic" in2="effect1_dropShadow_2302_1904" result="shape"/>
</filter>
</defs>
</svg>
