<svg width="51" height="44" viewBox="0 0 51 44" fill="none" xmlns="http://www.w3.org/2000/svg">
<g filter="url(#filter0_d_2302_1922)">
<path d="M22.5 8H7C6.44772 8 6 8.44772 6 9V33C6 33.5523 6.44772 34 7 34H35.5" stroke="#90311B" stroke-width="4"/>
</g>
<g filter="url(#filter1_d_2302_1922)">
<path d="M31.5 28H44C44.5523 28 45 27.5523 45 27V3C45 2.44772 44.5523 2 44 2H14" stroke="#90311B" stroke-width="4"/>
</g>
<rect width="13" height="4" rx="2" transform="matrix(1 0 0 -1 10 4)" fill="#90311B"/>
<rect width="13" height="4" rx="2" transform="matrix(1 0 0 -1 11 10)" fill="#90311B"/>
<rect width="11" height="4" rx="2" transform="matrix(1 0 0 -1 28 30)" fill="#90311B"/>
<g filter="url(#filter2_d_2302_1922)">
<rect width="23" height="3" rx="1.5" transform="matrix(1 0 0 -1 15 16)" fill="#90311B"/>
</g>
<g filter="url(#filter3_d_2302_1922)">
<rect width="15" height="3" rx="1.5" transform="matrix(1 0 0 -1 19 22)" fill="#90311B"/>
</g>
<rect width="11" height="4" rx="2" transform="matrix(1 0 0 -1 27 36)" fill="#90311B"/>
<defs>
<filter id="filter0_d_2302_1922" x="0" y="6" width="39.5" height="38" filterUnits="userSpaceOnUse" color-interpolation-filters="sRGB">
<feFlood flood-opacity="0" result="BackgroundImageFix"/>
<feColorMatrix in="SourceAlpha" type="matrix" values="0 0 0 0 0 0 0 0 0 0 0 0 0 0 0 0 0 0 127 0" result="hardAlpha"/>
<feOffset dy="4"/>
<feGaussianBlur stdDeviation="2"/>
<feComposite in2="hardAlpha" operator="out"/>
<feColorMatrix type="matrix" values="0 0 0 0 0 0 0 0 0 0 0 0 0 0 0 0 0 0 0.25 0"/>
<feBlend mode="normal" in2="BackgroundImageFix" result="effect1_dropShadow_2302_1922"/>
<feBlend mode="normal" in="SourceGraphic" in2="effect1_dropShadow_2302_1922" result="shape"/>
</filter>
<filter id="filter1_d_2302_1922" x="10" y="0" width="41" height="38" filterUnits="userSpaceOnUse" color-interpolation-filters="sRGB">
<feFlood flood-opacity="0" result="BackgroundImageFix"/>
<feColorMatrix in="SourceAlpha" type="matrix" values="0 0 0 0 0 0 0 0 0 0 0 0 0 0 0 0 0 0 127 0" result="hardAlpha"/>
<feOffset dy="4"/>
<feGaussianBlur stdDeviation="2"/>
<feComposite in2="hardAlpha" operator="out"/>
<feColorMatrix type="matrix" values="0 0 0 0 0 0 0 0 0 0 0 0 0 0 0 0 0 0 0.25 0"/>
<feBlend mode="normal" in2="BackgroundImageFix" result="effect1_dropShadow_2302_1922"/>
<feBlend mode="normal" in="SourceGraphic" in2="effect1_dropShadow_2302_1922" result="shape"/>
</filter>
<filter id="filter2_d_2302_1922" x="11" y="13" width="31" height="11" filterUnits="userSpaceOnUse" color-interpolation-filters="sRGB">
<feFlood flood-opacity="0" result="BackgroundImageFix"/>
<feColorMatrix in="SourceAlpha" type="matrix" values="0 0 0 0 0 0 0 0 0 0 0 0 0 0 0 0 0 0 127 0" result="hardAlpha"/>
<feOffset dy="4"/>
<feGaussianBlur stdDeviation="2"/>
<feComposite in2="hardAlpha" operator="out"/>
<feColorMatrix type="matrix" values="0 0 0 0 0 0 0 0 0 0 0 0 0 0 0 0 0 0 0.25 0"/>
<feBlend mode="normal" in2="BackgroundImageFix" result="effect1_dropShadow_2302_1922"/>
<feBlend mode="normal" in="SourceGraphic" in2="effect1_dropShadow_2302_1922" result="shape"/>
</filter>
<filter id="filter3_d_2302_1922" x="15" y="19" width="23" height="11" filterUnits="userSpaceOnUse" color-interpolation-filters="sRGB">
<feFlood flood-opacity="0" result="BackgroundImageFix"/>
<feColorMatrix in="SourceAlpha" type="matrix" values="0 0 0 0 0 0 0 0 0 0 0 0 0 0 0 0 0 0 127 0" result="hardAlpha"/>
<feOffset dy="4"/>
<feGaussianBlur stdDeviation="2"/>
<feComposite in2="hardAlpha" operator="out"/>
<feColorMatrix type="matrix" values="0 0 0 0 0 0 0 0 0 0 0 0 0 0 0 0 0 0 0.25 0"/>
<feBlend mode="normal" in2="BackgroundImageFix" result="effect1_dropShadow_2302_1922"/>
<feBlend mode="normal" in="SourceGraphic" in2="effect1_dropShadow_2302_1922" result="shape"/>
</filter>
</defs>
</svg>
