<svg width="24" height="40" viewBox="0 0 24 40" fill="none" xmlns="http://www.w3.org/2000/svg">
<g filter="url(#filter0_d_2302_1893)">
<path d="M17.5 18H6C5.44772 18 5 18.4477 5 19V23.5C5 24.0523 5.44772 24.5 6 24.5H17.5C18.0523 24.5 18.5 24.0523 18.5 23.5V19C18.5 18.4477 18.0523 18 17.5 18Z" stroke="#90311B" stroke-width="2" shape-rendering="crispEdges"/>
</g>
<rect width="11" height="4" rx="2" transform="matrix(1 0 0 -1 12 4)" fill="white"/>
<rect width="11" height="4" rx="2" transform="matrix(1 0 0 -1 7 40)" fill="#90311B"/>
<rect width="6" height="4" rx="2" transform="matrix(1 0 0 -1 18 40)" fill="#90311B"/>
<g filter="url(#filter1_d_2302_1893)">
<path d="M5 11.5632C5.51282 10.3786 7 8.73554 9 11.5632C11.1539 14.6084 13.3979 11.9223 13.6154 11.5632C13.9231 11.0551 16 8.52036 18 11.5644" stroke="#90311B" stroke-width="2"/>
</g>
<defs>
<filter id="filter0_d_2302_1893" x="0" y="17" width="23.5" height="16.5" filterUnits="userSpaceOnUse" color-interpolation-filters="sRGB">
<feFlood flood-opacity="0" result="BackgroundImageFix"/>
<feColorMatrix in="SourceAlpha" type="matrix" values="0 0 0 0 0 0 0 0 0 0 0 0 0 0 0 0 0 0 127 0" result="hardAlpha"/>
<feOffset dy="4"/>
<feGaussianBlur stdDeviation="2"/>
<feComposite in2="hardAlpha" operator="out"/>
<feColorMatrix type="matrix" values="0 0 0 0 0 0 0 0 0 0 0 0 0 0 0 0 0 0 0.25 0"/>
<feBlend mode="normal" in2="BackgroundImageFix" result="effect1_dropShadow_2302_1893"/>
<feBlend mode="normal" in="SourceGraphic" in2="effect1_dropShadow_2302_1893" result="shape"/>
</filter>
<filter id="filter1_d_2302_1893" x="0.0822754" y="8.99667" width="22.7535" height="13.0034" filterUnits="userSpaceOnUse" color-interpolation-filters="sRGB">
<feFlood flood-opacity="0" result="BackgroundImageFix"/>
<feColorMatrix in="SourceAlpha" type="matrix" values="0 0 0 0 0 0 0 0 0 0 0 0 0 0 0 0 0 0 127 0" result="hardAlpha"/>
<feOffset dy="4"/>
<feGaussianBlur stdDeviation="2"/>
<feComposite in2="hardAlpha" operator="out"/>
<feColorMatrix type="matrix" values="0 0 0 0 0 0 0 0 0 0 0 0 0 0 0 0 0 0 0.25 0"/>
<feBlend mode="normal" in2="BackgroundImageFix" result="effect1_dropShadow_2302_1893"/>
<feBlend mode="normal" in="SourceGraphic" in2="effect1_dropShadow_2302_1893" result="shape"/>
</filter>
</defs>
</svg>
